<svg class="S" xmlns="http://www.w3.org/2000/svg" xml:space="preserve" id="design" x="0" y="0" version="1.1" viewBox="0 0 126 126"><style>.st1{fill:#fff}.st4{fill:#d66b36}.st5{fill:#1e1e1e}.st6{fill:#4d4d4d}.st8{fill:#ffa73e}</style><path fill="#292433" d="M10.3 93.1V32.9L63 2.4l52.7 30.5v60.2L63 123.6z"/><path d="m63 3 52.2 30.2v59.7L63 123 10.8 92.8V33.1L63 3m0-1.2-.5.3-52.2 30.2-.5.3v60.9l.5.3L62.5 124l.5.3.5-.3 52.2-30.2.5-.3V32.6l-.5-.3L63.5 2.1l-.5-.3z" class="st1"/><path fill="#bcae00" d="M115.2 40.3v-7.2L63 3 10.8 33.2v46.1s25.6-11.8 50-13.3c24.3-1.5 54.4-25.7 54.4-25.7z"/><path fill="#a00c0c" d="m88.3 54-.6.2c-.1 0-1.6.5-2.2 1.7-.3.6-.4 1.6-.5 3.3-.1 1.7-.3 4.1-.8 7-.9 5.4-5.6 9.7-5.7 9.7l-.5.5.7.3c1.6.6 2.3 1.4 2.3 1.4l.4.4.4-.4c.2-.2 4.1-4.4 5.6-10 1.5-5.5 1-13.2.9-13.5V54z"/><path d="M58.2 43.4c0-.2 0-.3-1.7-2.6-1.7-2.4-1.9-2.5-2-2.6-.4-.2-2.5-1.4-4.8-.9-.6.1-1.2.2-1.6.3-1.2.3-4.4 1.2-4.6 2.5-.1 1-.1 3.2.2 4.8.6 3.3 5 3.4 5.1 3.5l.4.1.2-.4c.5-1 1-2.1 1.1-2.3.1 0 .6-.2 2.1-.1h.1c-.6.3-1.2.8-1.6 1.5-1 1.6-1.3 4.8 1.9 6.9 2 1.3 3.9 1.7 5.3 1.7.8 0 1.4-.1 1.8-.2 1.1-.4 1.9-2.1 2.1-2.5l.1-.3-.3-.3s-2.6-2.9-3.1-4.5c-.4-1.7-.7-4.3-.7-4.6zm2.4 4v.1c0 .1.5 1.6 2 2.3.9.5 3 1.2 4.9 1.2.6 0 1.3-.1 1.8-.3 2.1-.8 3-2.8 3-2.8L73 38c0-.3-1-1.2-3.1-2.6-2.1-1.4-5.1-2.4-7-1.4-1.9 1-2.2 2.2-2 5.2.2 2.9-.2 8-.2 8.1l-.1.1zM77.3 51c.2 0 .5 0 .7-.1 1.6-.4 2.3-.8 2.5-1.2l.3-.5c.1-.1.7-.4.9-6.2.1-.4-.7-2.8-2.3-4-2-1.5-3.8-.6-4.8-.2-1.2.4-1.3 1.6-1.3 1.7-.1 1.2-.5 7.2-.2 8.2.3 1.2 2.5 2.3 4.2 2.3zm6.1 1.8c.5.2 1.3.1 1.8.1.6 0 1.2-.3 1.6-.6 1-.9 4-3 3.7-4.1-.3-1.3-3.5-7-5.6-6.7-1.9.3-2.9 3-3 3.2 0 .2-.7 4.2-.5 5.8.2.8.9 1.9 2 2.3z" class="st4"/><path d="m46.4 76.5.1-.5c0-.1 0-.6-.4-2.4-.4-1.8-1.4-4.1-3.4-7.7-1.7-3.1-1.8-7.1-1.8-7.2v-.6l-.6.1s-1.2.2-2.9-.5c-.9-.4-1.3-1-1.6-1.5h1.1c1.6 0 2.5-.3 2.6-.3l1.4-.5-1.4-.4c-.1 0-3.6-1.2-4.2-5.1-.3-1.9-.1-3.3.2-4.2.2 2.3 1 6 3.7 6 3.8.1 4.4-1.8 4.4-1.8v-.2s-.5-2.1-.6-6.3c0-4 2.5-6.3 2.5-6.3l1-.9h-1.3c-.2 0-4.8.1-7.2 1-2.3.8-6 3-6.5 4.3-.4 1.1-.3 2.9.4 6.5.7 3.3 1 6.2 1.2 9 .1 3.4 1.9 6.9 5.5 10.7 2.9 3.1 4.4 6.3 4.9 7.5.2.4.2.5.3.6.3.5 1.5.7 2.1.8l.5-.1z" class="st5"/><path d="M52.4 28.8c-2.9.3-6.4 2-6.7 2.5 0 0-.4 1.8-.4 2.7l.2 2.6 2.1-.5c2.5.2 5.4.4 5.8.6 3.1 2.3 4.1 4.2 4.5 3.7l1.6 2.3.1-3.3c0-1.6.1-7-.3-7.8-.5-.9-3.9-3-6.9-2.8z" class="st4"/><path d="M94.1 34.8c-.1-.1-1.1-2.4-2.7-2.9-.8-.3-.9-.8-2.6-1.1-1.4-.3-3.1 3.4-3.6 3.5.1-.8.3-3-.2-3.9-.4-.7-2.1-3.2-4.8-3.9-2.1-.5-4.1.5-4.9 1 0 0-.1 0-.1.1-.1-.1-.3-.1-.5-.2.1-.6.2-1.8-.8-3-.7-1-2.9-3.3-7.4-4.1-3.1-.5-4.9 1.2-5.5 1.9l-.7-.2c-.3-1-1.5-3.8-5.1-4.5-3.7-.7-5.4 1-8.8 4.4l-1.7 1.7c-1.9 1.9-3.4 0-4.2.7-1.2 1.1-2.5 2.3-2.6 2.7 0 .1-2 2.7-1.8 4.2.1.4 1.2 1.9 1.6 2.3.3.2 3.1-1 3.5-1 .4-.1 1.4-.2 2.2-.2 2.1-.1 2.7 0 2.8 0v-.5h.6s0-1.4.6-3.1c.3-.9.9-1.7 1.4-2.4l.2 2.9.1 1.2c.3-.3.5-.6.8-.9v-.2c.1-.1.6-1 3.6-1.3 3.3-.4 4.8 1 4.9 1.1l.7.7.1-1c.1-.6 1.1-3.4 1.2-3.4.1 0-.3 11.7-.3 11.7s3.2-3.4 6.2-3.1c2.5.3 3.4 1.6 3.9 2 .2.2 2.3 2.5 2.6 2.4.3-.1.5-4.4.6-4.7.2 0 .1 3.1.1 3.1l-.1 1.6 1-1.1s1.4-.4 3.5.8c1.2.7 1.8 1.3 2.2 1.7.2.3 1 2.4 1.4 2.3.4 0 .7 1 .7 1l1.4-.8s1.4-1.6 3-.7c1.5.8 1.3 2 1.3 2l3.2 4.6 1.2-2.1c.1-.1 2.6-3.9 3.2-5.4.6-1.7-.5-5.1-1.4-5.9zM63.6 67.7l-.3-.2c-.4-.2-1.1-.5-1.8-.2-.6.2-1.1.9-1.4 1.9-.2.6-.6 1-1 1.3.4-.6.7-1.4.7-2.4.1-1.5-.5-3-1.8-4.4-3.9-4.2-6.1-4.1-6.4-4.1l-1.1.1.8.8s4.3 4 3.2 7.1c-.8 2.4-2.7 4.6-3.7 5.6-.8-2.5-3-8-4.7-11.2-1.8-3.3-1.2-5.8-1.2-5.8l.4-1.4-1.2.9c-.1.1-2.1 1.6-1.1 5.7.2.9.7 1.9 1.3 3.3.7 1.5 1.5 3.3 2.5 5.9 1.8 4.8 2.3 6.8 2.3 6.8l.1.3.3.1c.1 0 .3.1 1.2.1 1.4 0 4.6-.2 11.4-1 10.9-1.3 12.9-1.1 13-1.1h.3l.2-.2c.1-.1 1.6-2.2 4.8-9.4 3.2-7.1 2.3-8.6 2-8.9l-.5-.4-.2.6s-.1.3-.9 1.5c-.4.7-.9 1.2-1.4 1.5-.7-.4-2.6-1.4-8.4.4-5.8 1.6-7.1 5.2-7.4 6.8zM66 97.3c2.2 0 4.3-.1 6-.2 5.6-.4 6.8-1.2 7.2-1.9 1.5-2.2.8-10.6.7-11.5-.1-.7-.6-1.4-1.5-2.1-.9-.6-2.6-1.3-3-1.2l-.4.1.1.4c.5 2.9.9 6.1.7 6.6-.1.2-.1.4-.1.5 0 .3 0 .3-.3.5-.4.3-1.4.6-2.9.9-4 1-6.9 1.2-7 1.2l-1.5.1 1.3.8c.1.1 1.4.8 5.5.8 1.5 0 2.7-.1 3.6-.3-.5.2-1.2.4-2 .6-4.5.7-10.7.8-18.4.1-8-.7-8.8-1.7-8.8-1.8 0 0 .1.1 0 .3l-.9-.4c0 .1-.9 1.8.7 3.6 1.6 1.6 6 2.4 15 2.8 2.1.1 4.1.1 6 .1z" class="st5"/><path d="m58 81.9 2.8-.7L58 81s-4.3-.4-7-.8c-1.7-.2-2.9-.4-3.6-.5-.6-.1-1.2.2-1.6.7-.5.8-1.3 2.4-1.4 4.6 0 3.4 1.7 4.5 8.2 5.1 1.3.1 2.3.2 3.3.2 4 0 5.3-.8 5.4-.9l1-.6-1.2-.2c-.1 0-2.6-.5-6.9-.9-1-.1-1.8-.2-2.5-.3.8 0 1.6 0 2.5-.1 3.5-.2 4.4-.5 4.5-.6l1.6-.8-1.8-.1-4.2-.4c.3 0 .6 0 .9-.1 3.7-.4 4.7-1.1 4.9-1.1l1.1-.9h-1.4s-2.5 0-5.7-.4c-.2 0-.4-.1-.6-.1.3 0 .6-.1.9-.1 2-.4 3.6-.7 3.6-.8z" class="st5"/><path d="m85.4 53.9-3.7.9s1 1.7.7 2.4c-.3.7-4.2 7.1-4.2 7.1s-1.5-1.4-6-.4c-4.5.9-7.2 6-9.8 8.6-2.6 2.6-8.5 2.4-8.5 2.4s3.1-4.1 3.4-6.2c.3-2-3.4-6.6-3.4-6.6s0 4.3-.1 5.2c-.1 1-1.8 4.9-4 6.9s-2.6 2.3-2.6 2.3l-.4.5s-.1 2.2.8 2.2 5-1 17-1 18.6 2.3 18.6 2.3 3.8-3.6 6.9-11.8c3.1-8.2.8-17.9.8-17.9l-5.5 3.1z" class="st6"/><path d="m47.2 76.6-6.5-20.7s-4 .1-6-2.7c-2-2.8-1.3-7-1.4-7.2-.1-.7 1.2-3.5 4.7-3.9 0 0-.7 2.4 1.2 6.3s4.8 2.8 4.8 2.8l-1-10.5 2.3-4.5s-2-2.6-8.8-.3c-6.8 2.3-7.7 4.3-7.7 4.3s.2 3.3.5 8 .7 5.2.7 5.2-1.1 6.1 2.7 11.7c3.8 5.6 6.9 8.4 6.9 8.4l2.1 5.8 3-1.3 2.5-1.4z" class="st6"/><path fill="#3a3a3a" d="M65.7 92.8c-11.6.3-23.6-4-23.6-4l.7 6.7s6.8 2.8 20.6 2.1C77.3 96.8 80 95 80 95l-.8-15.7s-1 .2-1.2 2.8c-.2 2.8 0 8-.9 8.6-1.8 1.2.2 1.9-11.4 2.1z"/><path d="M45.5 23.6c3.4 2 .5 7.5.5 7.5s3.8-2.3 6.2-2.3c2.4 0 3.9.9 3.9.9s3.9 1.5 4.1 1.3c.1-.1-.4-3.9-.4-3.9s.5-1.8.7-1c.2.8-.2 10.2-.2 10.2s8.3-1.7 8.2-1.8c-.1-.1 1.5-5 2.7-5.6 1.2-.5 1.9.6 2.1 1.1.1.5-.5 10.3-.5 10.3l5.5-1.8s2.6.9 3.6.2c1.7-1.2 2.7-3 2.7-3l-2.3 7s2-2.4 4.3-1c1.7 1 3 4.9 3 4.8 0-.2 2.7-6 2.3-8.8-.4-2.8-1.3-5.8-5.6-5 0-.3 2.3-6.7-1.9-8.6-6.4-2.7-9.3.9-9.3.9s.4-4.7-4-6.5c-4.8-2-10.6 2.8-10.6 2.8s1.9-6-7.4-6.4C48.7 14.7 36.5 28 36.5 28l-.5 5.8s8.6-10.7 9.5-10.2z" class="st6"/><path d="M67 47.5c1.8-1.2 2.2-10.3 1.9-11.1-.3-.9-3.2-2.3-3.2-2.3-1.2-.5-4.3.3-4.8 2.2-.6 1.9-1.2 8.9-.4 9.7.8.8 4.6 2.7 6.5 1.5zm11.4 1.6c1-.9 1.6-8.8 1.2-9.9-.4-1.1-3.5-1.2-3.5-1.2-.4-.5-2.2 0-2.3 1.3-.2 1.3-.6 7.5-.3 8.1.3.6 3.9 2.6 4.9 1.7zm9.4-6.1c0-.8-2.1-1.2-2.9-1.2-.8 0-2.5 2.1-2.5 2.1s-1 5.3-.7 5.8c.3.5 3.8 1.2 4.3.9.5-.5 1.8-6.8 1.8-7.6zm-28.6-7.9c.6-.7-.4-3.9-.4-4.2 0 0-2.7-2.2-4.6-2.2-1.8 0-3.1.6-3.2.7-.1.1-2.5 3.8-1.8 4.7.8 1 9.4 1.7 10 1z" class="st8"/><path d="m53.2 40.2 2.1 2.8c.3.4 1.1 4.1 1.1 4.1s-2.4.8-.8 3.7c1.6 3 6.4 4.7 7.2 4 .8-.6.9-1.8.9-1.8s-3.9-3.6-4.4-7.5c-.4-3.9 0-3.8-.3-4.2-.3-.3-3.8-3.5-5-4.2-3-1.8-5.5-1.5-6.1-1.3-.6.2-2.8 1-2.8 1.5S43 40.6 43 40.6l.6 1.4s3.1-2.4 6.1-2.4c3.1 0 3.5.6 3.5.6z" class="st8"/><path d="M95 39.9c-.1-1.1-.4-4.8-1.4-5.9-3.1-3.5-5.8-3.1-5.8-3.1s1-2.9-2.3-5.6c-6.8-5.6-10.1-.4-10.1-.4s2.1-3.4-3.7-6.8c-5.8-3.4-10.3-.9-10.3-.9s-3.8-5.5-10.8-3c-2.6.9-15 13.4-15 13.4l.2 6.5s-3.3 1.7-6.8 4.4-.1 12.3-.1 12.4c0 .1 1.3 10.4 1.3 10.4s10.5 15.4 10.3 15.9c-.2.4 5.4.7 5.4.7l-5-2.2s-3.7-9-7.1-12.2c-3.4-3.2 1.2-7.9 1.2-7.9s-.2.6 2.3 1.5c2.5.8 4.4-.9 4.4-.9s-9.3-.3-10.9-2.7c-1.5-2.4-2.1-12.8.5-14.9 2.6-2.1 11.4-3.5 11.4-3.5s-1.6 4.1-1.3 8.5c.2 4.3 1.5 4.8 1.5 4.8l.1-7.2 1.5-3.8 1.1-2.2s-1.3-2.5-2.6-1.7-6.7-1.2-6.6-3.1c.1-2.6 5.3-6.7 7.8-9.1 5.5-5.2 9.2-5.9 12.4-5 3.2.8 3.2 8.2 3.2 8.2l1.1-3.2s.1-.1.2-.3c.1-.1 0 1.1 0 1.1l1.2-2.2s6.2-2.8 9-1.1c2.8 1.6 3.1 10.7 3.1 10.7l1-4.2-.4 2.4 1.5-2.2s1.5-.6 1.6-.4c.1.2 3.7-1.2 5.6.1 4.6 3.1 1.4 11.6 1.4 11.6l2.3-5-.6 2.7s1.6-4.2 5.4-.4c2.1 2.1 1.1 10.2 1.1 10.2s1.8-3.3 1.7-4.4zM51.3 97.3l-2.5-.9c1.4 1 2.5.9 2.5.9z" class="st1"/><path d="M47.8 95.4c-1.7-2.1.8-4.4.8-4.4l-1.4-1.1s-.7-4.7 0-7 1.8-4 3.2-3.8c0 0-4.8-1-5.6 0-.7 1-1.6 15.3-1.6 15.3l5.6 2.1c-.3-.4-.6-.7-1-1.1zm6.3 3.7z" class="st1"/><path d="M94.1 32.7s-2.8-2.1-5.5-2.8c-.2-1.3 0-5.6-7.5-7.3-.7-.1-1.4-.3-2.1-.3-.6 0-2.5.9-3 .9-.1-.2-.4-6.4-9-7-.6 0-1.3-.2-1.9-.2-1.3 0-2.5.3-3.5.7-1.3-1.5-3.2-2.7-5.8-3.2-.8-.2-1.6-.2-2.3-.2-4.4 0-6.9 2.5-10.1 5.7l-1.7 1.7c-1.9 1.8-3.1 2.9-3.8 3.6-1.4 1.3-2.4 2.3-2.7 4.1 0 .3-.1.8 0 3.8 0 .5.1 1.1.3 1.6-1.2.5-2.5 1.2-3.7 1.9-2.4 1.5-3.6 2.8-4.2 4.3-.8 2.1-.5 4.8.3 8.7.6 3.1 1 5.8 1.1 8.4.2 4.4 2.3 8.7 6.6 13.2 2.5 2.7 3.7 5.3 4.2 6.4.2.5.4.9.7 1.3.4.5.8.9 1.3 1.2-.7 1.3-1.4 3.3-1.4 5.8 0 1.1.1 2.2.4 3.1-1.1 2.1-1.1 5.4 1.3 8 .9 1 7.7 5.6 22 5.6s20.1-4.6 20.4-5.3c.4-1.2 1.3-8 .1-14-.1-.3-1.3-1.2-1.4-1.5.5-.2 1-.6 1.5-1 .5-.5 4.8-5.3 6.6-11.7 1.7-6.2 1.2-12.6 1.2-12.9-.1-1.3-.3-3.8-1-4.6.5-1.4.7-2.4.8-3.2.3-.2 2.4-2.4 3.2-4.5 1.3-3.9.1-8.8-1.4-10.3zM41 76.9c-.3-.4-2-4.9-5.7-8.8-3.7-3.9-5.2-8.8-5.3-11.9-.1-3.1-1-6.4-1.6-9.4-.6-3 .3-6.9.7-7.9.4-1.1 7.1-4.1 9.4-5 2.4-.9 6.8 1.2 6.8 1.2s-3.7 2.4-3.1 8.2c.5 4.3.6 6.4.6 6.4s-.5 1.6-3.9 1.5c-3.4-.1-3.3-7.4-3.3-7.4s-1.8 1.9-1 6.1c.7 4.3 4.6 5.5 4.6 5.5s-.8.3-2.4.3-1.8-.2-1.8-.2.4 1.8 2.2 2.7c1.8.8 3.2.5 3.2.5s0 4.2 1.9 7.4c1.8 3.2 2.9 5.6 3.3 7.5s.9 4.3.9 4.3-5.2-.6-5.5-1zm13.5-38.6c.4.2 4.5 4.2 4.5 4.3 0 .1.3 3.3.8 5.1.5 1.8 3 3.8 3 3.8s-2.3 3.2-3.3 3.6c-.9.3-3.8.5-6.6-1.4-2.9-1.9-2.7-4.8-1.8-6.3.9-1.5 3-1.8 3-1.8s-.1-.3-1.9-.4c-1.8-.1-2.4.1-2.5.3-.1.2-1.2 2.5-1.2 2.5s-3.8-.2-4.3-3.3c-.3-1.5-.5-3.2-.3-4.2.1-1.1 2.3-3.1 3.4-3.8.5-.4 1.2-.6 2.6-.5 2.8.3 4.2 1.8 4.6 2.1zm-8-6.7c.1-.2 3.9-2 6.4-2.3 2.5-.3 6.2 2.3 6.6 3 .3.7-.6 4.5-.4 8.2-2.2-2.4-3.1-3-4.3-4-4.7-3.6-8-1.5-8-1.5s-.4-3.1-.3-3.4zm3.9 42.5s3.2-3 4.4-6.4c1.2-3.4-3.4-7.6-3.4-7.6s2.1-.1 6 4c3.8 4.1 0 7.5 0 7.5s2.2-.2 2.9-2.2c.7-1.9 1.6-1.9 2.5-1.4l.9.4s.1-5.1 7.1-7.2c7-2.1 8-.2 8.3-.3.2-.1.9-.4 1.8-1.8.8-1.3 3.2-4.2 3.2-4.2s1.5 5.4-1.8 12.7C79 74.9 75 75.1 75 75.1s1-3.5-10.1-1.3c-4.3.9-15.4 3.3-15.4 3.3s-.4-1.9-2.3-6.9c-1.8-4.9-3.3-7.3-3.8-9.1-1-3.8.9-5.2.9-5.2s-.7 2.6 1.2 6.2c1.9 3.7 4.5 10.3 4.9 12zm10.5-35.4c-.1-2.5.7-3.6 2.1-4.4 1.4-.8 3.7 0 5.5 1.2 1.8 1.1 3.8 2.8 3.8 2.8s-.6 7.8-.7 8.5c0 0-1.2 2-2.8 2.6-1.6.6-5.5-.1-6.6-.6-1.1-.6-1.5-3.6-1.5-3.6-.2-3.6.3-4.4.2-6.5zm12.9 1.8s.5-1.5 1.4-1.9c.9-.3 1.6-.5 3.3.8 1.7 1.2 3.4 4.2 3.4 4.2s-1.1 5.3-1.2 5.6c-.2.3-.9 1.2-2.5 1.6-1.5.4-4.5-.8-4.8-1.8-.2-1 .4-8.5.4-8.5zm8.9 5.2s.2-3.5 2-3.7c1.7-.2 5 5.3 5.2 6.4.2 1.1-3.1 3.3-3.9 4-.8.7-3.7 0-3.9-1.5-.3-1.4.6-5.2.6-5.2zM53.8 83.2c3.3.5 5.8.4 5.8.4s-.9.7-4.6 1c-3.7.3-6 .1-6 .1 2.1.8 9.3 1.3 9.3 1.3s-.7.3-4.3.5c-3.6.2-6.1-.1-6.1-.1s1.7 1.1 6.1 1.4 6.9.9 6.9.9-1.9 1.2-8.4.6-11.8-1.5-11.7-4.5c0-2 1.2-4 1.7-4.8.2-.4 4.2-.3 4.6-.2.7.1 1.9.3 3.6.5 2.7.3 7 .8 7 .8s-1.5.4-3.5.6c-2 .2-4.4.2-4.4.2s.7.9 4 1.3zm29.5 12.5c-1.2 1.8-14.9 4.8-22.8 4.5-8-.3-16.7-3.9-18-5.5-1.5-1.5-.8-5.7-.8-5.7s2.5 3.4 12.2 4.3c9.7.9 15.3.4 18.5-.1 3.2-.5 4.4-2.2 4.4-2.2s-2.1 1-6.1 1c-4.1 0-5.3-.7-5.3-.7s2.9-.2 7.1-1.2c4.1-1 3.4-1.4 3.6-2.3.3-.9-.7-6.8-.7-6.8.1 0 8.4 1.3 8.5 3 .1 2.3.6 9.9-.6 11.7zm7.1-29.4c-1.5 5.5-7.1 13-7.1 13s-2.4-2.9-4.2-3.6c0 0 4.5-4.8 5.4-10.4.9-5.6.8-9.1 1.3-10.1s4.5-3.1 4.5-3.1 1.6 8.6.1 14.2zm2.4-22c-.6 1.5-1.8 3-1.8 3s-2.7-5.2-4.6-6.2c-1.9-1-3.5 1.3-3.5 1.3l1.8-4.7-2.3 4.7c-.2.4-2-2.7-2.3-3-.4-.5-1.1-1.1-2.3-1.8-2.4-1.4-4.2 1.4-4.2 1.4s1.2-7.5.7-7.7c-.5-.2-1.8 5.6-2 5.7-.2.1-3.1-3.6-6.6-4-3.5-.4-4.8 2.5-4.8 2.5s.4-6.3.1-8c-.1-.9-.5-2.5-.8-3-.2-.5-.4 6.1-.4 6.1s-3.4-3-7-2.6c-3.6.4-6.6 2.1-6.6 2.1l-.6-4.4-.6 5.5s.4.3-2 .4c-.8 0-1.8.1-2.3.2-.7.2-4.7 1.9-4.8 1.1-.1-.7 0-4 0-4.2.1-.5 4.3-5.3 8.9-9.8 4.6-4.5 8.2-5.3 12.2-4.5 4 .8 3.2 8.7 3.2 8.7l.8-1.3s.7-5.6 7.3-4.8c3.5.4 4.7 2.4 5.9 4 1.2 1.6.5 8.3.5 8.3s1.5-4.6 1.7-4.5c.1.1 2-2.4 4.4-1.8 2.4.6 4.9 2.3 6.8 5.8.5.8-1.9 7.3-1.9 7.3s1.9-5.2 3.7-4.8 4.2 3 4.6 4c1.9 5.2-.6 7.5-1.2 9z"/><path d="M97.4 79.5c-23.4 3.7-49.3 3.6-72.8-.2-2.3 8.3-3.6 16.9-6.1 25.7-.5 3-1 3-1.5 6 29.4-3.9 59.5-3.9 88.9 0-.5-3-1-3.1-1.5-6.1-2.8-8.7-4.5-17.2-7-25.4z"/><path d="M39.1 83.8c-.9 3-1.8 5.9-2.8 8.9h-.5c-.3-3.1-.6-6.1-.9-9.2-2.9-.2-5.7-.5-8.6-.8-1.9 7.1-3.8 14.3-5.8 21.7-.2 1-.3 2.1-.5 3.1 2.7-.2 5.5-.3 8.2-.5.5-3.8 1-7.6 1.4-11.4h.6c.2 3.8.4 7.6.7 11.3 2.4-.1 4.7-.2 7.1-.3 1-3.7 2-7.3 3-10.9h.7l-.9 10.8c2.7-.1 5.5-.2 8.2-.2 0-.9.1-1.8.1-2.7-.6-6.4-1.1-12.8-1.5-19.3-2.8-.2-5.6-.3-8.5-.5zm27.9.7c-.6 2.9-1.1 5.7-1.7 8.5h-.5c-.7-2.8-1.4-5.7-2-8.5-2.9 0-5.7 0-8.6-.1-1.1 6.3-2.2 12.7-3.4 19 0 .9-.1 1.8-.1 2.7 2.8 0 5.5-.1 8.3-.1 0-3.5.1-6.9.1-10.4h.6c.6 3.5 1.3 6.9 2 10.4h7.1c.6-3.5 1.2-6.9 1.7-10.4h.7c.1 3.5.3 7 .4 10.5 2.7 0 5.5.1 8.2.2-.1-.9-.1-1.8-.2-2.8-1.4-6.5-2.7-13-3.9-19.4-2.9.3-5.8.4-8.7.4zm28.8-1.7c-4.2.4-8.5.8-12.8 1.1-.5 6.7-1.2 13.3-1.9 19.8.1.9.1 1.9.2 2.8l8.4.3v-4.7c1.2 0 2.4.1 3.6.1.4 1.6.7 3.2 1.1 4.8 2.8.1 5.6.3 8.4.5-.2-1-.3-2.1-.5-3.1-2.2-7.4-4.4-14.6-6.5-21.6zm-6.1 13.5c0-2.3 0-4.6-.1-7h.9c.5 2.3 1 4.6 1.6 7h-2.4z" class="st1"/><path fill="#b5b5b5" d="M23.3 97.5c-.6 2.3-1.2 4.5-1.8 6.8l-.3 2.1c2.1-.1 4.1-.2 6.2-.3.4-2.9.7-5.7 1.1-8.6h-5.2zM34 85.2c0-.3-.1-.6-.1-.9-2.3-.2-4.7-.4-7-.6-.1.3-.2.6-.2.9 2.5.2 4.9.4 7.3.6zm12.9.7c0-.3 0-.6-.1-.9-2.4-.1-4.7-.2-7.1-.4l-.3.9c2.6.2 5 .3 7.5.4zm-4.3 11.7c-.2 2.7-.4 5.3-.6 8 2.1-.1 4.1-.1 6.2-.1 0-.6.1-1.2.1-1.9-.2-2-.3-4-.5-6h-5.2zm-11.2 0c.2 2.8.3 5.6.5 8.4 1.8-.1 3.5-.1 5.3-.2.8-2.7 1.5-5.5 2.3-8.2h-8.1zm30.8-11.4c-.1-.3-.1-.6-.2-.8-2.3 0-4.7 0-7-.1 0 .3-.1.6-.1.8 2.4.1 4.8.1 7.3.1zm12.8-.3c-.1-.3-.1-.6-.2-.8-2.4.1-4.7.2-7.1.2-.1.3-.1.6-.2.8 2.6 0 5.1-.1 7.5-.2zm-2.8 11.7c.1 2.6.2 5.2.4 7.8 2.1 0 4.1.1 6.2.1 0-.6-.1-1.2-.1-1.9-.4-2-.8-4.1-1.3-6.1-1.8.1-3.5.1-5.2.1zm-11.2 0c.5 2.6 1 5.2 1.5 7.7h5.3c.5-2.6.9-5.2 1.3-7.8-2.7.1-5.4.1-8.1.1zm-8.2 0c-.4 2-.7 4-1.1 6 0 .6 0 1.2-.1 1.8 2.1 0 4.2 0 6.2-.1 0-2.6.1-5.2.1-7.7h-5.1zm30 0c-.2 2.1-.4 4.1-.6 6.2.1.6.1 1.3.2 1.9 2.2.1 4.3.1 6.5.2v-4.6c1.8 0 3.6.1 5.4.1.4 1.6.7 3.2 1.1 4.8 2.2.1 4.3.2 6.5.3l-.3-2.1c-.7-2.3-1.4-4.6-2.1-6.8H82.8zm12.6-12.9-.3-.9c-3.7.4-7.5.6-11.2.9 0 .3 0 .6-.1.9 3.9-.3 7.7-.6 11.6-.9z"/></svg>