<svg xmlns="http://www.w3.org/2000/svg" xmlns:xlink="http://www.w3.org/1999/xlink" width="320" zoomAndPan="magnify" viewBox="0 0 240 96.749999" height="129" preserveAspectRatio="xMidYMid meet" version="1.0"><defs><g/><clipPath id="92f1279cb4"><path d="M 16.808594 4.089844 L 105.078125 4.089844 L 105.078125 92.363281 L 16.808594 92.363281 Z M 16.808594 4.089844 " clip-rule="nonzero"/></clipPath><clipPath id="0076313475"><path d="M 13.648438 1.03125 L 107.90625 1.03125 L 107.90625 95.285156 L 13.648438 95.285156 Z M 13.648438 1.03125 " clip-rule="nonzero"/></clipPath><clipPath id="4c52f423f6"><path d="M 32.761719 36.941406 L 50.289062 36.941406 L 50.289062 45.933594 L 32.761719 45.933594 Z M 32.761719 36.941406 " clip-rule="nonzero"/></clipPath><clipPath id="da33bbc8d3"><path d="M 33.824219 41.367188 C 48.859375 41.667969 49.082031 41.964844 49.15625 42.339844 C 49.15625 42.640625 48.859375 43.089844 48.410156 43.386719 C 46.914062 44.210938 38.683594 45.109375 37.710938 44.285156 C 37.339844 43.988281 37.339844 43.238281 37.636719 42.9375 C 38.460938 42.042969 47.886719 42.566406 48.410156 43.386719 C 48.558594 43.6875 48.035156 44.511719 47.738281 44.511719 C 47.511719 44.585938 47.0625 44.0625 46.914062 43.613281 C 46.613281 42.488281 47.0625 38.527344 47.738281 37.628906 C 48.109375 37.179688 48.785156 36.878906 49.15625 37.03125 C 49.53125 37.105469 49.980469 37.925781 49.90625 38.300781 C 49.90625 38.675781 49.308594 39.199219 49.007812 39.273438 C 48.632812 39.347656 48.1875 39.125 47.960938 38.898438 C 47.738281 38.675781 47.585938 38.152344 47.660156 37.851562 C 47.8125 37.476562 48.410156 36.953125 48.785156 36.953125 C 49.15625 36.953125 49.757812 37.402344 49.90625 37.777344 C 50.054688 38.078125 49.90625 38.601562 49.683594 38.824219 C 49.53125 39.050781 49.082031 39.273438 48.710938 39.273438 C 48.335938 39.199219 47.738281 38.675781 47.660156 38.375 C 47.585938 37.925781 48.1875 37.03125 48.632812 36.953125 C 48.933594 36.878906 49.605469 37.253906 49.90625 37.777344 C 50.503906 38.824219 50.28125 43.164062 49.683594 44.433594 C 49.308594 45.109375 48.933594 45.332031 48.109375 45.632812 C 46.164062 46.230469 38.535156 45.632812 36.816406 44.882812 C 36.214844 44.585938 35.917969 44.210938 35.84375 43.835938 C 35.769531 43.460938 35.992188 42.789062 36.292969 42.566406 C 36.589844 42.265625 36.890625 42.265625 37.5625 42.117188 C 39.359375 41.816406 46.914062 40.769531 48.410156 41.441406 C 48.859375 41.742188 49.15625 42.191406 49.15625 42.566406 C 49.082031 42.863281 48.859375 43.164062 48.410156 43.386719 C 46.613281 44.210938 35.769531 44.359375 33.824219 43.460938 C 33.148438 43.164062 32.773438 42.640625 32.773438 42.265625 C 32.773438 41.964844 33.824219 41.367188 33.824219 41.367188 " clip-rule="nonzero"/></clipPath><clipPath id="761f1ca7b6"><path d="M 0.761719 0.941406 L 18.289062 0.941406 L 18.289062 9.933594 L 0.761719 9.933594 Z M 0.761719 0.941406 " clip-rule="nonzero"/></clipPath><clipPath id="ed836debdb"><path d="M 1.824219 5.367188 C 16.859375 5.667969 17.082031 5.964844 17.15625 6.339844 C 17.15625 6.640625 16.859375 7.089844 16.410156 7.386719 C 14.914062 8.210938 6.683594 9.109375 5.710938 8.285156 C 5.339844 7.988281 5.339844 7.238281 5.636719 6.9375 C 6.460938 6.042969 15.886719 6.566406 16.410156 7.386719 C 16.558594 7.6875 16.035156 8.511719 15.738281 8.511719 C 15.511719 8.585938 15.0625 8.0625 14.914062 7.613281 C 14.613281 6.488281 15.0625 2.527344 15.738281 1.628906 C 16.109375 1.179688 16.785156 0.878906 17.15625 1.03125 C 17.53125 1.105469 17.980469 1.925781 17.90625 2.300781 C 17.90625 2.675781 17.308594 3.199219 17.007812 3.273438 C 16.632812 3.347656 16.1875 3.125 15.960938 2.898438 C 15.738281 2.675781 15.585938 2.152344 15.660156 1.851562 C 15.8125 1.476562 16.410156 0.953125 16.785156 0.953125 C 17.15625 0.953125 17.757812 1.402344 17.90625 1.777344 C 18.054688 2.078125 17.90625 2.601562 17.683594 2.824219 C 17.53125 3.050781 17.082031 3.273438 16.710938 3.273438 C 16.335938 3.199219 15.738281 2.675781 15.660156 2.375 C 15.585938 1.925781 16.1875 1.03125 16.632812 0.953125 C 16.933594 0.878906 17.605469 1.253906 17.90625 1.777344 C 18.503906 2.824219 18.28125 7.164062 17.683594 8.433594 C 17.308594 9.109375 16.933594 9.332031 16.109375 9.632812 C 14.164062 10.230469 6.535156 9.632812 4.816406 8.882812 C 4.214844 8.585938 3.917969 8.210938 3.84375 7.835938 C 3.769531 7.460938 3.992188 6.789062 4.292969 6.566406 C 4.589844 6.265625 4.890625 6.265625 5.5625 6.117188 C 7.359375 5.816406 14.914062 4.769531 16.410156 5.441406 C 16.859375 5.742188 17.15625 6.191406 17.15625 6.566406 C 17.082031 6.863281 16.859375 7.164062 16.410156 7.386719 C 14.613281 8.210938 3.769531 8.359375 1.824219 7.460938 C 1.148438 7.164062 0.773438 6.640625 0.773438 6.265625 C 0.773438 5.964844 1.824219 5.367188 1.824219 5.367188 " clip-rule="nonzero"/></clipPath><clipPath id="734b0104cc"><rect x="0" width="19" y="0" height="10"/></clipPath><clipPath id="d4614126c8"><path d="M 24.417969 28.296875 L 98.835938 28.296875 L 98.835938 71.421875 L 24.417969 71.421875 Z M 24.417969 28.296875 " clip-rule="nonzero"/></clipPath><clipPath id="5d5c0da023"><path d="M 24.546875 53.9375 C 32.402344 37.777344 37.789062 39.050781 39.207031 37.777344 C 39.957031 37.105469 39.65625 36.132812 40.03125 35.308594 C 40.480469 34.484375 41.078125 33.589844 41.675781 32.839844 C 42.351562 32.015625 43.097656 31.34375 43.921875 30.746094 C 44.746094 30.148438 45.640625 29.699219 46.539062 29.324219 C 47.4375 28.949219 48.484375 28.652344 49.457031 28.5 C 50.429688 28.351562 51.476562 28.351562 52.449219 28.425781 C 53.496094 28.5 55.441406 29.101562 55.441406 29.101562 C 55.441406 29.101562 59.105469 30.519531 61.574219 31.121094 C 64.941406 32.015625 69.804688 32.914062 73.992188 33.289062 C 78.40625 33.738281 84.167969 31.570312 87.535156 33.511719 C 90.824219 35.382812 93.667969 42.191406 94.265625 44.285156 C 94.492188 45.109375 94.042969 45.632812 94.191406 46.082031 C 94.339844 46.53125 94.789062 46.753906 95.089844 47.128906 C 95.464844 47.503906 96.210938 48.398438 96.210938 48.398438 C 96.210938 48.398438 96.734375 49.445312 97.035156 49.894531 C 97.332031 50.417969 97.855469 51.46875 97.855469 51.46875 C 97.855469 51.46875 98.15625 52.589844 98.230469 53.113281 C 98.382812 53.710938 98.679688 54.757812 98.679688 54.832031 C 98.679688 54.832031 98.679688 55.957031 98.679688 56.554688 C 98.679688 57.078125 98.679688 58.199219 98.679688 58.273438 C 98.679688 58.273438 98.457031 59.398438 98.304688 59.921875 C 98.15625 60.519531 97.855469 61.566406 97.855469 61.640625 C 97.855469 61.640625 97.332031 62.613281 97.109375 63.136719 C 96.808594 63.660156 96.285156 64.632812 96.285156 64.707031 C 96.285156 64.707031 95.539062 65.53125 95.164062 65.980469 C 94.789062 66.429688 94.042969 67.25 93.96875 67.25 C 93.96875 67.25 93.070312 67.925781 92.621094 68.222656 C 92.097656 68.597656 91.199219 69.195312 91.199219 69.269531 C 91.125 69.269531 90.078125 69.644531 89.554688 69.871094 C 89.03125 70.09375 87.984375 70.46875 87.90625 70.46875 C 87.90625 70.46875 86.785156 70.617188 86.261719 70.691406 C 85.664062 70.765625 84.542969 70.917969 84.542969 70.917969 C 84.390625 70.917969 76.011719 70.167969 73.246094 70.394531 C 71.601562 70.542969 71.078125 71.140625 69.429688 71.289062 C 66.511719 71.589844 61.128906 71.214844 56.9375 70.84375 C 52.75 70.542969 48.410156 70.316406 44.371094 69.195312 C 40.40625 68.148438 36.140625 66.800781 32.851562 64.332031 C 29.484375 61.789062 24.546875 53.9375 24.546875 53.9375 " clip-rule="nonzero"/></clipPath><clipPath id="253ec88c45"><path d="M 0.488281 0.296875 L 74.695312 0.296875 L 74.695312 43.421875 L 0.488281 43.421875 Z M 0.488281 0.296875 " clip-rule="nonzero"/></clipPath><clipPath id="e0c2ddf63f"><path d="M 0.546875 25.9375 C 8.402344 9.777344 13.789062 11.050781 15.207031 9.777344 C 15.957031 9.105469 15.65625 8.132812 16.03125 7.308594 C 16.480469 6.484375 17.078125 5.589844 17.675781 4.839844 C 18.351562 4.015625 19.097656 3.34375 19.921875 2.746094 C 20.746094 2.148438 21.640625 1.699219 22.539062 1.324219 C 23.4375 0.949219 24.484375 0.652344 25.457031 0.5 C 26.429688 0.351562 27.476562 0.351562 28.449219 0.425781 C 29.496094 0.5 31.441406 1.101562 31.441406 1.101562 C 31.441406 1.101562 35.105469 2.519531 37.574219 3.121094 C 40.941406 4.015625 45.804688 4.914062 49.992188 5.289062 C 54.40625 5.738281 60.167969 3.570312 63.535156 5.511719 C 66.824219 7.382812 69.667969 14.191406 70.265625 16.285156 C 70.492188 17.109375 70.042969 17.632812 70.191406 18.082031 C 70.339844 18.53125 70.789062 18.753906 71.089844 19.128906 C 71.464844 19.503906 72.210938 20.398438 72.210938 20.398438 C 72.210938 20.398438 72.734375 21.445312 73.035156 21.894531 C 73.332031 22.417969 73.855469 23.46875 73.855469 23.46875 C 73.855469 23.46875 74.15625 24.589844 74.230469 25.113281 C 74.382812 25.710938 74.679688 26.757812 74.679688 26.832031 C 74.679688 26.832031 74.679688 27.957031 74.679688 28.554688 C 74.679688 29.078125 74.679688 30.199219 74.679688 30.273438 C 74.679688 30.273438 74.457031 31.398438 74.304688 31.921875 C 74.15625 32.519531 73.855469 33.566406 73.855469 33.640625 C 73.855469 33.640625 73.332031 34.613281 73.109375 35.136719 C 72.808594 35.660156 72.285156 36.632812 72.285156 36.707031 C 72.285156 36.707031 71.539062 37.53125 71.164062 37.980469 C 70.789062 38.429688 70.042969 39.25 69.96875 39.25 C 69.96875 39.25 69.070312 39.925781 68.621094 40.222656 C 68.097656 40.597656 67.199219 41.195312 67.199219 41.269531 C 67.125 41.269531 66.078125 41.644531 65.554688 41.871094 C 65.03125 42.09375 63.984375 42.46875 63.90625 42.46875 C 63.90625 42.46875 62.785156 42.617188 62.261719 42.691406 C 61.664062 42.765625 60.542969 42.917969 60.542969 42.917969 C 60.390625 42.917969 52.011719 42.167969 49.246094 42.394531 C 47.601562 42.542969 47.078125 43.140625 45.429688 43.289062 C 42.511719 43.589844 37.128906 43.214844 32.9375 42.84375 C 28.75 42.542969 24.410156 42.316406 20.371094 41.195312 C 16.40625 40.148438 12.140625 38.800781 8.851562 36.332031 C 5.484375 33.789062 0.546875 25.9375 0.546875 25.9375 " clip-rule="nonzero"/></clipPath><clipPath id="fd8c05c0a0"><rect x="0" width="75" y="0" height="44"/></clipPath><clipPath id="76b7d9bf6f"><path d="M 31.042969 15.554688 L 98.367188 15.554688 L 98.367188 80.636719 L 31.042969 80.636719 Z M 31.042969 15.554688 " clip-rule="nonzero"/></clipPath></defs><g clip-path="url(#92f1279cb4)"><path fill="#001f42" d="M 105.078125 48.226562 C 105.078125 49.671875 105.007812 51.113281 104.867188 52.550781 C 104.722656 53.992188 104.511719 55.417969 104.230469 56.835938 C 103.949219 58.253906 103.597656 59.65625 103.179688 61.039062 C 102.757812 62.421875 102.273438 63.78125 101.71875 65.117188 C 101.164062 66.453125 100.546875 67.757812 99.867188 69.03125 C 99.1875 70.304688 98.445312 71.546875 97.640625 72.746094 C 96.835938 73.949219 95.976562 75.109375 95.058594 76.226562 C 94.144531 77.34375 93.171875 78.414062 92.152344 79.433594 C 91.128906 80.457031 90.058594 81.425781 88.941406 82.34375 C 87.824219 83.261719 86.664062 84.121094 85.464844 84.925781 C 84.261719 85.726562 83.023438 86.46875 81.75 87.152344 C 80.472656 87.832031 79.167969 88.449219 77.832031 89.003906 C 76.496094 89.554688 75.136719 90.042969 73.753906 90.460938 C 72.371094 90.882812 70.972656 91.230469 69.554688 91.515625 C 68.136719 91.796875 66.707031 92.007812 65.269531 92.148438 C 63.832031 92.292969 62.386719 92.363281 60.941406 92.363281 C 59.496094 92.363281 58.054688 92.292969 56.617188 92.148438 C 55.179688 92.007812 53.75 91.796875 52.332031 91.515625 C 50.914062 91.230469 49.515625 90.882812 48.128906 90.460938 C 46.746094 90.042969 45.386719 89.554688 44.050781 89.003906 C 42.71875 88.449219 41.410156 87.832031 40.136719 87.152344 C 38.863281 86.46875 37.625 85.726562 36.421875 84.925781 C 35.21875 84.121094 34.058594 83.261719 32.941406 82.34375 C 31.824219 81.425781 30.757812 80.457031 29.734375 79.433594 C 28.710938 78.414062 27.742188 77.34375 26.824219 76.226562 C 25.90625 75.109375 25.046875 73.949219 24.246094 72.746094 C 23.441406 71.546875 22.699219 70.304688 22.019531 69.03125 C 21.335938 67.757812 20.71875 66.453125 20.167969 65.117188 C 19.613281 63.78125 19.125 62.421875 18.707031 61.039062 C 18.289062 59.65625 17.9375 58.253906 17.65625 56.835938 C 17.371094 55.417969 17.160156 53.992188 17.019531 52.550781 C 16.878906 51.113281 16.808594 49.671875 16.808594 48.226562 C 16.808594 46.78125 16.878906 45.339844 17.019531 43.898438 C 17.160156 42.460938 17.371094 41.035156 17.65625 39.617188 C 17.9375 38.199219 18.289062 36.796875 18.707031 35.414062 C 19.125 34.03125 19.613281 32.671875 20.167969 31.335938 C 20.71875 30 21.335938 28.695312 22.019531 27.421875 C 22.699219 26.144531 23.441406 24.90625 24.246094 23.707031 C 25.046875 22.503906 25.90625 21.34375 26.824219 20.226562 C 27.742188 19.109375 28.710938 18.039062 29.734375 17.015625 C 30.757812 15.996094 31.824219 15.027344 32.941406 14.109375 C 34.058594 13.191406 35.21875 12.332031 36.421875 11.527344 C 37.625 10.726562 38.863281 9.984375 40.136719 9.300781 C 41.410156 8.621094 42.71875 8.003906 44.050781 7.449219 C 45.386719 6.898438 46.746094 6.410156 48.128906 5.992188 C 49.515625 5.570312 50.914062 5.21875 52.332031 4.9375 C 53.75 4.65625 55.179688 4.445312 56.617188 4.304688 C 58.054688 4.160156 59.496094 4.089844 60.941406 4.089844 C 62.386719 4.089844 63.832031 4.160156 65.269531 4.304688 C 66.707031 4.445312 68.136719 4.65625 69.554688 4.9375 C 70.972656 5.21875 72.371094 5.570312 73.753906 5.992188 C 75.136719 6.410156 76.496094 6.898438 77.832031 7.449219 C 79.167969 8.003906 80.472656 8.621094 81.75 9.300781 C 83.023438 9.984375 84.261719 10.726562 85.464844 11.527344 C 86.664062 12.332031 87.824219 13.191406 88.941406 14.109375 C 90.058594 15.027344 91.128906 15.996094 92.152344 17.015625 C 93.171875 18.039062 94.144531 19.109375 95.058594 20.226562 C 95.976562 21.34375 96.835938 22.503906 97.640625 23.707031 C 98.445312 24.90625 99.1875 26.144531 99.867188 27.421875 C 100.546875 28.695312 101.164062 30 101.71875 31.335938 C 102.273438 32.671875 102.757812 34.03125 103.179688 35.414062 C 103.597656 36.796875 103.949219 38.199219 104.230469 39.617188 C 104.511719 41.035156 104.722656 42.460938 104.867188 43.898438 C 105.007812 45.339844 105.078125 46.78125 105.078125 48.226562 Z M 105.078125 48.226562 " fill-opacity="1" fill-rule="nonzero"/></g><g clip-path="url(#0076313475)"><path fill="#00d5c8" d="M 60.894531 1.03125 C 86.964844 1.03125 108.105469 22.167969 108.105469 48.273438 C 108.105469 74.347656 86.964844 95.484375 60.894531 95.484375 C 34.785156 95.484375 13.648438 74.347656 13.648438 48.273438 C 13.648438 22.167969 34.785156 1.03125 60.894531 1.03125 Z M 60.894531 3.261719 C 85.730469 3.261719 105.871094 23.433594 105.871094 48.273438 C 105.871094 73.113281 85.730469 93.25 60.894531 93.25 C 36.054688 93.25 15.882812 73.113281 15.882812 48.273438 C 15.882812 23.433594 36.054688 3.261719 60.894531 3.261719 Z M 60.894531 3.261719 " fill-opacity="1" fill-rule="evenodd"/></g><path fill="#00d5c8" d="M 87.699219 60.808594 L 53.15625 60.808594 C 52.257812 60.808594 51.523438 60.078125 51.523438 59.175781 L 51.523438 56.210938 C 51.523438 55.84375 51.824219 55.542969 52.191406 55.542969 C 52.558594 55.542969 52.859375 55.84375 52.859375 56.210938 L 52.859375 59.175781 C 52.859375 59.34375 52.992188 59.476562 53.15625 59.476562 L 87.699219 59.476562 C 87.867188 59.476562 87.964844 59.34375 87.964844 59.175781 L 87.964844 41.273438 C 87.964844 41.105469 87.867188 41.003906 87.699219 41.003906 L 84.464844 41.003906 C 84.097656 41.003906 83.796875 40.707031 83.796875 40.339844 C 83.796875 39.9375 84.097656 39.671875 84.464844 39.671875 L 87.699219 39.671875 C 88.597656 39.671875 89.300781 40.371094 89.300781 41.273438 L 89.300781 59.175781 C 89.300781 60.078125 88.597656 60.808594 87.699219 60.808594 Z M 87.699219 60.808594 " fill-opacity="1" fill-rule="evenodd"/><path fill="#00d5c8" d="M 83.5 56.875 L 48.957031 56.875 C 48.054688 56.875 47.324219 56.140625 47.324219 55.242188 L 47.324219 37.339844 C 47.324219 36.4375 48.054688 35.703125 48.957031 35.703125 L 83.5 35.703125 C 84.398438 35.703125 85.132812 36.4375 85.132812 37.339844 L 85.132812 55.242188 C 85.132812 56.140625 84.398438 56.875 83.5 56.875 Z M 48.957031 37.039062 C 48.789062 37.039062 48.65625 37.171875 48.65625 37.339844 L 48.65625 55.242188 C 48.65625 55.410156 48.789062 55.542969 48.957031 55.542969 L 83.5 55.542969 C 83.664062 55.542969 83.796875 55.410156 83.796875 55.242188 L 83.796875 37.339844 C 83.796875 37.171875 83.664062 37.039062 83.5 37.039062 Z M 48.957031 37.039062 " fill-opacity="1" fill-rule="evenodd"/><path fill="#00d5c8" d="M 48.324219 40.839844 C 48.191406 40.839844 48.054688 40.839844 47.921875 40.839844 C 47.554688 40.804688 47.289062 40.472656 47.324219 40.105469 C 47.355469 39.738281 47.691406 39.472656 48.054688 39.503906 C 48.15625 39.503906 48.222656 39.503906 48.324219 39.503906 C 49.921875 39.503906 51.222656 38.203125 51.222656 36.605469 C 51.222656 36.570312 51.222656 36.503906 51.222656 36.4375 C 51.191406 36.070312 51.457031 35.738281 51.824219 35.703125 C 52.191406 35.703125 52.523438 35.972656 52.523438 36.335938 C 52.558594 36.4375 52.558594 36.539062 52.558594 36.605469 C 52.558594 38.9375 50.65625 40.839844 48.324219 40.839844 Z M 48.324219 40.839844 " fill-opacity="1" fill-rule="evenodd"/><path fill="#00d5c8" d="M 51.859375 56.875 C 51.824219 56.875 51.824219 56.875 51.789062 56.875 C 51.425781 56.808594 51.15625 56.507812 51.191406 56.140625 C 51.222656 56.007812 51.222656 55.910156 51.222656 55.808594 C 51.222656 54.207031 49.921875 52.910156 48.324219 52.910156 C 48.222656 52.910156 48.15625 52.910156 48.054688 52.941406 C 47.691406 52.976562 47.355469 52.707031 47.324219 52.339844 C 47.289062 51.976562 47.554688 51.640625 47.921875 51.609375 C 48.054688 51.574219 48.191406 51.574219 48.324219 51.574219 C 50.65625 51.574219 52.558594 53.476562 52.558594 55.808594 C 52.558594 55.976562 52.523438 56.109375 52.523438 56.277344 C 52.492188 56.609375 52.191406 56.875 51.859375 56.875 Z M 51.859375 56.875 " fill-opacity="1" fill-rule="evenodd"/><path fill="#00d5c8" d="M 80.464844 56.875 C 80.128906 56.875 79.863281 56.609375 79.832031 56.277344 C 79.796875 56.109375 79.796875 55.976562 79.796875 55.808594 C 79.796875 53.476562 81.699219 51.574219 84 51.574219 C 84.199219 51.574219 84.363281 51.609375 84.53125 51.609375 C 84.898438 51.675781 85.164062 52.007812 85.132812 52.375 C 85.066406 52.742188 84.730469 52.976562 84.363281 52.941406 C 84.265625 52.910156 84.132812 52.910156 84 52.910156 C 82.429688 52.910156 81.132812 54.207031 81.132812 55.808594 C 81.132812 55.910156 81.132812 56.007812 81.132812 56.140625 C 81.164062 56.507812 80.929688 56.808594 80.5625 56.875 C 80.53125 56.875 80.496094 56.875 80.464844 56.875 Z M 80.464844 56.875 " fill-opacity="1" fill-rule="evenodd"/><path fill="#00d5c8" d="M 83.5 40.605469 C 81.164062 40.605469 79.296875 38.703125 79.296875 36.371094 C 79.296875 36.003906 79.5625 35.703125 79.929688 35.703125 C 80.332031 35.703125 80.597656 36.003906 80.597656 36.371094 C 80.597656 37.972656 81.898438 39.273438 83.5 39.273438 C 83.765625 39.273438 84.03125 39.238281 84.265625 39.171875 C 84.632812 39.070312 85 39.273438 85.097656 39.636719 C 85.164062 40.003906 84.964844 40.371094 84.632812 40.472656 C 84.265625 40.570312 83.863281 40.605469 83.5 40.605469 Z M 83.5 40.605469 " fill-opacity="1" fill-rule="evenodd"/><path fill="#00d5c8" d="M 66.226562 54.042969 C 61.960938 54.042969 58.492188 50.574219 58.492188 46.308594 C 58.492188 42.003906 61.960938 38.539062 66.226562 38.539062 C 70.496094 38.539062 73.960938 42.003906 73.960938 46.308594 C 73.960938 50.574219 70.496094 54.042969 66.226562 54.042969 Z M 66.226562 39.871094 C 62.691406 39.871094 59.824219 42.773438 59.824219 46.308594 C 59.824219 49.839844 62.691406 52.707031 66.226562 52.707031 C 69.761719 52.707031 72.628906 49.839844 72.628906 46.308594 C 72.628906 42.773438 69.761719 39.871094 66.226562 39.871094 Z M 66.226562 39.871094 " fill-opacity="1" fill-rule="evenodd"/><path fill="#00d5c8" d="M 66.226562 50.90625 C 64.761719 50.90625 63.59375 49.707031 63.59375 48.273438 C 63.59375 47.90625 63.894531 47.605469 64.261719 47.605469 C 64.628906 47.605469 64.925781 47.90625 64.925781 48.273438 C 64.925781 48.972656 65.492188 49.574219 66.226562 49.574219 C 66.960938 49.574219 67.527344 48.972656 67.527344 48.273438 C 67.527344 47.539062 66.960938 46.972656 66.226562 46.972656 C 64.761719 46.972656 63.59375 45.773438 63.59375 44.304688 C 63.59375 42.871094 64.761719 41.671875 66.226562 41.671875 C 67.695312 41.671875 68.863281 42.871094 68.863281 44.304688 C 68.863281 44.707031 68.5625 44.972656 68.195312 44.972656 C 67.828125 44.972656 67.527344 44.707031 67.527344 44.304688 C 67.527344 43.605469 66.960938 43.007812 66.226562 43.007812 C 65.492188 43.007812 64.925781 43.605469 64.925781 44.304688 C 64.925781 45.039062 65.492188 45.640625 66.226562 45.640625 C 67.695312 45.640625 68.863281 46.808594 68.863281 48.273438 C 68.863281 49.707031 67.695312 50.90625 66.226562 50.90625 Z M 66.226562 50.90625 " fill-opacity="1" fill-rule="evenodd"/><path fill="#00d5c8" d="M 66.226562 52.207031 C 65.859375 52.207031 65.5625 51.90625 65.5625 51.542969 L 65.5625 50.242188 C 65.5625 49.875 65.859375 49.574219 66.226562 49.574219 C 66.59375 49.574219 66.894531 49.875 66.894531 50.242188 L 66.894531 51.542969 C 66.894531 51.90625 66.59375 52.207031 66.226562 52.207031 Z M 66.226562 43.007812 C 65.859375 43.007812 65.5625 42.707031 65.5625 42.339844 L 65.5625 41.039062 C 65.5625 40.671875 65.859375 40.371094 66.226562 40.371094 C 66.59375 40.371094 66.894531 40.671875 66.894531 41.039062 L 66.894531 42.339844 C 66.894531 42.707031 66.59375 43.007812 66.226562 43.007812 Z M 66.226562 43.007812 " fill-opacity="1" fill-rule="evenodd"/><path fill="#00d5c8" d="M 53.023438 48.308594 C 51.890625 48.308594 50.992188 47.40625 50.992188 46.308594 C 50.992188 45.171875 51.890625 44.273438 53.023438 44.273438 C 54.125 44.273438 55.023438 45.171875 55.023438 46.308594 C 55.023438 47.40625 54.125 48.308594 53.023438 48.308594 Z M 53.023438 45.605469 C 52.625 45.605469 52.324219 45.90625 52.324219 46.308594 C 52.324219 46.671875 52.625 46.972656 53.023438 46.972656 C 53.390625 46.972656 53.691406 46.671875 53.691406 46.308594 C 53.691406 45.90625 53.390625 45.605469 53.023438 45.605469 Z M 53.023438 45.605469 " fill-opacity="1" fill-rule="evenodd"/><path fill="#00d5c8" d="M 79.429688 48.308594 C 78.332031 48.308594 77.429688 47.40625 77.429688 46.308594 C 77.429688 45.171875 78.332031 44.273438 79.429688 44.273438 C 80.5625 44.273438 81.464844 45.171875 81.464844 46.308594 C 81.464844 47.40625 80.5625 48.308594 79.429688 48.308594 Z M 79.429688 45.605469 C 79.0625 45.605469 78.765625 45.90625 78.765625 46.308594 C 78.765625 46.671875 79.0625 46.972656 79.429688 46.972656 C 79.832031 46.972656 80.128906 46.671875 80.128906 46.308594 C 80.128906 45.90625 79.832031 45.605469 79.429688 45.605469 Z M 79.429688 45.605469 " fill-opacity="1" fill-rule="evenodd"/><path fill="#00d5c8" d="M 44.222656 43.507812 L 36.753906 43.507812 C 36.386719 43.507812 36.085938 43.207031 36.085938 42.839844 C 36.085938 42.472656 36.386719 42.171875 36.753906 42.171875 L 44.222656 42.171875 C 44.589844 42.171875 44.890625 42.472656 44.890625 42.839844 C 44.890625 43.207031 44.589844 43.507812 44.222656 43.507812 Z M 44.222656 43.507812 " fill-opacity="1" fill-rule="evenodd"/><path fill="#00d5c8" d="M 40.589844 46.972656 L 33.121094 46.972656 C 32.753906 46.972656 32.453125 46.671875 32.453125 46.308594 C 32.453125 45.941406 32.753906 45.640625 33.121094 45.640625 L 40.589844 45.640625 C 40.953125 45.640625 41.253906 45.941406 41.253906 46.308594 C 41.253906 46.671875 40.953125 46.972656 40.589844 46.972656 Z M 40.589844 46.972656 " fill-opacity="1" fill-rule="evenodd"/><path fill="#00d5c8" d="M 42.386719 50.40625 L 34.953125 50.40625 C 34.554688 50.40625 34.285156 50.109375 34.285156 49.742188 C 34.285156 49.375 34.554688 49.074219 34.953125 49.074219 L 42.386719 49.074219 C 42.753906 49.074219 43.054688 49.375 43.054688 49.742188 C 43.054688 50.109375 42.753906 50.40625 42.386719 50.40625 Z M 42.386719 50.40625 " fill-opacity="1" fill-rule="evenodd"/><g fill="#00d5c8" fill-opacity="1"><g transform="translate(133.250489, 44.517851)"><g><path d="M 21.734375 -22.40625 L 21.734375 0 L 16.5 0 L 16.5 -9.46875 L 7.40625 -9.46875 L 7.40625 0 L 2.171875 0 L 2.171875 -22.40625 L 7.40625 -22.40625 L 7.40625 -13.046875 L 16.5 -13.046875 L 16.5 -22.40625 Z M 21.734375 -22.40625 "/></g></g></g><g fill="#00d5c8" fill-opacity="1"><g transform="translate(157.154205, 44.517851)"><g><path d="M 7.40625 0 L 2.171875 0 L 2.171875 -22.40625 L 7.40625 -22.40625 Z M 7.40625 0 "/></g></g></g><g fill="#00d5c8" fill-opacity="1"><g transform="translate(166.721851, 44.517851)"><g><path d="M 18.0625 -20.53125 C 18.0625 -20.269531 18.015625 -20.007812 17.921875 -19.75 C 17.835938 -19.488281 17.71875 -19.25 17.5625 -19.03125 L 7.046875 -4 L 17.71875 -4 L 17.71875 0 L 0.4375 0 L 0.4375 -2 C 0.4375 -2.238281 0.472656 -2.472656 0.546875 -2.703125 C 0.628906 -2.929688 0.742188 -3.144531 0.890625 -3.34375 L 11.4375 -18.40625 L 1.296875 -18.40625 L 1.296875 -22.40625 L 18.0625 -22.40625 Z M 18.0625 -20.53125 "/></g></g></g><g fill="#00d5c8" fill-opacity="1"><g transform="translate(185.457198, 44.517851)"><g><path d="M 15.671875 -4.15625 L 15.671875 0 L 2.171875 0 L 2.171875 -22.40625 L 7.375 -22.40625 L 7.375 -4.15625 Z M 15.671875 -4.15625 "/></g></g></g><g fill="#00d5c8" fill-opacity="1"><g transform="translate(201.608361, 44.517851)"><g><path d="M 7.40625 0 L 2.171875 0 L 2.171875 -22.40625 L 7.40625 -22.40625 Z M 7.40625 0 "/></g></g></g><g fill="#00d5c8" fill-opacity="1"><g transform="translate(211.178028, 44.517851)"><g/></g></g><g fill="#00d5c8" fill-opacity="1"><g transform="translate(112.433188, 75.188597)"><g><path d="M 21.734375 -22.40625 L 21.734375 0 L 16.5 0 L 16.5 -9.46875 L 7.40625 -9.46875 L 7.40625 0 L 2.171875 0 L 2.171875 -22.40625 L 7.40625 -22.40625 L 7.40625 -13.046875 L 16.5 -13.046875 L 16.5 -22.40625 Z M 21.734375 -22.40625 "/></g></g></g><g fill="#00d5c8" fill-opacity="1"><g transform="translate(136.336904, 75.188597)"><g><path d="M 14.015625 -8.5625 L 11.9375 -14.703125 C 11.78125 -15.097656 11.613281 -15.554688 11.4375 -16.078125 C 11.269531 -16.609375 11.097656 -17.179688 10.921875 -17.796875 C 10.765625 -17.171875 10.597656 -16.59375 10.421875 -16.0625 C 10.253906 -15.53125 10.09375 -15.066406 9.9375 -14.671875 L 7.875 -8.5625 Z M 22.28125 0 L 18.25 0 C 17.789062 0 17.421875 -0.101562 17.140625 -0.3125 C 16.867188 -0.519531 16.660156 -0.789062 16.515625 -1.125 L 15.203125 -5.03125 L 6.671875 -5.03125 L 5.359375 -1.125 C 5.242188 -0.832031 5.039062 -0.570312 4.75 -0.34375 C 4.457031 -0.113281 4.09375 0 3.65625 0 L -0.40625 0 L 8.28125 -22.40625 L 13.59375 -22.40625 Z M 22.28125 0 "/></g></g></g><g fill="#00d5c8" fill-opacity="1"><g transform="translate(156.333348, 75.188597)"><g><path d="M 22.28125 -22.40625 L 13.296875 0 L 8.578125 0 L -0.40625 -22.40625 L 3.78125 -22.40625 C 4.238281 -22.40625 4.601562 -22.300781 4.875 -22.09375 C 5.15625 -21.882812 5.363281 -21.617188 5.5 -21.296875 L 9.84375 -9.296875 C 10.050781 -8.765625 10.25 -8.1875 10.4375 -7.5625 C 10.632812 -6.945312 10.820312 -6.300781 11 -5.625 C 11.144531 -6.300781 11.304688 -6.945312 11.484375 -7.5625 C 11.660156 -8.1875 11.851562 -8.765625 12.0625 -9.296875 L 16.375 -21.296875 C 16.476562 -21.578125 16.675781 -21.832031 16.96875 -22.0625 C 17.257812 -22.289062 17.625 -22.40625 18.0625 -22.40625 Z M 22.28125 -22.40625 "/></g></g></g><g fill="#00d5c8" fill-opacity="1"><g transform="translate(176.329791, 75.188597)"><g><path d="M 14.015625 -8.5625 L 11.9375 -14.703125 C 11.78125 -15.097656 11.613281 -15.554688 11.4375 -16.078125 C 11.269531 -16.609375 11.097656 -17.179688 10.921875 -17.796875 C 10.765625 -17.171875 10.597656 -16.59375 10.421875 -16.0625 C 10.253906 -15.53125 10.09375 -15.066406 9.9375 -14.671875 L 7.875 -8.5625 Z M 22.28125 0 L 18.25 0 C 17.789062 0 17.421875 -0.101562 17.140625 -0.3125 C 16.867188 -0.519531 16.660156 -0.789062 16.515625 -1.125 L 15.203125 -5.03125 L 6.671875 -5.03125 L 5.359375 -1.125 C 5.242188 -0.832031 5.039062 -0.570312 4.75 -0.34375 C 4.457031 -0.113281 4.09375 0 3.65625 0 L -0.40625 0 L 8.28125 -22.40625 L 13.59375 -22.40625 Z M 22.28125 0 "/></g></g></g><g fill="#00d5c8" fill-opacity="1"><g transform="translate(198.203079, 75.188597)"><g><path d="M 15.671875 -4.15625 L 15.671875 0 L 2.171875 0 L 2.171875 -22.40625 L 7.375 -22.40625 L 7.375 -4.15625 Z M 15.671875 -4.15625 "/></g></g></g><g fill="#00d5c8" fill-opacity="1"><g transform="translate(214.354242, 75.188597)"><g><path d="M 7.40625 -18.40625 L 7.40625 -13.1875 L 14.4375 -13.1875 L 14.4375 -9.34375 L 7.40625 -9.34375 L 7.40625 -4 L 16.59375 -4 L 16.59375 0 L 2.171875 0 L 2.171875 -22.40625 L 16.59375 -22.40625 L 16.59375 -18.40625 Z M 7.40625 -18.40625 "/></g></g></g><g fill="#00d5c8" fill-opacity="1"><g transform="translate(231.983641, 75.188597)"><g/></g></g><g clip-path="url(#4c52f423f6)"><g clip-path="url(#da33bbc8d3)"><g transform="matrix(1, 0, 0, 1, 32, 36)"><g clip-path="url(#734b0104cc)"><g clip-path="url(#761f1ca7b6)"><g clip-path="url(#ed836debdb)"><rect x="-84.8" width="345.6" fill="#001f42" height="139.319999" y="-57.285" fill-opacity="1"/></g></g></g></g></g></g><g clip-path="url(#d4614126c8)"><g clip-path="url(#5d5c0da023)"><g transform="matrix(1, 0, 0, 1, 24, 28)"><g clip-path="url(#fd8c05c0a0)"><g clip-path="url(#253ec88c45)"><g clip-path="url(#e0c2ddf63f)"><rect x="-76.8" width="345.6" fill="#001f42" height="139.319999" y="-49.285" fill-opacity="1"/></g></g></g></g></g></g><g clip-path="url(#76b7d9bf6f)"><path fill="#00d5c8" d="M 98 46.589844 L 77.40625 26.652344 C 76.738281 26.003906 75.789062 25.828125 74.933594 26.1875 C 74.078125 26.550781 73.546875 27.351562 73.546875 28.28125 L 73.546875 34.566406 L 68.558594 34.566406 C 64.65625 29.929688 58.8125 26.976562 52.292969 26.976562 C 40.574219 26.976562 31.042969 36.507812 31.042969 48.230469 C 31.042969 59.949219 40.574219 69.480469 52.292969 69.480469 C 58.8125 69.480469 64.65625 66.527344 68.558594 61.890625 L 73.546875 61.890625 L 73.546875 68.175781 C 73.546875 69.105469 74.078125 69.90625 74.933594 70.269531 C 75.230469 70.394531 75.535156 70.453125 75.835938 70.453125 C 76.410156 70.453125 76.96875 70.230469 77.40625 69.808594 L 98 49.867188 C 98.445312 49.429688 98.691406 48.851562 98.691406 48.230469 C 98.691406 47.609375 98.445312 47.027344 98 46.589844 Z M 52.292969 67.964844 C 41.410156 67.964844 32.558594 59.109375 32.558594 48.230469 C 32.558594 37.347656 41.410156 28.492188 52.292969 28.492188 C 63.175781 28.492188 72.027344 37.347656 72.027344 48.230469 C 72.027344 59.109375 63.175781 67.964844 52.292969 67.964844 Z M 96.945312 48.777344 L 76.351562 68.714844 C 76.015625 69.042969 75.636719 68.917969 75.527344 68.871094 C 75.417969 68.824219 75.066406 68.640625 75.066406 68.175781 L 75.066406 61.132812 C 75.066406 60.714844 74.726562 60.375 74.304688 60.375 L 69.71875 60.375 C 72.128906 56.929688 73.546875 52.742188 73.546875 48.230469 C 73.546875 43.714844 72.128906 39.53125 69.71875 36.085938 L 74.304688 36.085938 C 74.726562 36.085938 75.066406 35.746094 75.066406 35.324219 L 75.066406 28.28125 C 75.066406 27.816406 75.417969 27.632812 75.527344 27.585938 C 75.636719 27.539062 76.015625 27.417969 76.351562 27.742188 L 96.941406 47.679688 C 97.089844 47.824219 97.175781 48.019531 97.175781 48.230469 C 97.175781 48.4375 97.089844 48.632812 96.945312 48.777344 Z M 52.292969 30.011719 C 42.25 30.011719 34.078125 38.183594 34.078125 48.230469 C 34.078125 58.273438 42.25 66.445312 52.292969 66.445312 C 62.339844 66.445312 70.511719 58.273438 70.511719 48.230469 C 70.511719 38.183594 62.339844 30.011719 52.292969 30.011719 Z M 52.292969 64.925781 C 43.085938 64.925781 35.59375 57.4375 35.59375 48.230469 C 35.59375 39.019531 43.085938 31.53125 52.292969 31.53125 C 61.503906 31.53125 68.992188 39.019531 68.992188 48.230469 C 68.992188 57.4375 61.503906 64.925781 52.292969 64.925781 Z M 58.457031 42.386719 C 58.667969 42.75 58.542969 43.214844 58.179688 43.425781 C 57.816406 43.636719 57.351562 43.511719 57.140625 43.148438 C 55.976562 41.128906 53.875 40.707031 52.320312 40.707031 C 50.328125 40.707031 48.308594 41.851562 48.308594 44.039062 C 48.308594 45.160156 48.785156 46.566406 52.480469 47.492188 C 53.792969 47.820312 57.796875 48.824219 57.796875 52.417969 C 57.796875 54.992188 55.84375 56.914062 53.054688 57.222656 L 53.054688 59.613281 C 53.054688 60.035156 52.714844 60.375 52.292969 60.375 C 51.875 60.375 51.535156 60.035156 51.535156 59.613281 L 51.535156 57.242188 C 49.691406 57.105469 47.476562 56.394531 46.132812 54.070312 C 45.921875 53.707031 46.046875 53.242188 46.410156 53.03125 C 46.769531 52.820312 47.238281 52.945312 47.449219 53.308594 C 48.613281 55.328125 50.710938 55.75 52.269531 55.75 C 54.261719 55.75 56.277344 54.605469 56.277344 52.417969 C 56.277344 51.296875 55.804688 49.890625 52.109375 48.964844 C 50.792969 48.636719 46.792969 47.632812 46.792969 44.039062 C 46.792969 41.464844 48.746094 39.542969 51.535156 39.238281 L 51.535156 36.84375 C 51.535156 36.425781 51.875 36.085938 52.292969 36.085938 C 52.714844 36.085938 53.054688 36.425781 53.054688 36.84375 L 53.054688 39.214844 C 54.898438 39.351562 57.113281 40.0625 58.457031 42.386719 Z M 42.425781 76.3125 L 34.835938 76.3125 C 34.417969 76.3125 34.078125 75.972656 34.078125 75.554688 C 34.078125 75.136719 34.417969 74.796875 34.835938 74.796875 L 42.425781 74.796875 C 42.847656 74.796875 43.1875 75.136719 43.1875 75.554688 C 43.1875 75.972656 42.847656 76.3125 42.425781 76.3125 Z M 67.476562 80.109375 C 67.476562 80.527344 67.136719 80.867188 66.714844 80.867188 L 57.609375 80.867188 C 57.1875 80.867188 56.847656 80.527344 56.847656 80.109375 C 56.847656 79.6875 57.1875 79.347656 57.609375 79.347656 L 66.714844 79.347656 C 67.136719 79.347656 67.476562 79.6875 67.476562 80.109375 Z M 75.066406 75.554688 C 75.066406 75.972656 74.726562 76.3125 74.304688 76.3125 L 65.199219 76.3125 C 64.777344 76.3125 64.4375 75.972656 64.4375 75.554688 C 64.4375 75.136719 64.777344 74.796875 65.199219 74.796875 L 74.304688 74.796875 C 74.726562 74.796875 75.066406 75.136719 75.066406 75.554688 Z M 62.160156 71.757812 C 61.742188 71.757812 61.402344 71.417969 61.402344 71 C 61.402344 70.582031 61.742188 70.242188 62.160156 70.242188 L 69.753906 70.242188 C 70.171875 70.242188 70.511719 70.582031 70.511719 71 C 70.511719 71.417969 70.171875 71.757812 69.753906 71.757812 Z M 53.8125 80.109375 C 53.8125 80.527344 53.472656 80.867188 53.054688 80.867188 L 39.390625 80.867188 C 38.972656 80.867188 38.632812 80.527344 38.632812 80.109375 C 38.632812 79.6875 38.972656 79.347656 39.390625 79.347656 L 53.054688 79.347656 C 53.472656 79.347656 53.8125 79.6875 53.8125 80.109375 Z M 46.980469 76.3125 C 46.5625 76.3125 46.222656 75.972656 46.222656 75.554688 C 46.222656 75.136719 46.5625 74.796875 46.980469 74.796875 L 60.644531 74.796875 C 61.0625 74.796875 61.402344 75.136719 61.402344 75.554688 C 61.402344 75.972656 61.0625 76.3125 60.644531 76.3125 Z M 34.078125 20.902344 C 34.078125 20.484375 34.417969 20.144531 34.835938 20.144531 L 42.425781 20.144531 C 42.847656 20.144531 43.1875 20.484375 43.1875 20.902344 C 43.1875 21.324219 42.847656 21.664062 42.425781 21.664062 L 34.835938 21.664062 C 34.417969 21.664062 34.078125 21.324219 34.078125 20.902344 Z M 56.847656 16.347656 C 56.847656 15.929688 57.1875 15.589844 57.609375 15.589844 L 66.714844 15.589844 C 67.136719 15.589844 67.476562 15.929688 67.476562 16.347656 C 67.476562 16.769531 67.136719 17.109375 66.714844 17.109375 L 57.609375 17.109375 C 57.1875 17.109375 56.847656 16.769531 56.847656 16.347656 Z M 65.199219 20.144531 L 74.304688 20.144531 C 74.726562 20.144531 75.066406 20.484375 75.066406 20.902344 C 75.066406 21.324219 74.726562 21.664062 74.304688 21.664062 L 65.199219 21.664062 C 64.777344 21.664062 64.4375 21.324219 64.4375 20.902344 C 64.4375 20.484375 64.777344 20.144531 65.199219 20.144531 Z M 61.402344 25.457031 C 61.402344 25.039062 61.742188 24.699219 62.160156 24.699219 L 69.753906 24.699219 C 70.171875 24.699219 70.511719 25.039062 70.511719 25.457031 C 70.511719 25.875 70.171875 26.214844 69.753906 26.214844 L 62.160156 26.214844 C 61.742188 26.214844 61.402344 25.875 61.402344 25.457031 Z M 38.632812 16.347656 C 38.632812 15.929688 38.972656 15.589844 39.390625 15.589844 L 53.054688 15.589844 C 53.472656 15.589844 53.8125 15.929688 53.8125 16.347656 C 53.8125 16.769531 53.472656 17.109375 53.054688 17.109375 L 39.390625 17.109375 C 38.972656 17.109375 38.632812 16.769531 38.632812 16.347656 Z M 61.402344 20.902344 C 61.402344 21.324219 61.0625 21.664062 60.644531 21.664062 L 46.980469 21.664062 C 46.5625 21.664062 46.222656 21.324219 46.222656 20.902344 C 46.222656 20.484375 46.5625 20.144531 46.980469 20.144531 L 60.644531 20.144531 C 61.0625 20.144531 61.402344 20.484375 61.402344 20.902344 Z M 61.402344 20.902344 " fill-opacity="1" fill-rule="nonzero"/></g></svg>