<svg xmlns="http://www.w3.org/2000/svg" xmlns:xlink="http://www.w3.org/1999/xlink" width="320" zoomAndPan="magnify" viewBox="0 0 240 96.749999" height="129" preserveAspectRatio="xMidYMid meet" version="1.0"><defs><g/><clipPath id="36a8eca508"><path d="M 69.078125 0 L 88 0 L 88 19 L 69.078125 19 Z M 69.078125 0 " clip-rule="nonzero"/></clipPath><clipPath id="99d530f272"><path d="M 147 78 L 165.578125 78 L 165.578125 96.5 L 147 96.5 Z M 147 78 " clip-rule="nonzero"/></clipPath><clipPath id="6a0d21e83f"><path d="M 69.078125 78 L 88 78 L 88 96.5 L 69.078125 96.5 Z M 69.078125 78 " clip-rule="nonzero"/></clipPath><clipPath id="b2eb745ea0"><path d="M 147 0 L 165.578125 0 L 165.578125 19 L 147 19 Z M 147 0 " clip-rule="nonzero"/></clipPath><clipPath id="225107954b"><path d="M 81.082031 12.003906 L 97 12.003906 L 97 28 L 81.082031 28 Z M 81.082031 12.003906 " clip-rule="nonzero"/></clipPath><clipPath id="1e5f1456f5"><path d="M 81.082031 69 L 97 69 L 97 84.566406 L 81.082031 84.566406 Z M 81.082031 69 " clip-rule="nonzero"/></clipPath><clipPath id="ee096fa599"><path d="M 138 69 L 153.644531 69 L 153.644531 84.566406 L 138 84.566406 Z M 138 69 " clip-rule="nonzero"/></clipPath><clipPath id="22905da137"><path d="M 138 12.003906 L 153.644531 12.003906 L 153.644531 28 L 138 28 Z M 138 12.003906 " clip-rule="nonzero"/></clipPath><clipPath id="87a411d58b"><path d="M 106 12.003906 L 110 12.003906 L 110 15 L 106 15 Z M 106 12.003906 " clip-rule="nonzero"/></clipPath><clipPath id="c93a803eba"><path d="M 117 12.003906 L 126 12.003906 L 126 18 L 117 18 Z M 117 12.003906 " clip-rule="nonzero"/></clipPath><clipPath id="b7a5f8d8fe"><path d="M 127 12.003906 L 136 12.003906 L 136 18 L 127 18 Z M 127 12.003906 " clip-rule="nonzero"/></clipPath><clipPath id="722cffe2f3"><path d="M 99 12.003906 L 105 12.003906 L 105 20 L 99 20 Z M 99 12.003906 " clip-rule="nonzero"/></clipPath><clipPath id="b5f06b13dc"><path d="M 81.082031 32 L 89 32 L 89 36 L 81.082031 36 Z M 81.082031 32 " clip-rule="nonzero"/></clipPath><clipPath id="5afdf1cae6"><path d="M 145 32 L 153.644531 32 L 153.644531 46 L 145 46 Z M 145 32 " clip-rule="nonzero"/></clipPath><clipPath id="0de0a66c41"><path d="M 81.082031 37 L 87 37 L 87 44 L 81.082031 44 Z M 81.082031 37 " clip-rule="nonzero"/></clipPath><clipPath id="d15c88962f"><path d="M 140 43 L 153.644531 43 L 153.644531 57 L 140 57 Z M 140 43 " clip-rule="nonzero"/></clipPath><clipPath id="516023235b"><path d="M 81.082031 45 L 89 45 L 89 54 L 81.082031 54 Z M 81.082031 45 " clip-rule="nonzero"/></clipPath><clipPath id="c2fd9059e4"><path d="M 81.082031 53 L 87 53 L 87 62 L 81.082031 62 Z M 81.082031 53 " clip-rule="nonzero"/></clipPath><clipPath id="9ffa88a663"><path d="M 151 61 L 153.644531 61 L 153.644531 64 L 151 64 Z M 151 61 " clip-rule="nonzero"/></clipPath><clipPath id="4715edbdca"><path d="M 101 69 L 120 69 L 120 84.566406 L 101 84.566406 Z M 101 69 " clip-rule="nonzero"/></clipPath><clipPath id="93ef50c3db"><path d="M 119 76 L 126 76 L 126 84.566406 L 119 84.566406 Z M 119 76 " clip-rule="nonzero"/></clipPath><clipPath id="0bae9ed9b3"><path d="M 127 79 L 131 79 L 131 84.566406 L 127 84.566406 Z M 127 79 " clip-rule="nonzero"/></clipPath><clipPath id="33f3cddc32"><path d="M 132 81 L 136 81 L 136 84.566406 L 132 84.566406 Z M 132 81 " clip-rule="nonzero"/></clipPath><clipPath id="b04a69feb1"><path d="M 4.867188 23 L 7 23 L 7 44 L 4.867188 44 Z M 4.867188 23 " clip-rule="nonzero"/></clipPath><clipPath id="01f7ae8c58"><path d="M 10 18.679688 L 32 18.679688 L 32 21 L 10 21 Z M 10 18.679688 " clip-rule="nonzero"/></clipPath><clipPath id="52467f5e72"><path d="M 61 23 L 63.214844 23 L 63.214844 44 L 61 44 Z M 61 23 " clip-rule="nonzero"/></clipPath><clipPath id="53d811c5f2"><path d="M 36 18.679688 L 58 18.679688 L 58 21 L 36 21 Z M 36 18.679688 " clip-rule="nonzero"/></clipPath><clipPath id="947e0e4998"><path d="M 4.867188 53 L 7 53 L 7 73 L 4.867188 73 Z M 4.867188 53 " clip-rule="nonzero"/></clipPath><clipPath id="95c16acf8a"><path d="M 10 76 L 32 76 L 32 77.777344 L 10 77.777344 Z M 10 76 " clip-rule="nonzero"/></clipPath><clipPath id="adeb06825e"><path d="M 61 53 L 63.214844 53 L 63.214844 73 L 61 73 Z M 61 53 " clip-rule="nonzero"/></clipPath><clipPath id="159971dc7c"><path d="M 36 76 L 58 76 L 58 77.777344 L 36 77.777344 Z M 36 76 " clip-rule="nonzero"/></clipPath><clipPath id="34876a90a5"><rect x="0" width="46" y="0" height="45"/></clipPath><clipPath id="9299b1ed84"><path d="M 165.578125 30 L 167 30 L 167 45 L 165.578125 45 Z M 165.578125 30 " clip-rule="nonzero"/></clipPath><clipPath id="0d655d2def"><path d="M 169 26.464844 L 186 26.464844 L 186 28 L 169 28 Z M 169 26.464844 " clip-rule="nonzero"/></clipPath><clipPath id="07519937ff"><path d="M 207 30 L 208.964844 30 L 208.964844 45 L 207 45 Z M 207 30 " clip-rule="nonzero"/></clipPath><clipPath id="1cc4d230d9"><path d="M 188 26.464844 L 205 26.464844 L 205 28 L 188 28 Z M 188 26.464844 " clip-rule="nonzero"/></clipPath><clipPath id="35f4f5801e"><path d="M 165.578125 51 L 167 51 L 167 67 L 165.578125 67 Z M 165.578125 51 " clip-rule="nonzero"/></clipPath><clipPath id="2c30c97c30"><path d="M 169 68 L 186 68 L 186 69.855469 L 169 69.855469 Z M 169 68 " clip-rule="nonzero"/></clipPath><clipPath id="71effbb2b2"><path d="M 207 51 L 208.964844 51 L 208.964844 67 L 207 67 Z M 207 51 " clip-rule="nonzero"/></clipPath><clipPath id="0e298f85dd"><path d="M 188 68 L 205 68 L 205 69.855469 L 188 69.855469 Z M 188 68 " clip-rule="nonzero"/></clipPath></defs><path fill="#fec838" d="M 78.226562 9.152344 L 156.425781 9.152344 L 156.425781 87.351562 L 78.226562 87.351562 Z M 78.226562 9.152344 " fill-opacity="1" fill-rule="nonzero"/><g clip-path="url(#36a8eca508)"><path fill="#001f42" d="M 73.125 -0.00390625 L 69.074219 -0.00390625 L 69.074219 18.304688 L 73.125 18.304688 L 73.125 4.046875 L 87.382812 4.046875 L 87.382812 -0.00390625 Z M 73.125 -0.00390625 " fill-opacity="1" fill-rule="nonzero"/></g><g clip-path="url(#99d530f272)"><path fill="#001f42" d="M 161.53125 96.503906 L 165.582031 96.503906 L 165.582031 78.195312 L 161.53125 78.195312 L 161.53125 92.453125 L 147.273438 92.453125 L 147.273438 96.503906 Z M 161.53125 96.503906 " fill-opacity="1" fill-rule="nonzero"/></g><g clip-path="url(#6a0d21e83f)"><path fill="#001f42" d="M 69.074219 92.453125 L 69.074219 96.503906 L 87.382812 96.503906 L 87.382812 92.453125 L 73.125 92.453125 L 73.125 78.195312 L 69.074219 78.195312 Z M 69.074219 92.453125 " fill-opacity="1" fill-rule="nonzero"/></g><g clip-path="url(#b2eb745ea0)"><path fill="#001f42" d="M 165.582031 4.046875 L 165.582031 -0.00390625 L 147.273438 -0.00390625 L 147.273438 4.046875 L 161.53125 4.046875 L 161.53125 18.304688 L 165.582031 18.304688 Z M 165.582031 4.046875 " fill-opacity="1" fill-rule="nonzero"/></g><path fill="#282828" d="M 91.449219 17.1875 L 86.265625 17.1875 L 86.265625 22.371094 L 91.449219 22.371094 Z M 91.449219 17.1875 " fill-opacity="1" fill-rule="nonzero"/><g clip-path="url(#225107954b)"><path fill="#282828" d="M 94.039062 24.960938 L 83.671875 24.960938 L 83.671875 14.597656 L 94.039062 14.597656 Z M 96.632812 12.003906 L 81.082031 12.003906 L 81.082031 27.554688 L 96.632812 27.554688 Z M 96.632812 12.003906 " fill-opacity="1" fill-rule="nonzero"/></g><path fill="#282828" d="M 86.265625 79.386719 L 91.449219 79.386719 L 91.449219 74.203125 L 86.265625 74.203125 Z M 86.265625 79.386719 " fill-opacity="1" fill-rule="nonzero"/><g clip-path="url(#1e5f1456f5)"><path fill="#282828" d="M 83.671875 71.609375 L 94.039062 71.609375 L 94.039062 81.976562 L 83.671875 81.976562 Z M 81.082031 84.566406 L 96.632812 84.566406 L 96.632812 69.019531 L 81.082031 69.019531 Z M 81.082031 84.566406 " fill-opacity="1" fill-rule="nonzero"/></g><path fill="#282828" d="M 143.277344 79.386719 L 148.460938 79.386719 L 148.460938 74.203125 L 143.277344 74.203125 Z M 143.277344 79.386719 " fill-opacity="1" fill-rule="nonzero"/><g clip-path="url(#ee096fa599)"><path fill="#282828" d="M 140.6875 71.609375 L 151.054688 71.609375 L 151.054688 81.976562 L 140.6875 81.976562 Z M 138.097656 84.566406 L 153.644531 84.566406 L 153.644531 69.019531 L 138.097656 69.019531 Z M 138.097656 84.566406 " fill-opacity="1" fill-rule="nonzero"/></g><path fill="#282828" d="M 148.460938 17.1875 L 143.277344 17.1875 L 143.277344 22.371094 L 148.460938 22.371094 Z M 148.460938 17.1875 " fill-opacity="1" fill-rule="nonzero"/><g clip-path="url(#22905da137)"><path fill="#282828" d="M 151.054688 24.960938 L 140.6875 24.960938 L 140.6875 14.597656 L 151.054688 14.597656 Z M 153.644531 12.003906 L 138.097656 12.003906 L 138.097656 27.554688 L 153.644531 27.554688 Z M 153.644531 12.003906 " fill-opacity="1" fill-rule="nonzero"/></g><g clip-path="url(#87a411d58b)"><path fill="#282828" d="M 109.589844 12.003906 L 106.996094 12.003906 L 106.996094 14.597656 L 109.589844 14.597656 Z M 109.589844 12.003906 " fill-opacity="1" fill-rule="nonzero"/></g><g clip-path="url(#c93a803eba)"><path fill="#282828" d="M 125.136719 17.1875 L 125.136719 12.003906 L 122.546875 12.003906 L 122.546875 14.597656 L 117.363281 14.597656 L 117.363281 17.1875 Z M 125.136719 17.1875 " fill-opacity="1" fill-rule="nonzero"/></g><g clip-path="url(#b7a5f8d8fe)"><path fill="#282828" d="M 135.503906 17.1875 L 135.503906 14.597656 L 130.320312 14.597656 L 130.320312 12.003906 L 127.730469 12.003906 L 127.730469 17.1875 Z M 135.503906 17.1875 " fill-opacity="1" fill-rule="nonzero"/></g><g clip-path="url(#722cffe2f3)"><path fill="#282828" d="M 101.8125 17.1875 L 104.40625 17.1875 L 104.40625 12.003906 L 101.8125 12.003906 L 101.8125 14.597656 L 99.222656 14.597656 L 99.222656 19.777344 L 101.8125 19.777344 Z M 101.8125 17.1875 " fill-opacity="1" fill-rule="nonzero"/></g><path fill="#282828" d="M 114.769531 19.777344 L 114.769531 22.371094 L 117.363281 22.371094 L 117.363281 24.960938 L 114.769531 24.960938 L 114.769531 27.554688 L 122.546875 27.554688 L 122.546875 24.960938 L 119.953125 24.960938 L 119.953125 19.777344 L 117.363281 19.777344 L 117.363281 17.1875 L 106.996094 17.1875 L 106.996094 19.777344 Z M 114.769531 19.777344 " fill-opacity="1" fill-rule="nonzero"/><path fill="#282828" d="M 106.996094 19.777344 L 104.40625 19.777344 L 104.40625 22.371094 L 106.996094 22.371094 Z M 106.996094 19.777344 " fill-opacity="1" fill-rule="nonzero"/><path fill="#282828" d="M 130.320312 22.371094 L 130.320312 19.777344 L 125.136719 19.777344 L 125.136719 22.371094 Z M 130.320312 22.371094 " fill-opacity="1" fill-rule="nonzero"/><path fill="#282828" d="M 109.589844 22.371094 L 109.589844 24.960938 L 114.769531 24.960938 L 114.769531 22.371094 Z M 109.589844 22.371094 " fill-opacity="1" fill-rule="nonzero"/><path fill="#282828" d="M 125.136719 22.371094 L 122.546875 22.371094 L 122.546875 24.960938 L 125.136719 24.960938 Z M 125.136719 22.371094 " fill-opacity="1" fill-rule="nonzero"/><path fill="#282828" d="M 135.503906 24.960938 L 135.503906 19.777344 L 132.914062 19.777344 L 132.914062 22.371094 L 130.320312 22.371094 L 130.320312 24.960938 Z M 135.503906 24.960938 " fill-opacity="1" fill-rule="nonzero"/><path fill="#282828" d="M 125.136719 24.960938 L 125.136719 30.144531 L 127.730469 30.144531 L 127.730469 27.554688 L 130.320312 27.554688 L 130.320312 24.960938 Z M 125.136719 24.960938 " fill-opacity="1" fill-rule="nonzero"/><path fill="#282828" d="M 109.589844 27.554688 L 109.589844 30.144531 L 112.179688 30.144531 L 112.179688 27.554688 Z M 109.589844 27.554688 " fill-opacity="1" fill-rule="nonzero"/><path fill="#282828" d="M 135.503906 30.144531 L 135.503906 27.554688 L 130.320312 27.554688 L 130.320312 30.144531 Z M 135.503906 30.144531 " fill-opacity="1" fill-rule="nonzero"/><path fill="#282828" d="M 106.996094 32.738281 L 106.996094 24.960938 L 104.40625 24.960938 L 104.40625 22.371094 L 99.222656 22.371094 L 99.222656 24.960938 L 101.8125 24.960938 L 101.8125 27.554688 L 99.222656 27.554688 L 99.222656 35.328125 L 101.8125 35.328125 L 101.8125 32.738281 Z M 106.996094 32.738281 " fill-opacity="1" fill-rule="nonzero"/><path fill="#282828" d="M 112.179688 35.328125 L 114.769531 35.328125 L 114.769531 30.144531 L 112.179688 30.144531 Z M 112.179688 35.328125 " fill-opacity="1" fill-rule="nonzero"/><path fill="#282828" d="M 127.730469 32.738281 L 130.320312 32.738281 L 130.320312 30.144531 L 127.730469 30.144531 Z M 127.730469 32.738281 " fill-opacity="1" fill-rule="nonzero"/><g clip-path="url(#b5f06b13dc)"><path fill="#282828" d="M 88.855469 35.328125 L 88.855469 32.738281 L 81.082031 32.738281 L 81.082031 35.328125 Z M 88.855469 35.328125 " fill-opacity="1" fill-rule="nonzero"/></g><path fill="#282828" d="M 96.632812 30.144531 L 91.449219 30.144531 L 91.449219 32.738281 L 94.039062 32.738281 L 94.039062 35.328125 L 96.632812 35.328125 Z M 96.632812 30.144531 " fill-opacity="1" fill-rule="nonzero"/><path fill="#282828" d="M 109.589844 35.328125 L 109.589844 32.738281 L 106.996094 32.738281 L 106.996094 35.328125 Z M 109.589844 35.328125 " fill-opacity="1" fill-rule="nonzero"/><path fill="#282828" d="M 132.914062 35.328125 L 132.914062 32.738281 L 130.320312 32.738281 L 130.320312 35.328125 Z M 132.914062 35.328125 " fill-opacity="1" fill-rule="nonzero"/><path fill="#282828" d="M 140.6875 32.738281 L 148.460938 32.738281 L 148.460938 30.144531 L 138.097656 30.144531 L 138.097656 35.328125 L 140.6875 35.328125 Z M 140.6875 32.738281 " fill-opacity="1" fill-rule="nonzero"/><path fill="#282828" d="M 91.449219 35.328125 L 91.449219 37.917969 L 94.039062 37.917969 L 94.039062 35.328125 Z M 91.449219 35.328125 " fill-opacity="1" fill-rule="nonzero"/><path fill="#282828" d="M 106.996094 37.917969 L 106.996094 35.328125 L 101.8125 35.328125 L 101.8125 37.917969 Z M 106.996094 37.917969 " fill-opacity="1" fill-rule="nonzero"/><path fill="#282828" d="M 135.503906 35.328125 L 135.503906 37.917969 L 138.097656 37.917969 L 138.097656 35.328125 Z M 135.503906 35.328125 " fill-opacity="1" fill-rule="nonzero"/><g clip-path="url(#5afdf1cae6)"><path fill="#282828" d="M 151.054688 35.328125 L 151.054688 32.738281 L 148.460938 32.738281 L 148.460938 35.328125 L 145.871094 35.328125 L 145.871094 37.917969 L 148.460938 37.917969 L 148.460938 40.511719 L 145.871094 40.511719 L 145.871094 43.101562 L 151.054688 43.101562 L 151.054688 45.695312 L 153.644531 45.695312 L 153.644531 35.328125 Z M 151.054688 35.328125 " fill-opacity="1" fill-rule="nonzero"/></g><path fill="#282828" d="M 109.589844 40.511719 L 109.589844 43.101562 L 114.769531 43.101562 L 114.769531 37.917969 L 106.996094 37.917969 L 106.996094 40.511719 Z M 109.589844 40.511719 " fill-opacity="1" fill-rule="nonzero"/><path fill="#282828" d="M 145.871094 40.511719 L 145.871094 37.917969 L 138.097656 37.917969 L 138.097656 40.511719 Z M 145.871094 40.511719 " fill-opacity="1" fill-rule="nonzero"/><g clip-path="url(#0de0a66c41)"><path fill="#282828" d="M 86.265625 43.101562 L 86.265625 37.917969 L 83.671875 37.917969 L 83.671875 40.511719 L 81.082031 40.511719 L 81.082031 43.101562 Z M 86.265625 43.101562 " fill-opacity="1" fill-rule="nonzero"/></g><path fill="#282828" d="M 88.855469 40.511719 L 88.855469 43.101562 L 94.039062 43.101562 L 94.039062 40.511719 Z M 88.855469 40.511719 " fill-opacity="1" fill-rule="nonzero"/><path fill="#282828" d="M 138.097656 43.101562 L 138.097656 40.511719 L 132.914062 40.511719 L 132.914062 43.101562 Z M 138.097656 43.101562 " fill-opacity="1" fill-rule="nonzero"/><path fill="#282828" d="M 138.097656 43.101562 L 138.097656 45.695312 L 140.6875 45.695312 L 140.6875 43.101562 Z M 138.097656 43.101562 " fill-opacity="1" fill-rule="nonzero"/><path fill="#282828" d="M 94.039062 48.285156 L 94.039062 53.46875 L 96.632812 53.46875 L 96.632812 50.878906 L 101.8125 50.878906 L 101.8125 48.285156 L 99.222656 48.285156 L 99.222656 43.101562 L 104.40625 43.101562 L 104.40625 45.695312 L 106.996094 45.695312 L 106.996094 48.285156 L 109.589844 48.285156 L 109.589844 50.878906 L 114.769531 50.878906 L 114.769531 48.285156 L 112.179688 48.285156 L 112.179688 45.695312 L 109.589844 45.695312 L 109.589844 43.101562 L 106.996094 43.101562 L 106.996094 40.511719 L 101.8125 40.511719 L 101.8125 37.917969 L 94.039062 37.917969 L 94.039062 40.511719 L 96.632812 40.511719 L 96.632812 43.101562 L 94.039062 43.101562 L 94.039062 45.695312 L 86.265625 45.695312 L 86.265625 48.285156 Z M 94.039062 48.285156 " fill-opacity="1" fill-rule="nonzero"/><path fill="#282828" d="M 101.8125 48.285156 L 104.40625 48.285156 L 104.40625 45.695312 L 101.8125 45.695312 Z M 101.8125 48.285156 " fill-opacity="1" fill-rule="nonzero"/><g clip-path="url(#d15c88962f)"><path fill="#282828" d="M 145.871094 45.695312 L 145.871094 43.101562 L 143.277344 43.101562 L 143.277344 45.695312 L 140.6875 45.695312 L 140.6875 48.285156 L 148.460938 48.285156 L 148.460938 53.46875 L 151.054688 53.46875 L 151.054688 56.0625 L 153.644531 56.0625 L 153.644531 48.285156 L 151.054688 48.285156 L 151.054688 45.695312 Z M 145.871094 45.695312 " fill-opacity="1" fill-rule="nonzero"/></g><path fill="#282828" d="M 117.363281 48.285156 L 117.363281 50.878906 L 122.546875 50.878906 L 122.546875 48.285156 Z M 117.363281 48.285156 " fill-opacity="1" fill-rule="nonzero"/><path fill="#282828" d="M 138.097656 48.285156 L 138.097656 45.695312 L 135.503906 45.695312 L 135.503906 50.878906 L 140.6875 50.878906 L 140.6875 48.285156 Z M 138.097656 48.285156 " fill-opacity="1" fill-rule="nonzero"/><g clip-path="url(#516023235b)"><path fill="#282828" d="M 88.855469 53.46875 L 88.855469 50.878906 L 86.265625 50.878906 L 86.265625 48.285156 L 83.671875 48.285156 L 83.671875 45.695312 L 81.082031 45.695312 L 81.082031 50.878906 L 83.671875 50.878906 L 83.671875 53.46875 Z M 88.855469 53.46875 " fill-opacity="1" fill-rule="nonzero"/></g><path fill="#282828" d="M 130.320312 50.878906 L 130.320312 48.285156 L 132.914062 48.285156 L 132.914062 45.695312 L 130.320312 45.695312 L 130.320312 40.511719 L 132.914062 40.511719 L 132.914062 37.917969 L 127.730469 37.917969 L 127.730469 32.738281 L 125.136719 32.738281 L 125.136719 30.144531 L 119.953125 30.144531 L 119.953125 32.738281 L 122.546875 32.738281 L 122.546875 35.328125 L 125.136719 35.328125 L 125.136719 37.917969 L 122.546875 37.917969 L 122.546875 35.328125 L 117.363281 35.328125 L 117.363281 37.917969 L 119.953125 37.917969 L 119.953125 40.511719 L 117.363281 40.511719 L 117.363281 45.695312 L 119.953125 45.695312 L 119.953125 43.101562 L 122.546875 43.101562 L 122.546875 40.511719 L 125.136719 40.511719 L 125.136719 43.101562 L 122.546875 43.101562 L 122.546875 48.285156 L 125.136719 48.285156 L 125.136719 45.695312 L 127.730469 45.695312 L 127.730469 53.46875 L 132.914062 53.46875 L 132.914062 56.0625 L 135.503906 56.0625 L 135.503906 50.878906 Z M 130.320312 50.878906 " fill-opacity="1" fill-rule="nonzero"/><path fill="#282828" d="M 88.855469 53.46875 L 88.855469 56.0625 L 91.449219 56.0625 L 91.449219 53.46875 Z M 88.855469 53.46875 " fill-opacity="1" fill-rule="nonzero"/><path fill="#282828" d="M 99.222656 53.46875 L 96.632812 53.46875 L 96.632812 56.0625 L 91.449219 56.0625 L 91.449219 58.652344 L 99.222656 58.652344 Z M 99.222656 53.46875 " fill-opacity="1" fill-rule="nonzero"/><path fill="#282828" d="M 119.953125 53.46875 L 119.953125 56.0625 L 117.363281 56.0625 L 117.363281 61.242188 L 119.953125 61.242188 L 119.953125 63.835938 L 122.546875 63.835938 L 122.546875 56.0625 L 125.136719 56.0625 L 125.136719 50.878906 L 122.546875 50.878906 L 122.546875 53.46875 Z M 119.953125 53.46875 " fill-opacity="1" fill-rule="nonzero"/><path fill="#282828" d="M 145.871094 56.0625 L 145.871094 50.878906 L 140.6875 50.878906 L 140.6875 53.46875 L 138.097656 53.46875 L 138.097656 58.652344 L 143.277344 58.652344 L 143.277344 56.0625 Z M 145.871094 56.0625 " fill-opacity="1" fill-rule="nonzero"/><g clip-path="url(#c2fd9059e4)"><path fill="#282828" d="M 86.265625 58.652344 L 86.265625 56.0625 L 83.671875 56.0625 L 83.671875 53.46875 L 81.082031 53.46875 L 81.082031 61.242188 L 83.671875 61.242188 L 83.671875 58.652344 Z M 86.265625 58.652344 " fill-opacity="1" fill-rule="nonzero"/></g><path fill="#282828" d="M 148.460938 61.242188 L 151.054688 61.242188 L 151.054688 56.0625 L 148.460938 56.0625 Z M 148.460938 61.242188 " fill-opacity="1" fill-rule="nonzero"/><path fill="#282828" d="M 88.855469 63.835938 L 91.449219 63.835938 L 91.449219 66.425781 L 94.039062 66.425781 L 94.039062 61.242188 L 91.449219 61.242188 L 91.449219 58.652344 L 88.855469 58.652344 Z M 88.855469 63.835938 " fill-opacity="1" fill-rule="nonzero"/><path fill="#282828" d="M 104.40625 61.242188 L 106.996094 61.242188 L 106.996094 56.0625 L 114.769531 56.0625 L 114.769531 53.46875 L 104.40625 53.46875 L 104.40625 56.0625 L 101.8125 56.0625 L 101.8125 58.652344 L 104.40625 58.652344 Z M 104.40625 61.242188 " fill-opacity="1" fill-rule="nonzero"/><path fill="#282828" d="M 112.179688 58.652344 L 112.179688 61.242188 L 114.769531 61.242188 L 114.769531 58.652344 Z M 112.179688 58.652344 " fill-opacity="1" fill-rule="nonzero"/><path fill="#282828" d="M 125.136719 58.652344 L 125.136719 61.242188 L 127.730469 61.242188 L 127.730469 58.652344 Z M 125.136719 58.652344 " fill-opacity="1" fill-rule="nonzero"/><path fill="#282828" d="M 143.277344 58.652344 L 143.277344 61.242188 L 145.871094 61.242188 L 145.871094 58.652344 Z M 143.277344 58.652344 " fill-opacity="1" fill-rule="nonzero"/><path fill="#282828" d="M 83.671875 61.242188 L 83.671875 63.835938 L 86.265625 63.835938 L 86.265625 61.242188 Z M 83.671875 61.242188 " fill-opacity="1" fill-rule="nonzero"/><path fill="#282828" d="M 117.363281 61.242188 L 114.769531 61.242188 L 114.769531 63.835938 L 117.363281 63.835938 Z M 117.363281 61.242188 " fill-opacity="1" fill-rule="nonzero"/><path fill="#282828" d="M 127.730469 61.242188 L 127.730469 63.835938 L 130.320312 63.835938 L 130.320312 66.425781 L 132.914062 66.425781 L 132.914062 63.835938 L 138.097656 63.835938 L 138.097656 66.425781 L 140.6875 66.425781 L 140.6875 63.835938 L 143.277344 63.835938 L 143.277344 61.242188 Z M 127.730469 61.242188 " fill-opacity="1" fill-rule="nonzero"/><path fill="#282828" d="M 148.460938 61.242188 L 145.871094 61.242188 L 145.871094 66.425781 L 151.054688 66.425781 L 151.054688 63.835938 L 148.460938 63.835938 Z M 148.460938 61.242188 " fill-opacity="1" fill-rule="nonzero"/><g clip-path="url(#9ffa88a663)"><path fill="#282828" d="M 153.644531 63.835938 L 153.644531 61.242188 L 151.054688 61.242188 L 151.054688 63.835938 Z M 153.644531 63.835938 " fill-opacity="1" fill-rule="nonzero"/></g><path fill="#282828" d="M 86.265625 66.425781 L 88.855469 66.425781 L 88.855469 63.835938 L 86.265625 63.835938 Z M 86.265625 66.425781 " fill-opacity="1" fill-rule="nonzero"/><path fill="#282828" d="M 114.769531 63.835938 L 112.179688 63.835938 L 112.179688 66.425781 L 114.769531 66.425781 Z M 114.769531 63.835938 " fill-opacity="1" fill-rule="nonzero"/><path fill="#282828" d="M 109.589844 66.425781 L 109.589844 61.242188 L 106.996094 61.242188 L 106.996094 63.835938 L 101.8125 63.835938 L 101.8125 58.652344 L 99.222656 58.652344 L 99.222656 61.242188 L 96.632812 61.242188 L 96.632812 63.835938 L 99.222656 63.835938 L 99.222656 66.425781 L 104.40625 66.425781 L 104.40625 69.019531 L 101.8125 69.019531 L 101.8125 74.203125 L 104.40625 74.203125 L 104.40625 71.609375 L 106.996094 71.609375 L 106.996094 69.019531 L 112.179688 69.019531 L 112.179688 66.425781 Z M 109.589844 66.425781 " fill-opacity="1" fill-rule="nonzero"/><path fill="#282828" d="M 119.953125 66.425781 L 119.953125 63.835938 L 117.363281 63.835938 L 117.363281 71.609375 L 119.953125 71.609375 L 119.953125 74.203125 L 132.914062 74.203125 L 132.914062 71.609375 L 130.320312 71.609375 L 130.320312 69.019531 L 127.730469 69.019531 L 127.730469 71.609375 L 125.136719 71.609375 L 125.136719 63.835938 L 122.546875 63.835938 L 122.546875 66.425781 Z M 119.953125 66.425781 " fill-opacity="1" fill-rule="nonzero"/><path fill="#282828" d="M 135.503906 69.019531 L 135.503906 66.425781 L 132.914062 66.425781 L 132.914062 69.019531 Z M 135.503906 69.019531 " fill-opacity="1" fill-rule="nonzero"/><g clip-path="url(#4715edbdca)"><path fill="#282828" d="M 114.769531 74.203125 L 114.769531 69.019531 L 112.179688 69.019531 L 112.179688 71.609375 L 109.589844 71.609375 L 109.589844 74.203125 L 106.996094 74.203125 L 106.996094 79.386719 L 104.40625 79.386719 L 104.40625 81.976562 L 101.8125 81.976562 L 101.8125 84.566406 L 106.996094 84.566406 L 106.996094 81.976562 L 109.589844 81.976562 L 109.589844 76.792969 L 114.769531 76.792969 L 114.769531 81.976562 L 112.179688 81.976562 L 112.179688 84.566406 L 117.363281 84.566406 L 117.363281 76.792969 L 119.953125 76.792969 L 119.953125 74.203125 Z M 114.769531 74.203125 " fill-opacity="1" fill-rule="nonzero"/></g><path fill="#282828" d="M 99.222656 76.792969 L 99.222656 79.386719 L 104.40625 79.386719 L 104.40625 76.792969 Z M 99.222656 76.792969 " fill-opacity="1" fill-rule="nonzero"/><path fill="#282828" d="M 127.730469 76.792969 L 125.136719 76.792969 L 125.136719 79.386719 L 127.730469 79.386719 Z M 127.730469 76.792969 " fill-opacity="1" fill-rule="nonzero"/><path fill="#282828" d="M 132.914062 76.792969 L 130.320312 76.792969 L 130.320312 79.386719 L 132.914062 79.386719 Z M 132.914062 76.792969 " fill-opacity="1" fill-rule="nonzero"/><g clip-path="url(#93ef50c3db)"><path fill="#282828" d="M 119.953125 81.976562 L 122.546875 81.976562 L 122.546875 84.566406 L 125.136719 84.566406 L 125.136719 79.386719 L 122.546875 79.386719 L 122.546875 76.792969 L 119.953125 76.792969 Z M 119.953125 81.976562 " fill-opacity="1" fill-rule="nonzero"/></g><g clip-path="url(#0bae9ed9b3)"><path fill="#282828" d="M 127.730469 84.566406 L 130.320312 84.566406 L 130.320312 79.386719 L 127.730469 79.386719 Z M 127.730469 84.566406 " fill-opacity="1" fill-rule="nonzero"/></g><g clip-path="url(#33f3cddc32)"><path fill="#282828" d="M 132.914062 84.566406 L 135.503906 84.566406 L 135.503906 81.976562 L 132.914062 81.976562 Z M 132.914062 84.566406 " fill-opacity="1" fill-rule="nonzero"/></g><path fill="#001f42" d="M 10.316406 24.355469 L 58.101562 24.355469 L 58.101562 72.144531 L 10.316406 72.144531 Z M 10.316406 24.355469 " fill-opacity="1" fill-rule="nonzero"/><g clip-path="url(#b04a69feb1)"><path fill="#001f42" d="M 4.863281 23.675781 L 6.617188 23.675781 L 6.617188 43.277344 L 4.863281 43.277344 Z M 4.863281 23.675781 " fill-opacity="1" fill-rule="nonzero"/></g><g clip-path="url(#01f7ae8c58)"><path fill="#001f42" d="M 10.316406 18.699219 L 31.863281 18.699219 L 31.863281 20.453125 L 10.316406 20.453125 Z M 10.316406 18.699219 " fill-opacity="1" fill-rule="nonzero"/></g><g clip-path="url(#52467f5e72)"><path fill="#001f42" d="M 61.582031 23.695312 L 63.335938 23.695312 L 63.335938 43.300781 L 61.582031 43.300781 Z M 61.582031 23.695312 " fill-opacity="1" fill-rule="nonzero"/></g><g clip-path="url(#53d811c5f2)"><path fill="#001f42" d="M 36.335938 18.722656 L 57.886719 18.722656 L 57.886719 20.472656 L 36.335938 20.472656 Z M 36.335938 18.722656 " fill-opacity="1" fill-rule="nonzero"/></g><g clip-path="url(#947e0e4998)"><path fill="#001f42" d="M 4.945312 53.21875 L 6.699219 53.21875 L 6.699219 72.824219 L 4.945312 72.824219 Z M 4.945312 53.21875 " fill-opacity="1" fill-rule="nonzero"/></g><g clip-path="url(#95c16acf8a)"><path fill="#001f42" d="M 10.394531 76.046875 L 31.945312 76.046875 L 31.945312 77.800781 L 10.394531 77.800781 Z M 10.394531 76.046875 " fill-opacity="1" fill-rule="nonzero"/></g><g clip-path="url(#adeb06825e)"><path fill="#001f42" d="M 61.664062 53.199219 L 63.417969 53.199219 L 63.417969 72.804688 L 61.664062 72.804688 Z M 61.664062 53.199219 " fill-opacity="1" fill-rule="nonzero"/></g><g clip-path="url(#159971dc7c)"><path fill="#001f42" d="M 36.417969 76.023438 L 57.964844 76.023438 L 57.964844 77.777344 L 36.417969 77.777344 Z M 36.417969 76.023438 " fill-opacity="1" fill-rule="nonzero"/></g><g transform="matrix(1, 0, 0, 1, 11, 25)"><g clip-path="url(#34876a90a5)"><g fill="#fec838" fill-opacity="1"><g transform="translate(8.938726, 20.475899)"><g><path d="M 3.453125 -7.125 C 3.453125 -6.34375 3.554688 -5.640625 3.765625 -5.015625 C 3.984375 -4.398438 4.285156 -3.875 4.671875 -3.4375 C 5.066406 -3.007812 5.539062 -2.679688 6.09375 -2.453125 C 6.644531 -2.222656 7.269531 -2.109375 7.96875 -2.109375 C 8.664062 -2.109375 9.289062 -2.222656 9.84375 -2.453125 C 10.394531 -2.679688 10.863281 -3.007812 11.25 -3.4375 C 11.644531 -3.875 11.945312 -4.398438 12.15625 -5.015625 C 12.363281 -5.640625 12.46875 -6.34375 12.46875 -7.125 C 12.46875 -7.90625 12.363281 -8.601562 12.15625 -9.21875 C 11.945312 -9.84375 11.644531 -10.367188 11.25 -10.796875 C 10.863281 -11.234375 10.394531 -11.566406 9.84375 -11.796875 C 9.289062 -12.023438 8.664062 -12.140625 7.96875 -12.140625 C 7.269531 -12.140625 6.644531 -12.023438 6.09375 -11.796875 C 5.539062 -11.566406 5.066406 -11.234375 4.671875 -10.796875 C 4.285156 -10.367188 3.984375 -9.84375 3.765625 -9.21875 C 3.554688 -8.601562 3.453125 -7.90625 3.453125 -7.125 Z M 15.921875 2.78125 L 13.734375 2.78125 C 13.421875 2.78125 13.132812 2.738281 12.875 2.65625 C 12.625 2.570312 12.394531 2.414062 12.1875 2.1875 L 10.09375 -0.125 C 9.757812 -0.03125 9.414062 0.0351562 9.0625 0.078125 C 8.71875 0.128906 8.351562 0.15625 7.96875 0.15625 C 6.894531 0.15625 5.910156 -0.0234375 5.015625 -0.390625 C 4.128906 -0.753906 3.367188 -1.257812 2.734375 -1.90625 C 2.109375 -2.5625 1.617188 -3.332031 1.265625 -4.21875 C 0.921875 -5.113281 0.75 -6.082031 0.75 -7.125 C 0.75 -8.164062 0.921875 -9.128906 1.265625 -10.015625 C 1.617188 -10.910156 2.109375 -11.679688 2.734375 -12.328125 C 3.367188 -12.984375 4.128906 -13.492188 5.015625 -13.859375 C 5.910156 -14.222656 6.894531 -14.40625 7.96875 -14.40625 C 8.6875 -14.40625 9.363281 -14.320312 10 -14.15625 C 10.644531 -13.988281 11.234375 -13.75 11.765625 -13.4375 C 12.296875 -13.132812 12.769531 -12.765625 13.1875 -12.328125 C 13.613281 -11.890625 13.972656 -11.398438 14.265625 -10.859375 C 14.566406 -10.328125 14.796875 -9.742188 14.953125 -9.109375 C 15.109375 -8.484375 15.1875 -7.820312 15.1875 -7.125 C 15.1875 -6.488281 15.117188 -5.878906 14.984375 -5.296875 C 14.847656 -4.710938 14.65625 -4.164062 14.40625 -3.65625 C 14.164062 -3.15625 13.867188 -2.691406 13.515625 -2.265625 C 13.160156 -1.847656 12.753906 -1.476562 12.296875 -1.15625 Z M 15.921875 2.78125 "/></g></g></g><g fill="#fec838" fill-opacity="1"><g transform="translate(24.852779, 20.475899)"><g><path d="M 5.890625 -7.46875 C 6.390625 -7.46875 6.820312 -7.53125 7.1875 -7.65625 C 7.5625 -7.78125 7.867188 -7.953125 8.109375 -8.171875 C 8.347656 -8.390625 8.523438 -8.648438 8.640625 -8.953125 C 8.765625 -9.253906 8.828125 -9.585938 8.828125 -9.953125 C 8.828125 -10.671875 8.585938 -11.222656 8.109375 -11.609375 C 7.640625 -12.003906 6.914062 -12.203125 5.9375 -12.203125 L 4.234375 -12.203125 L 4.234375 -7.46875 Z M 12.703125 0 L 10.3125 0 C 9.863281 0 9.535156 -0.175781 9.328125 -0.53125 L 6.328125 -5.09375 C 6.222656 -5.257812 6.101562 -5.378906 5.96875 -5.453125 C 5.832031 -5.523438 5.632812 -5.5625 5.375 -5.5625 L 4.234375 -5.5625 L 4.234375 0 L 1.59375 0 L 1.59375 -14.25 L 5.9375 -14.25 C 6.894531 -14.25 7.71875 -14.144531 8.40625 -13.9375 C 9.101562 -13.738281 9.671875 -13.457031 10.109375 -13.09375 C 10.554688 -12.738281 10.882812 -12.304688 11.09375 -11.796875 C 11.3125 -11.296875 11.421875 -10.742188 11.421875 -10.140625 C 11.421875 -9.660156 11.347656 -9.207031 11.203125 -8.78125 C 11.066406 -8.351562 10.863281 -7.96875 10.59375 -7.625 C 10.332031 -7.28125 10.003906 -6.972656 9.609375 -6.703125 C 9.222656 -6.441406 8.78125 -6.238281 8.28125 -6.09375 C 8.445312 -5.988281 8.601562 -5.867188 8.75 -5.734375 C 8.894531 -5.597656 9.023438 -5.441406 9.140625 -5.265625 Z M 12.703125 0 "/></g></g></g><g fill="#fec838" fill-opacity="1"><g transform="translate(1.034511, 39.896858)"><g><path d="M 4.234375 -8.28125 L 4.859375 -8.28125 C 5.109375 -8.28125 5.3125 -8.3125 5.46875 -8.375 C 5.632812 -8.445312 5.78125 -8.554688 5.90625 -8.703125 L 9.828125 -13.6875 C 9.992188 -13.894531 10.164062 -14.039062 10.34375 -14.125 C 10.53125 -14.207031 10.757812 -14.25 11.03125 -14.25 L 13.3125 -14.25 L 8.515625 -8.328125 C 8.234375 -7.960938 7.941406 -7.707031 7.640625 -7.5625 C 7.859375 -7.476562 8.050781 -7.363281 8.21875 -7.21875 C 8.394531 -7.082031 8.566406 -6.898438 8.734375 -6.671875 L 13.671875 0 L 11.34375 0 C 11.019531 0 10.78125 -0.0390625 10.625 -0.125 C 10.476562 -0.21875 10.351562 -0.347656 10.25 -0.515625 L 6.21875 -5.78125 C 6.09375 -5.957031 5.945312 -6.082031 5.78125 -6.15625 C 5.613281 -6.226562 5.378906 -6.265625 5.078125 -6.265625 L 4.234375 -6.265625 L 4.234375 0 L 1.59375 0 L 1.59375 -14.25 L 4.234375 -14.25 Z M 4.234375 -8.28125 "/></g></g></g><g fill="#fec838" fill-opacity="1"><g transform="translate(14.535846, 39.896858)"><g><path d="M 15.171875 -7.125 C 15.171875 -6.082031 15 -5.113281 14.65625 -4.21875 C 14.3125 -3.332031 13.820312 -2.5625 13.1875 -1.90625 C 12.5625 -1.257812 11.800781 -0.753906 10.90625 -0.390625 C 10.019531 -0.0234375 9.035156 0.15625 7.953125 0.15625 C 6.878906 0.15625 5.898438 -0.0234375 5.015625 -0.390625 C 4.128906 -0.753906 3.367188 -1.257812 2.734375 -1.90625 C 2.097656 -2.5625 1.601562 -3.332031 1.25 -4.21875 C 0.90625 -5.113281 0.734375 -6.082031 0.734375 -7.125 C 0.734375 -8.164062 0.90625 -9.128906 1.25 -10.015625 C 1.601562 -10.910156 2.097656 -11.679688 2.734375 -12.328125 C 3.367188 -12.984375 4.128906 -13.492188 5.015625 -13.859375 C 5.898438 -14.222656 6.878906 -14.40625 7.953125 -14.40625 C 8.679688 -14.40625 9.363281 -14.320312 10 -14.15625 C 10.632812 -13.988281 11.21875 -13.75 11.75 -13.4375 C 12.28125 -13.132812 12.757812 -12.765625 13.1875 -12.328125 C 13.613281 -11.890625 13.972656 -11.398438 14.265625 -10.859375 C 14.554688 -10.328125 14.78125 -9.742188 14.9375 -9.109375 C 15.09375 -8.484375 15.171875 -7.820312 15.171875 -7.125 Z M 12.46875 -7.125 C 12.46875 -7.90625 12.359375 -8.601562 12.140625 -9.21875 C 11.929688 -9.84375 11.632812 -10.367188 11.25 -10.796875 C 10.863281 -11.234375 10.390625 -11.566406 9.828125 -11.796875 C 9.273438 -12.023438 8.648438 -12.140625 7.953125 -12.140625 C 7.265625 -12.140625 6.640625 -12.023438 6.078125 -11.796875 C 5.523438 -11.566406 5.050781 -11.234375 4.65625 -10.796875 C 4.269531 -10.367188 3.972656 -9.84375 3.765625 -9.21875 C 3.554688 -8.601562 3.453125 -7.90625 3.453125 -7.125 C 3.453125 -6.34375 3.554688 -5.640625 3.765625 -5.015625 C 3.972656 -4.398438 4.269531 -3.875 4.65625 -3.4375 C 5.050781 -3.007812 5.523438 -2.679688 6.078125 -2.453125 C 6.640625 -2.222656 7.265625 -2.109375 7.953125 -2.109375 C 8.648438 -2.109375 9.273438 -2.222656 9.828125 -2.453125 C 10.390625 -2.679688 10.863281 -3.007812 11.25 -3.4375 C 11.632812 -3.875 11.929688 -4.398438 12.140625 -5.015625 C 12.359375 -5.640625 12.46875 -6.34375 12.46875 -7.125 Z M 12.46875 -7.125 "/></g></g></g><g fill="#fec838" fill-opacity="1"><g transform="translate(30.4499, 39.896858)"><g><path d="M 14.234375 -7.125 C 14.234375 -6.082031 14.054688 -5.125 13.703125 -4.25 C 13.359375 -3.375 12.867188 -2.617188 12.234375 -1.984375 C 11.609375 -1.359375 10.851562 -0.867188 9.96875 -0.515625 C 9.082031 -0.171875 8.097656 0 7.015625 0 L 1.59375 0 L 1.59375 -14.25 L 7.015625 -14.25 C 8.097656 -14.25 9.082031 -14.070312 9.96875 -13.71875 C 10.851562 -13.363281 11.609375 -12.875 12.234375 -12.25 C 12.867188 -11.625 13.359375 -10.875 13.703125 -10 C 14.054688 -9.125 14.234375 -8.164062 14.234375 -7.125 Z M 11.515625 -7.125 C 11.515625 -7.90625 11.410156 -8.601562 11.203125 -9.21875 C 10.992188 -9.84375 10.691406 -10.367188 10.296875 -10.796875 C 9.910156 -11.234375 9.441406 -11.566406 8.890625 -11.796875 C 8.335938 -12.023438 7.710938 -12.140625 7.015625 -12.140625 L 4.25 -12.140625 L 4.25 -2.109375 L 7.015625 -2.109375 C 7.710938 -2.109375 8.335938 -2.222656 8.890625 -2.453125 C 9.441406 -2.679688 9.910156 -3.007812 10.296875 -3.4375 C 10.691406 -3.875 10.992188 -4.398438 11.203125 -5.015625 C 11.410156 -5.640625 11.515625 -6.34375 11.515625 -7.125 Z M 11.515625 -7.125 "/></g></g></g></g></g><path fill="#001f42" d="M 169.589844 30.648438 L 204.796875 30.648438 L 204.796875 65.851562 L 169.589844 65.851562 Z M 169.589844 30.648438 " fill-opacity="1" fill-rule="nonzero"/><g clip-path="url(#9299b1ed84)"><path fill="#001f42" d="M 165.578125 30.148438 L 166.867188 30.148438 L 166.867188 44.589844 L 165.578125 44.589844 Z M 165.578125 30.148438 " fill-opacity="1" fill-rule="nonzero"/></g><g clip-path="url(#0d655d2def)"><path fill="#001f42" d="M 169.589844 26.484375 L 185.464844 26.484375 L 185.464844 27.773438 L 169.589844 27.773438 Z M 169.589844 26.484375 " fill-opacity="1" fill-rule="nonzero"/></g><g clip-path="url(#07519937ff)"><path fill="#001f42" d="M 207.359375 30.164062 L 208.652344 30.164062 L 208.652344 44.605469 L 207.359375 44.605469 Z M 207.359375 30.164062 " fill-opacity="1" fill-rule="nonzero"/></g><g clip-path="url(#1cc4d230d9)"><path fill="#001f42" d="M 188.761719 26.5 L 204.636719 26.5 L 204.636719 27.789062 L 188.761719 27.789062 Z M 188.761719 26.5 " fill-opacity="1" fill-rule="nonzero"/></g><g clip-path="url(#35f4f5801e)"><path fill="#001f42" d="M 165.636719 51.914062 L 166.925781 51.914062 L 166.925781 66.355469 L 165.636719 66.355469 Z M 165.636719 51.914062 " fill-opacity="1" fill-rule="nonzero"/></g><g clip-path="url(#2c30c97c30)"><path fill="#001f42" d="M 169.652344 68.726562 L 185.523438 68.726562 L 185.523438 70.019531 L 169.652344 70.019531 Z M 169.652344 68.726562 " fill-opacity="1" fill-rule="nonzero"/></g><g clip-path="url(#71effbb2b2)"><path fill="#001f42" d="M 207.417969 51.898438 L 208.710938 51.898438 L 208.710938 66.339844 L 207.417969 66.339844 Z M 207.417969 51.898438 " fill-opacity="1" fill-rule="nonzero"/></g><g clip-path="url(#0e298f85dd)"><path fill="#001f42" d="M 188.820312 68.714844 L 204.695312 68.714844 L 204.695312 70.003906 L 188.820312 70.003906 Z M 188.820312 68.714844 " fill-opacity="1" fill-rule="nonzero"/></g><g fill="#fec838" fill-opacity="1"><g transform="translate(178.214685, 59.84536)"><g><path d="M 15.921875 -2.84375 L 15.921875 0 L 3.609375 0 L 3.609375 -2.84375 L 8.125 -2.84375 L 8.125 -15.8125 C 8.125 -16.320312 8.140625 -16.847656 8.171875 -17.390625 L 4.96875 -14.71875 C 4.78125 -14.570312 4.597656 -14.476562 4.421875 -14.4375 C 4.242188 -14.40625 4.070312 -14.40625 3.90625 -14.4375 C 3.75 -14.46875 3.609375 -14.519531 3.484375 -14.59375 C 3.367188 -14.675781 3.28125 -14.765625 3.21875 -14.859375 L 2.015625 -16.5 L 8.796875 -22.28125 L 11.921875 -22.28125 L 11.921875 -2.84375 Z M 15.921875 -2.84375 "/></g></g></g></svg>