<svg xmlns="http://www.w3.org/2000/svg" xmlns:xlink="http://www.w3.org/1999/xlink" width="320" zoomAndPan="magnify" viewBox="0 0 240 96.749999" height="129" preserveAspectRatio="xMidYMid meet" version="1.0"><defs><g/><clipPath id="01ac92f9ab"><path d="M 0.308594 11 L 239.691406 11 L 239.691406 85.554688 L 0.308594 85.554688 Z M 0.308594 11 " clip-rule="nonzero"/></clipPath><clipPath id="4e117fdefd"><path d="M 5 43 L 234 43 L 234 85.554688 L 5 85.554688 Z M 5 43 " clip-rule="nonzero"/></clipPath></defs><g clip-path="url(#01ac92f9ab)"><path fill="#001f42" d="M 232.734375 11.886719 C 160.917969 10.746094 89.105469 10.746094 17.289062 11.886719 C 14.667969 11.941406 12.046875 11.941406 9.429688 12 C 8.632812 12.058594 7.148438 12.285156 5.554688 13.140625 C 3.5625 14.277344 2.535156 15.871094 2.136719 16.441406 C 0.601562 18.949219 0.542969 21.453125 0.488281 23.332031 C 0.429688 29.484375 0.65625 42.867188 0.488281 49.191406 C 0.488281 49.191406 0.316406 58.472656 1.113281 74.53125 C 1.171875 75.101562 1.226562 76.414062 2.023438 77.78125 C 3.050781 79.601562 4.757812 80.457031 5.953125 81.082031 C 9.996094 83.074219 13.871094 84.613281 16.492188 85.582031 C 13.1875 82.734375 10.679688 80.171875 8.914062 78.234375 C 7.378906 76.582031 5.898438 74.816406 6.351562 73.28125 C 6.582031 72.484375 7.320312 71.96875 7.832031 71.515625 C 8.914062 70.660156 10.054688 70.375 10.679688 70.261719 C 39.554688 69.691406 63.132812 69.464844 79.308594 69.519531 C 102.144531 69.578125 125.152344 69.863281 148.902344 69.691406 C 146.113281 69.691406 145.085938 69.636719 145.085938 69.636719 C 145.085938 69.636719 145.65625 69.636719 145.828125 69.636719 C 149.300781 69.578125 193.554688 70.71875 200.730469 69.804688 C 201.183594 69.75 203.007812 69.464844 205.570312 69.351562 C 206.992188 69.238281 207.390625 69.292969 208.703125 69.179688 C 212.460938 68.953125 213.203125 68.839844 213.828125 68.609375 C 214.339844 68.4375 215.023438 68.15625 216.332031 67.585938 C 218.382812 66.671875 219.410156 66.273438 220.546875 65.476562 C 221.800781 64.625 222.769531 63.65625 223.054688 63.371094 C 223.394531 63.027344 223.625 62.742188 223.910156 62.460938 C 224.25 62.003906 224.820312 61.378906 225.445312 60.578125 C 229.089844 55.738281 230.117188 52.039062 232.851562 44.460938 C 234.898438 38.824219 236.097656 36.089844 238.203125 29.484375 C 238.773438 27.660156 239.683594 24.757812 239.683594 20.882812 C 239.683594 18.152344 239.628906 14.449219 237.121094 12.683594 C 235.582031 11.714844 233.816406 11.773438 232.734375 11.886719 Z M 232.734375 11.886719 " fill-opacity="1" fill-rule="nonzero"/></g><g clip-path="url(#4e117fdefd)"><path fill="#fec838" d="M 16.890625 85.753906 C 15.179688 84.726562 13.8125 83.816406 12.789062 83.132812 C 11.078125 81.992188 10.054688 81.195312 9.144531 80.398438 C 7.378906 78.917969 6.867188 78.179688 6.636719 77.722656 C 6.238281 77.097656 5.667969 76.070312 5.726562 74.703125 C 5.726562 74.363281 5.785156 73.621094 6.238281 72.824219 C 6.636719 72.199219 7.09375 71.855469 7.433594 71.570312 C 8.117188 71.058594 8.800781 70.832031 9.371094 70.601562 C 9.371094 70.601562 10.054688 70.375 10.738281 70.261719 C 16.71875 69.238281 25.261719 69.578125 25.261719 69.578125 C 33.007812 69.921875 36.539062 69.351562 49.578125 69.351562 C 62.164062 69.40625 59.714844 69.179688 77.828125 69.179688 C 101.347656 69.179688 106.53125 69.578125 127.886719 69.40625 C 141.269531 69.292969 138.195312 69.179688 145.65625 69.179688 C 156.875 69.179688 193.15625 69.578125 202.039062 69.464844 C 202.378906 69.464844 205.113281 69.40625 208.757812 69.007812 C 211.4375 68.722656 212.804688 68.554688 214.398438 68.039062 C 217.644531 67.015625 219.921875 65.363281 221.0625 64.394531 C 221.0625 64.394531 223.964844 62.003906 226.527344 57.617188 C 226.585938 57.503906 226.699219 57.332031 226.699219 57.332031 C 227.667969 55.910156 228.292969 54.257812 228.292969 54.257812 C 229.375 51.921875 233.304688 43.039062 233.363281 43.097656 C 233.363281 43.097656 233.25 43.4375 232.851562 44.519531 C 232.621094 45.144531 232.621094 45.203125 232.28125 46.113281 C 232.050781 46.742188 231.996094 46.855469 231.769531 47.59375 C 231.425781 48.507812 231.199219 49.132812 231.140625 49.304688 C 229.375 54.371094 228.292969 57.277344 226.472656 60.351562 C 225.558594 61.890625 224.707031 62.972656 224.421875 63.371094 C 223.625 64.394531 222.828125 65.25 222.3125 65.820312 C 219.980469 68.15625 217.074219 69.121094 215.023438 69.804688 C 211.835938 70.886719 209.15625 71.117188 206.878906 71.34375 C 205.226562 71.457031 204.488281 71.457031 201.414062 71.515625 C 196.855469 71.570312 194.519531 71.742188 192.414062 71.800781 C 183.300781 72.085938 153.34375 71.855469 144.003906 71.800781 C 123.84375 71.683594 126.234375 72.085938 104.878906 71.914062 C 95.480469 71.855469 86.085938 71.800781 76.574219 71.800781 C 70.539062 71.800781 64.5 71.800781 58.519531 71.800781 C 52.710938 71.800781 46.902344 71.800781 41.148438 71.855469 C 33.121094 71.855469 25.03125 71.855469 17.003906 71.800781 C 16.890625 76.414062 16.890625 81.082031 16.890625 85.753906 Z M 16.890625 85.753906 " fill-opacity="1" fill-rule="nonzero"/></g><g fill="#fec838" fill-opacity="1"><g transform="translate(10.875276, 60.575563)"><g><path d="M 36.53125 -38.28125 L 36.53125 0 L 29.375 0 L 29.375 -16.734375 L 11.40625 -16.734375 L 11.40625 0 L 4.265625 0 L 4.265625 -38.28125 L 11.40625 -38.28125 L 11.40625 -21.8125 L 29.375 -21.8125 L 29.375 -38.28125 Z M 36.53125 -38.28125 "/></g></g></g><g fill="#fec838" fill-opacity="1"><g transform="translate(51.654697, 60.575563)"><g><path d="M 24.484375 -14.453125 L 19.828125 -27.1875 C 19.597656 -27.75 19.359375 -28.414062 19.109375 -29.1875 C 18.859375 -29.96875 18.613281 -30.804688 18.375 -31.703125 C 18.144531 -30.804688 17.90625 -29.960938 17.65625 -29.171875 C 17.40625 -28.390625 17.164062 -27.707031 16.9375 -27.125 L 12.3125 -14.453125 Z M 37.0625 0 L 31.546875 0 C 30.929688 0 30.425781 -0.148438 30.03125 -0.453125 C 29.644531 -0.765625 29.359375 -1.148438 29.171875 -1.609375 L 26.3125 -9.421875 L 10.453125 -9.421875 L 7.59375 -1.609375 C 7.457031 -1.203125 7.1875 -0.832031 6.78125 -0.5 C 6.375 -0.164062 5.867188 0 5.265625 0 L -0.296875 0 L 14.765625 -38.28125 L 22.015625 -38.28125 Z M 37.0625 0 "/></g></g></g><g fill="#fec838" fill-opacity="1"><g transform="translate(88.41174, 60.575563)"><g><path d="M 37.0625 -38.28125 L 21.59375 0 L 15.171875 0 L -0.296875 -38.28125 L 5.421875 -38.28125 C 6.046875 -38.28125 6.550781 -38.128906 6.9375 -37.828125 C 7.320312 -37.523438 7.613281 -37.132812 7.8125 -36.65625 L 16.828125 -13.3125 C 17.128906 -12.550781 17.414062 -11.71875 17.6875 -10.8125 C 17.96875 -9.90625 18.226562 -8.957031 18.46875 -7.96875 C 18.6875 -8.957031 18.914062 -9.90625 19.15625 -10.8125 C 19.40625 -11.71875 19.679688 -12.550781 19.984375 -13.3125 L 28.953125 -36.65625 C 29.097656 -37.0625 29.375 -37.429688 29.78125 -37.765625 C 30.195312 -38.109375 30.707031 -38.28125 31.3125 -38.28125 Z M 37.0625 -38.28125 "/></g></g></g><g fill="#fec838" fill-opacity="1"><g transform="translate(125.168783, 60.575563)"><g><path d="M 24.484375 -14.453125 L 19.828125 -27.1875 C 19.597656 -27.75 19.359375 -28.414062 19.109375 -29.1875 C 18.859375 -29.96875 18.613281 -30.804688 18.375 -31.703125 C 18.144531 -30.804688 17.90625 -29.960938 17.65625 -29.171875 C 17.40625 -28.390625 17.164062 -27.707031 16.9375 -27.125 L 12.3125 -14.453125 Z M 37.0625 0 L 31.546875 0 C 30.929688 0 30.425781 -0.148438 30.03125 -0.453125 C 29.644531 -0.765625 29.359375 -1.148438 29.171875 -1.609375 L 26.3125 -9.421875 L 10.453125 -9.421875 L 7.59375 -1.609375 C 7.457031 -1.203125 7.1875 -0.832031 6.78125 -0.5 C 6.375 -0.164062 5.867188 0 5.265625 0 L -0.296875 0 L 14.765625 -38.28125 L 22.015625 -38.28125 Z M 37.0625 0 "/></g></g></g><g fill="#fec838" fill-opacity="1"><g transform="translate(161.925825, 60.575563)"><g><path d="M 26.6875 -5.875 L 26.6875 0 L 4.265625 0 L 4.265625 -38.28125 L 11.375 -38.28125 L 11.375 -5.875 Z M 26.6875 -5.875 "/></g></g></g><g fill="#fec838" fill-opacity="1"><g transform="translate(189.420836, 60.575563)"><g><path d="M 11.40625 -32.609375 L 11.40625 -22 L 24.796875 -22 L 24.796875 -16.515625 L 11.40625 -16.515625 L 11.40625 -5.6875 L 28.40625 -5.6875 L 28.40625 0 L 4.265625 0 L 4.265625 -38.28125 L 28.40625 -38.28125 L 28.40625 -32.609375 Z M 11.40625 -32.609375 "/></g></g></g></svg>