<svg xmlns="http://www.w3.org/2000/svg" xmlns:xlink="http://www.w3.org/1999/xlink" width="320" zoomAndPan="magnify" viewBox="0 0 240 96.749999" height="129" preserveAspectRatio="xMidYMid meet" version="1.0"><defs><g/></defs><path fill="#f7931a" d="M 101.339844 58.390625 C 95.453125 82.003906 71.535156 96.375 47.917969 90.484375 C 24.3125 84.597656 9.941406 60.679688 15.832031 37.066406 C 21.714844 13.453125 45.632812 -0.921875 69.242188 4.964844 C 92.855469 10.851562 107.226562 34.773438 101.339844 58.390625 Z M 101.339844 58.390625 " fill-opacity="1" fill-rule="nonzero"/><path fill="#ffffff" d="M 78.019531 41.445312 C 78.894531 35.582031 74.429688 32.429688 68.324219 30.324219 L 70.304688 22.378906 L 65.46875 21.175781 L 63.539062 28.910156 C 62.269531 28.59375 60.960938 28.292969 59.664062 28 L 61.605469 20.210938 L 56.773438 19.007812 L 54.792969 26.949219 C 53.738281 26.710938 52.707031 26.472656 51.703125 26.222656 L 51.707031 26.199219 L 45.039062 24.53125 L 43.753906 29.699219 C 43.753906 29.699219 47.339844 30.519531 47.265625 30.570312 C 49.222656 31.0625 49.578125 32.355469 49.519531 33.382812 L 47.261719 42.4375 C 47.398438 42.46875 47.574219 42.519531 47.765625 42.597656 C 47.605469 42.558594 47.433594 42.511719 47.253906 42.46875 L 44.089844 55.148438 C 43.851562 55.746094 43.246094 56.636719 41.875 56.296875 C 41.921875 56.367188 38.359375 55.421875 38.359375 55.421875 L 35.957031 60.957031 L 42.253906 62.527344 C 43.421875 62.820312 44.570312 63.125 45.699219 63.414062 L 43.699219 71.453125 L 48.53125 72.65625 L 50.511719 64.707031 C 51.832031 65.066406 53.113281 65.394531 54.367188 65.707031 L 52.390625 73.621094 L 57.226562 74.824219 L 59.226562 66.804688 C 67.476562 68.363281 73.675781 67.734375 76.285156 60.277344 C 78.390625 54.269531 76.183594 50.804688 71.84375 48.546875 C 75.003906 47.820312 77.382812 45.742188 78.019531 41.445312 Z M 66.96875 56.941406 C 65.472656 62.949219 55.363281 59.699219 52.082031 58.886719 L 54.738281 48.242188 C 58.015625 49.058594 68.53125 50.679688 66.96875 56.941406 Z M 68.464844 41.359375 C 67.101562 46.824219 58.683594 44.046875 55.953125 43.367188 L 58.363281 33.710938 C 61.09375 34.390625 69.882812 35.660156 68.464844 41.359375 Z M 68.464844 41.359375 " fill-opacity="1" fill-rule="nonzero"/><g fill="#fec838" fill-opacity="1"><g transform="translate(116.876743, 59.397038)"><g><path d="M 11.046875 -3.9375 C 11.734375 -3.9375 12.296875 -4.019531 12.734375 -4.1875 C 13.171875 -4.363281 13.515625 -4.585938 13.765625 -4.859375 C 14.015625 -5.140625 14.179688 -5.453125 14.265625 -5.796875 C 14.359375 -6.148438 14.40625 -6.507812 14.40625 -6.875 C 14.40625 -7.28125 14.351562 -7.648438 14.25 -7.984375 C 14.144531 -8.316406 13.957031 -8.59375 13.6875 -8.8125 C 13.425781 -9.039062 13.078125 -9.21875 12.640625 -9.34375 C 12.210938 -9.46875 11.671875 -9.53125 11.015625 -9.53125 L 7.390625 -9.53125 L 7.390625 -3.9375 Z M 7.390625 -18.5625 L 7.390625 -13.015625 L 10.09375 -13.015625 C 10.664062 -13.015625 11.179688 -13.050781 11.640625 -13.125 C 12.109375 -13.207031 12.503906 -13.351562 12.828125 -13.5625 C 13.148438 -13.769531 13.394531 -14.050781 13.5625 -14.40625 C 13.738281 -14.769531 13.828125 -15.222656 13.828125 -15.765625 C 13.828125 -16.296875 13.757812 -16.738281 13.625 -17.09375 C 13.488281 -17.457031 13.28125 -17.742188 13 -17.953125 C 12.726562 -18.171875 12.378906 -18.328125 11.953125 -18.421875 C 11.523438 -18.515625 11.019531 -18.5625 10.4375 -18.5625 Z M 10.4375 -22.453125 C 11.988281 -22.453125 13.304688 -22.304688 14.390625 -22.015625 C 15.484375 -21.734375 16.375 -21.328125 17.0625 -20.796875 C 17.75 -20.273438 18.25 -19.640625 18.5625 -18.890625 C 18.875 -18.140625 19.03125 -17.304688 19.03125 -16.390625 C 19.03125 -15.878906 18.957031 -15.390625 18.8125 -14.921875 C 18.675781 -14.460938 18.453125 -14.03125 18.140625 -13.625 C 17.835938 -13.21875 17.441406 -12.84375 16.953125 -12.5 C 16.472656 -12.15625 15.894531 -11.863281 15.21875 -11.625 C 16.695312 -11.257812 17.789062 -10.675781 18.5 -9.875 C 19.207031 -9.070312 19.5625 -8.035156 19.5625 -6.765625 C 19.5625 -5.804688 19.375 -4.914062 19 -4.09375 C 18.632812 -3.269531 18.09375 -2.550781 17.375 -1.9375 C 16.664062 -1.332031 15.785156 -0.859375 14.734375 -0.515625 C 13.679688 -0.171875 12.484375 0 11.140625 0 L 2.171875 0 L 2.171875 -22.453125 Z M 10.4375 -22.453125 "/></g></g></g><g fill="#fec838" fill-opacity="1"><g transform="translate(137.25804, 59.397038)"><g><path d="M 6.5 -15.984375 L 6.5 0 L 1.71875 0 L 1.71875 -15.984375 Z M 7 -20.359375 C 7 -19.984375 6.921875 -19.628906 6.765625 -19.296875 C 6.609375 -18.960938 6.394531 -18.664062 6.125 -18.40625 C 5.863281 -18.15625 5.554688 -17.957031 5.203125 -17.8125 C 4.847656 -17.664062 4.46875 -17.59375 4.0625 -17.59375 C 3.675781 -17.59375 3.3125 -17.664062 2.96875 -17.8125 C 2.632812 -17.957031 2.335938 -18.15625 2.078125 -18.40625 C 1.816406 -18.664062 1.609375 -18.960938 1.453125 -19.296875 C 1.304688 -19.628906 1.234375 -19.984375 1.234375 -20.359375 C 1.234375 -20.753906 1.304688 -21.117188 1.453125 -21.453125 C 1.609375 -21.796875 1.816406 -22.09375 2.078125 -22.34375 C 2.335938 -22.601562 2.632812 -22.804688 2.96875 -22.953125 C 3.3125 -23.097656 3.675781 -23.171875 4.0625 -23.171875 C 4.46875 -23.171875 4.847656 -23.097656 5.203125 -22.953125 C 5.554688 -22.804688 5.863281 -22.601562 6.125 -22.34375 C 6.394531 -22.09375 6.609375 -21.796875 6.765625 -21.453125 C 6.921875 -21.117188 7 -20.753906 7 -20.359375 Z M 7 -20.359375 "/></g></g></g><g fill="#fec838" fill-opacity="1"><g transform="translate(145.48454, 59.397038)"><g><path d="M 7.34375 0.25 C 6.582031 0.25 5.910156 0.140625 5.328125 -0.078125 C 4.742188 -0.304688 4.253906 -0.625 3.859375 -1.03125 C 3.460938 -1.4375 3.160156 -1.925781 2.953125 -2.5 C 2.753906 -3.070312 2.65625 -3.710938 2.65625 -4.421875 L 2.65625 -12.6875 L 1.296875 -12.6875 C 1.046875 -12.6875 0.832031 -12.765625 0.65625 -12.921875 C 0.488281 -13.078125 0.40625 -13.3125 0.40625 -13.625 L 0.40625 -15.484375 L 2.9375 -15.984375 L 3.890625 -19.890625 C 4.003906 -20.378906 4.351562 -20.625 4.9375 -20.625 L 7.421875 -20.625 L 7.421875 -15.953125 L 11.390625 -15.953125 L 11.390625 -12.6875 L 7.421875 -12.6875 L 7.421875 -4.75 C 7.421875 -4.375 7.507812 -4.066406 7.6875 -3.828125 C 7.875 -3.585938 8.140625 -3.46875 8.484375 -3.46875 C 8.648438 -3.46875 8.789062 -3.484375 8.90625 -3.515625 C 9.03125 -3.554688 9.132812 -3.597656 9.21875 -3.640625 C 9.3125 -3.691406 9.394531 -3.734375 9.46875 -3.765625 C 9.550781 -3.804688 9.640625 -3.828125 9.734375 -3.828125 C 9.878906 -3.828125 9.992188 -3.789062 10.078125 -3.71875 C 10.171875 -3.65625 10.265625 -3.550781 10.359375 -3.40625 L 11.8125 -1.140625 C 11.1875 -0.679688 10.488281 -0.332031 9.71875 -0.09375 C 8.945312 0.132812 8.15625 0.25 7.34375 0.25 Z M 7.34375 0.25 "/></g></g></g><g fill="#fec838" fill-opacity="1"><g transform="translate(157.161809, 59.397038)"><g><path d="M 13.359375 -12.1875 C 13.210938 -12.019531 13.070312 -11.882812 12.9375 -11.78125 C 12.8125 -11.675781 12.625 -11.625 12.375 -11.625 C 12.132812 -11.625 11.921875 -11.679688 11.734375 -11.796875 C 11.546875 -11.910156 11.332031 -12.035156 11.09375 -12.171875 C 10.863281 -12.304688 10.585938 -12.429688 10.265625 -12.546875 C 9.941406 -12.660156 9.546875 -12.71875 9.078125 -12.71875 C 8.492188 -12.71875 7.988281 -12.609375 7.5625 -12.390625 C 7.132812 -12.171875 6.78125 -11.859375 6.5 -11.453125 C 6.226562 -11.054688 6.023438 -10.566406 5.890625 -9.984375 C 5.753906 -9.410156 5.6875 -8.757812 5.6875 -8.03125 C 5.6875 -6.5 5.976562 -5.320312 6.5625 -4.5 C 7.15625 -3.675781 7.972656 -3.265625 9.015625 -3.265625 C 9.566406 -3.265625 10.003906 -3.332031 10.328125 -3.46875 C 10.660156 -3.613281 10.9375 -3.769531 11.15625 -3.9375 C 11.382812 -4.101562 11.59375 -4.257812 11.78125 -4.40625 C 11.96875 -4.550781 12.207031 -4.625 12.5 -4.625 C 12.882812 -4.625 13.171875 -4.484375 13.359375 -4.203125 L 14.75 -2.5 C 14.257812 -1.9375 13.738281 -1.472656 13.1875 -1.109375 C 12.644531 -0.753906 12.085938 -0.476562 11.515625 -0.28125 C 10.953125 -0.0820312 10.378906 0.0507812 9.796875 0.125 C 9.222656 0.207031 8.664062 0.25 8.125 0.25 C 7.144531 0.25 6.210938 0.0664062 5.328125 -0.296875 C 4.441406 -0.671875 3.660156 -1.207031 2.984375 -1.90625 C 2.304688 -2.613281 1.769531 -3.484375 1.375 -4.515625 C 0.976562 -5.546875 0.78125 -6.71875 0.78125 -8.03125 C 0.78125 -9.175781 0.953125 -10.25 1.296875 -11.25 C 1.640625 -12.257812 2.148438 -13.128906 2.828125 -13.859375 C 3.503906 -14.597656 4.335938 -15.175781 5.328125 -15.59375 C 6.316406 -16.019531 7.460938 -16.234375 8.765625 -16.234375 C 10.023438 -16.234375 11.125 -16.03125 12.0625 -15.625 C 13.007812 -15.226562 13.863281 -14.644531 14.625 -13.875 Z M 13.359375 -12.1875 "/></g></g></g><g fill="#fec838" fill-opacity="1"><g transform="translate(171.873899, 59.397038)"><g><path d="M 8.984375 -16.234375 C 10.203125 -16.234375 11.304688 -16.039062 12.296875 -15.65625 C 13.296875 -15.28125 14.148438 -14.738281 14.859375 -14.03125 C 15.578125 -13.320312 16.132812 -12.457031 16.53125 -11.4375 C 16.925781 -10.425781 17.125 -9.289062 17.125 -8.03125 C 17.125 -6.757812 16.925781 -5.609375 16.53125 -4.578125 C 16.132812 -3.554688 15.578125 -2.6875 14.859375 -1.96875 C 14.148438 -1.257812 13.296875 -0.710938 12.296875 -0.328125 C 11.304688 0.0546875 10.203125 0.25 8.984375 0.25 C 7.765625 0.25 6.648438 0.0546875 5.640625 -0.328125 C 4.640625 -0.710938 3.773438 -1.257812 3.046875 -1.96875 C 2.328125 -2.6875 1.769531 -3.554688 1.375 -4.578125 C 0.976562 -5.609375 0.78125 -6.757812 0.78125 -8.03125 C 0.78125 -9.289062 0.976562 -10.425781 1.375 -11.4375 C 1.769531 -12.457031 2.328125 -13.320312 3.046875 -14.03125 C 3.773438 -14.738281 4.640625 -15.28125 5.640625 -15.65625 C 6.648438 -16.039062 7.765625 -16.234375 8.984375 -16.234375 Z M 8.984375 -3.296875 C 10.085938 -3.296875 10.894531 -3.679688 11.40625 -4.453125 C 11.925781 -5.234375 12.1875 -6.414062 12.1875 -8 C 12.1875 -9.582031 11.925781 -10.757812 11.40625 -11.53125 C 10.894531 -12.300781 10.085938 -12.6875 8.984375 -12.6875 C 7.859375 -12.6875 7.03125 -12.300781 6.5 -11.53125 C 5.976562 -10.757812 5.71875 -9.582031 5.71875 -8 C 5.71875 -6.414062 5.976562 -5.234375 6.5 -4.453125 C 7.03125 -3.679688 7.859375 -3.296875 8.984375 -3.296875 Z M 8.984375 -3.296875 "/></g></g></g><g fill="#fec838" fill-opacity="1"><g transform="translate(189.774999, 59.397038)"><g><path d="M 6.5 -15.984375 L 6.5 0 L 1.71875 0 L 1.71875 -15.984375 Z M 7 -20.359375 C 7 -19.984375 6.921875 -19.628906 6.765625 -19.296875 C 6.609375 -18.960938 6.394531 -18.664062 6.125 -18.40625 C 5.863281 -18.15625 5.554688 -17.957031 5.203125 -17.8125 C 4.847656 -17.664062 4.46875 -17.59375 4.0625 -17.59375 C 3.675781 -17.59375 3.3125 -17.664062 2.96875 -17.8125 C 2.632812 -17.957031 2.335938 -18.15625 2.078125 -18.40625 C 1.816406 -18.664062 1.609375 -18.960938 1.453125 -19.296875 C 1.304688 -19.628906 1.234375 -19.984375 1.234375 -20.359375 C 1.234375 -20.753906 1.304688 -21.117188 1.453125 -21.453125 C 1.609375 -21.796875 1.816406 -22.09375 2.078125 -22.34375 C 2.335938 -22.601562 2.632812 -22.804688 2.96875 -22.953125 C 3.3125 -23.097656 3.675781 -23.171875 4.0625 -23.171875 C 4.46875 -23.171875 4.847656 -23.097656 5.203125 -22.953125 C 5.554688 -22.804688 5.863281 -22.601562 6.125 -22.34375 C 6.394531 -22.09375 6.609375 -21.796875 6.765625 -21.453125 C 6.921875 -21.117188 7 -20.753906 7 -20.359375 Z M 7 -20.359375 "/></g></g></g><g fill="#fec838" fill-opacity="1"><g transform="translate(198.001499, 59.397038)"><g><path d="M 6.03125 -14.265625 C 6.332031 -14.546875 6.644531 -14.804688 6.96875 -15.046875 C 7.300781 -15.296875 7.65625 -15.503906 8.03125 -15.671875 C 8.40625 -15.847656 8.8125 -15.984375 9.25 -16.078125 C 9.6875 -16.179688 10.164062 -16.234375 10.6875 -16.234375 C 11.550781 -16.234375 12.320312 -16.082031 13 -15.78125 C 13.675781 -15.476562 14.242188 -15.054688 14.703125 -14.515625 C 15.171875 -13.972656 15.519531 -13.328125 15.75 -12.578125 C 15.988281 -11.835938 16.109375 -11.03125 16.109375 -10.15625 L 16.109375 0 L 11.328125 0 L 11.328125 -10.15625 C 11.328125 -10.9375 11.144531 -11.546875 10.78125 -11.984375 C 10.425781 -12.421875 9.898438 -12.640625 9.203125 -12.640625 C 8.679688 -12.640625 8.191406 -12.53125 7.734375 -12.3125 C 7.273438 -12.09375 6.828125 -11.789062 6.390625 -11.40625 L 6.390625 0 L 1.625 0 L 1.625 -15.984375 L 4.578125 -15.984375 C 5.171875 -15.984375 5.5625 -15.71875 5.75 -15.1875 Z M 6.03125 -14.265625 "/></g></g></g><g fill="#fec838" fill-opacity="1"><g transform="translate(215.574829, 59.397038)"><g/></g></g></svg>