<svg xmlns="http://www.w3.org/2000/svg" xmlns:xlink="http://www.w3.org/1999/xlink" width="320" zoomAndPan="magnify" viewBox="0 0 240 96.749999" height="129" preserveAspectRatio="xMidYMid meet" version="1.0"><defs><g/><clipPath id="17764b18fe"><path d="M 24.1875 3.414062 L 52 3.414062 L 52 49 L 24.1875 49 Z M 24.1875 3.414062 " clip-rule="nonzero"/></clipPath><clipPath id="12370513c7"><path d="M 24.1875 53 L 52 53 L 52 93.179688 L 24.1875 93.179688 Z M 24.1875 53 " clip-rule="nonzero"/></clipPath><clipPath id="6b6fdef0b3"><path d="M 24.1875 36 L 52 36 L 52 66 L 24.1875 66 Z M 24.1875 36 " clip-rule="nonzero"/></clipPath><clipPath id="b9798c09fa"><path d="M 51 3.414062 L 79.546875 3.414062 L 79.546875 49 L 51 49 Z M 51 3.414062 " clip-rule="nonzero"/></clipPath><clipPath id="5681a1962c"><path d="M 51 36 L 79.546875 36 L 79.546875 66 L 51 66 Z M 51 36 " clip-rule="nonzero"/></clipPath><clipPath id="514e0dcfc9"><path d="M 51 53 L 79.546875 53 L 79.546875 93.179688 L 51 93.179688 Z M 51 53 " clip-rule="nonzero"/></clipPath><clipPath id="c9b513912f"><path d="M 127 28 L 127.496094 28 L 127.496094 29 L 127 29 Z M 127 28 " clip-rule="nonzero"/></clipPath><clipPath id="c3340ff709"><rect x="0" width="128" y="0" height="36"/></clipPath></defs><g clip-path="url(#17764b18fe)"><path fill="#868dac" d="M 51.863281 3.460938 L 51.863281 36.035156 L 24.574219 48.820312 L 24.480469 48.765625 L 27.308594 44.089844 Z M 51.863281 3.460938 " fill-opacity="1" fill-rule="nonzero"/></g><g clip-path="url(#12370513c7)"><path fill="#868dac" d="M 51.863281 70.28125 L 51.863281 93.128906 L 24.1875 53.753906 Z M 51.863281 70.28125 " fill-opacity="1" fill-rule="nonzero"/></g><g clip-path="url(#6b6fdef0b3)"><path fill="#5f658b" d="M 51.863281 36.035156 L 51.863281 65.121094 L 27.890625 50.800781 L 24.574219 48.820312 Z M 51.863281 36.035156 " fill-opacity="1" fill-rule="nonzero"/></g><g clip-path="url(#b9798c09fa)"><path fill="#5f658b" d="M 79.25 48.765625 L 79.160156 48.820312 L 51.863281 36.035156 L 51.863281 3.460938 L 76.425781 44.089844 Z M 79.25 48.765625 " fill-opacity="1" fill-rule="nonzero"/></g><g clip-path="url(#5681a1962c)"><path fill="#434871" d="M 79.160156 48.820312 L 75.835938 50.800781 L 51.863281 65.121094 L 51.863281 36.035156 Z M 79.160156 48.820312 " fill-opacity="1" fill-rule="nonzero"/></g><g clip-path="url(#514e0dcfc9)"><path fill="#5f658b" d="M 79.542969 53.753906 L 51.871094 93.136719 L 51.863281 93.128906 L 51.863281 70.28125 Z M 79.542969 53.753906 " fill-opacity="1" fill-rule="nonzero"/></g><g transform="matrix(1, 0, 0, 1, 94, 30)"><g clip-path="url(#c3340ff709)"><g fill="#fec838" fill-opacity="1"><g transform="translate(0.932764, 28.363199)"><g><path d="M 6.9375 -17.25 L 6.9375 -12.359375 L 13.53125 -12.359375 L 13.53125 -8.75 L 6.9375 -8.75 L 6.9375 -3.75 L 15.546875 -3.75 L 15.546875 0 L 2.03125 0 L 2.03125 -21 L 15.546875 -21 L 15.546875 -17.25 Z M 6.9375 -17.25 "/></g></g></g><g fill="#fec838" fill-opacity="1"><g transform="translate(16.925466, 28.363199)"><g><path d="M 6.859375 0.234375 C 6.148438 0.234375 5.523438 0.128906 4.984375 -0.078125 C 4.441406 -0.285156 3.984375 -0.578125 3.609375 -0.953125 C 3.242188 -1.335938 2.960938 -1.796875 2.765625 -2.328125 C 2.578125 -2.867188 2.484375 -3.472656 2.484375 -4.140625 L 2.484375 -11.859375 L 1.203125 -11.859375 C 0.972656 -11.859375 0.773438 -11.929688 0.609375 -12.078125 C 0.453125 -12.234375 0.375 -12.453125 0.375 -12.734375 L 0.375 -14.484375 L 2.75 -14.953125 L 3.625 -18.59375 C 3.75 -19.050781 4.078125 -19.28125 4.609375 -19.28125 L 6.953125 -19.28125 L 6.953125 -14.921875 L 10.65625 -14.921875 L 10.65625 -11.859375 L 6.953125 -11.859375 L 6.953125 -4.4375 C 6.953125 -4.09375 7.035156 -3.804688 7.203125 -3.578125 C 7.367188 -3.359375 7.609375 -3.25 7.921875 -3.25 C 8.085938 -3.25 8.222656 -3.265625 8.328125 -3.296875 C 8.441406 -3.328125 8.539062 -3.363281 8.625 -3.40625 C 8.707031 -3.445312 8.785156 -3.484375 8.859375 -3.515625 C 8.929688 -3.554688 9.015625 -3.578125 9.109375 -3.578125 C 9.242188 -3.578125 9.351562 -3.546875 9.4375 -3.484375 C 9.519531 -3.421875 9.601562 -3.320312 9.6875 -3.1875 L 11.046875 -1.0625 C 10.460938 -0.632812 9.8125 -0.3125 9.09375 -0.09375 C 8.375 0.125 7.628906 0.234375 6.859375 0.234375 Z M 6.859375 0.234375 "/></g></g></g><g fill="#fec838" fill-opacity="1"><g transform="translate(27.990799, 28.363199)"><g><path d="M 5.984375 -13.640625 C 6.515625 -14.097656 7.09375 -14.46875 7.71875 -14.75 C 8.351562 -15.03125 9.109375 -15.171875 9.984375 -15.171875 C 10.804688 -15.171875 11.53125 -15.03125 12.15625 -14.75 C 12.789062 -14.46875 13.320312 -14.070312 13.75 -13.5625 C 14.1875 -13.0625 14.515625 -12.460938 14.734375 -11.765625 C 14.953125 -11.066406 15.0625 -10.3125 15.0625 -9.5 L 15.0625 0 L 10.59375 0 L 10.59375 -9.5 C 10.59375 -10.226562 10.421875 -10.796875 10.078125 -11.203125 C 9.742188 -11.609375 9.253906 -11.8125 8.609375 -11.8125 C 8.117188 -11.8125 7.660156 -11.707031 7.234375 -11.5 C 6.804688 -11.300781 6.390625 -11.023438 5.984375 -10.671875 L 5.984375 0 L 1.515625 0 L 1.515625 -21.578125 L 5.984375 -21.578125 Z M 5.984375 -13.640625 "/></g></g></g><g fill="#fec838" fill-opacity="1"><g transform="translate(44.415906, 28.363199)"><g><path d="M 10.8125 -9.265625 C 10.8125 -9.617188 10.765625 -9.960938 10.671875 -10.296875 C 10.578125 -10.640625 10.425781 -10.941406 10.21875 -11.203125 C 10.019531 -11.472656 9.75 -11.6875 9.40625 -11.84375 C 9.070312 -12.007812 8.664062 -12.09375 8.1875 -12.09375 C 7.34375 -12.09375 6.679688 -11.847656 6.203125 -11.359375 C 5.722656 -10.878906 5.40625 -10.179688 5.25 -9.265625 Z M 5.1875 -6.671875 C 5.332031 -5.421875 5.710938 -4.515625 6.328125 -3.953125 C 6.941406 -3.390625 7.734375 -3.109375 8.703125 -3.109375 C 9.222656 -3.109375 9.671875 -3.171875 10.046875 -3.296875 C 10.421875 -3.421875 10.753906 -3.5625 11.046875 -3.71875 C 11.335938 -3.875 11.601562 -4.015625 11.84375 -4.140625 C 12.09375 -4.265625 12.351562 -4.328125 12.625 -4.328125 C 12.976562 -4.328125 13.25 -4.195312 13.4375 -3.9375 L 14.734375 -2.328125 C 14.273438 -1.804688 13.773438 -1.378906 13.234375 -1.046875 C 12.703125 -0.710938 12.15625 -0.453125 11.59375 -0.265625 C 11.03125 -0.078125 10.46875 0.0507812 9.90625 0.125 C 9.34375 0.195312 8.804688 0.234375 8.296875 0.234375 C 7.253906 0.234375 6.273438 0.0625 5.359375 -0.28125 C 4.441406 -0.625 3.640625 -1.128906 2.953125 -1.796875 C 2.265625 -2.472656 1.71875 -3.3125 1.3125 -4.3125 C 0.914062 -5.3125 0.71875 -6.472656 0.71875 -7.796875 C 0.71875 -8.796875 0.890625 -9.742188 1.234375 -10.640625 C 1.578125 -11.535156 2.066406 -12.316406 2.703125 -12.984375 C 3.335938 -13.660156 4.109375 -14.191406 5.015625 -14.578125 C 5.929688 -14.972656 6.957031 -15.171875 8.09375 -15.171875 C 9.082031 -15.171875 9.988281 -15.015625 10.8125 -14.703125 C 11.632812 -14.398438 12.34375 -13.957031 12.9375 -13.375 C 13.53125 -12.789062 13.988281 -12.070312 14.3125 -11.21875 C 14.644531 -10.375 14.8125 -9.410156 14.8125 -8.328125 C 14.8125 -7.992188 14.796875 -7.71875 14.765625 -7.5 C 14.742188 -7.289062 14.691406 -7.125 14.609375 -7 C 14.535156 -6.875 14.429688 -6.785156 14.296875 -6.734375 C 14.171875 -6.691406 14.007812 -6.671875 13.8125 -6.671875 Z M 5.1875 -6.671875 "/></g></g></g><g fill="#fec838" fill-opacity="1"><g transform="translate(59.947716, 28.363199)"><g><path d="M 5.6875 -12.640625 C 6.15625 -13.453125 6.6875 -14.085938 7.28125 -14.546875 C 7.882812 -15.003906 8.578125 -15.234375 9.359375 -15.234375 C 10.023438 -15.234375 10.570312 -15.078125 11 -14.765625 L 10.703125 -11.46875 C 10.660156 -11.257812 10.582031 -11.113281 10.46875 -11.03125 C 10.363281 -10.957031 10.210938 -10.921875 10.015625 -10.921875 C 9.941406 -10.921875 9.84375 -10.925781 9.71875 -10.9375 C 9.59375 -10.945312 9.460938 -10.957031 9.328125 -10.96875 C 9.191406 -10.988281 9.050781 -11.003906 8.90625 -11.015625 C 8.769531 -11.035156 8.644531 -11.046875 8.53125 -11.046875 C 7.875 -11.046875 7.351562 -10.867188 6.96875 -10.515625 C 6.582031 -10.171875 6.253906 -9.691406 5.984375 -9.078125 L 5.984375 0 L 1.515625 0 L 1.515625 -14.953125 L 4.171875 -14.953125 C 4.390625 -14.953125 4.570312 -14.929688 4.71875 -14.890625 C 4.863281 -14.847656 4.988281 -14.785156 5.09375 -14.703125 C 5.195312 -14.628906 5.273438 -14.523438 5.328125 -14.390625 C 5.378906 -14.253906 5.425781 -14.085938 5.46875 -13.890625 Z M 5.6875 -12.640625 "/></g></g></g><g fill="#fec838" fill-opacity="1"><g transform="translate(70.681591, 28.363199)"><g><path d="M 10.8125 -9.265625 C 10.8125 -9.617188 10.765625 -9.960938 10.671875 -10.296875 C 10.578125 -10.640625 10.425781 -10.941406 10.21875 -11.203125 C 10.019531 -11.472656 9.75 -11.6875 9.40625 -11.84375 C 9.070312 -12.007812 8.664062 -12.09375 8.1875 -12.09375 C 7.34375 -12.09375 6.679688 -11.847656 6.203125 -11.359375 C 5.722656 -10.878906 5.40625 -10.179688 5.25 -9.265625 Z M 5.1875 -6.671875 C 5.332031 -5.421875 5.710938 -4.515625 6.328125 -3.953125 C 6.941406 -3.390625 7.734375 -3.109375 8.703125 -3.109375 C 9.222656 -3.109375 9.671875 -3.171875 10.046875 -3.296875 C 10.421875 -3.421875 10.753906 -3.5625 11.046875 -3.71875 C 11.335938 -3.875 11.601562 -4.015625 11.84375 -4.140625 C 12.09375 -4.265625 12.351562 -4.328125 12.625 -4.328125 C 12.976562 -4.328125 13.25 -4.195312 13.4375 -3.9375 L 14.734375 -2.328125 C 14.273438 -1.804688 13.773438 -1.378906 13.234375 -1.046875 C 12.703125 -0.710938 12.15625 -0.453125 11.59375 -0.265625 C 11.03125 -0.078125 10.46875 0.0507812 9.90625 0.125 C 9.34375 0.195312 8.804688 0.234375 8.296875 0.234375 C 7.253906 0.234375 6.273438 0.0625 5.359375 -0.28125 C 4.441406 -0.625 3.640625 -1.128906 2.953125 -1.796875 C 2.265625 -2.472656 1.71875 -3.3125 1.3125 -4.3125 C 0.914062 -5.3125 0.71875 -6.472656 0.71875 -7.796875 C 0.71875 -8.796875 0.890625 -9.742188 1.234375 -10.640625 C 1.578125 -11.535156 2.066406 -12.316406 2.703125 -12.984375 C 3.335938 -13.660156 4.109375 -14.191406 5.015625 -14.578125 C 5.929688 -14.972656 6.957031 -15.171875 8.09375 -15.171875 C 9.082031 -15.171875 9.988281 -15.015625 10.8125 -14.703125 C 11.632812 -14.398438 12.34375 -13.957031 12.9375 -13.375 C 13.53125 -12.789062 13.988281 -12.070312 14.3125 -11.21875 C 14.644531 -10.375 14.8125 -9.410156 14.8125 -8.328125 C 14.8125 -7.992188 14.796875 -7.71875 14.765625 -7.5 C 14.742188 -7.289062 14.691406 -7.125 14.609375 -7 C 14.535156 -6.875 14.429688 -6.785156 14.296875 -6.734375 C 14.171875 -6.691406 14.007812 -6.671875 13.8125 -6.671875 Z M 5.1875 -6.671875 "/></g></g></g><g fill="#fec838" fill-opacity="1"><g transform="translate(86.213401, 28.363199)"><g><path d="M 14.921875 -14.953125 L 14.921875 0 L 12.15625 0 C 11.59375 0 11.226562 -0.25 11.0625 -0.75 L 10.796875 -1.609375 C 10.503906 -1.335938 10.203125 -1.085938 9.890625 -0.859375 C 9.585938 -0.628906 9.257812 -0.4375 8.90625 -0.28125 C 8.5625 -0.125 8.179688 0 7.765625 0.09375 C 7.359375 0.1875 6.914062 0.234375 6.4375 0.234375 C 5.625 0.234375 4.898438 0.09375 4.265625 -0.1875 C 3.640625 -0.476562 3.109375 -0.875 2.671875 -1.375 C 2.242188 -1.882812 1.921875 -2.484375 1.703125 -3.171875 C 1.484375 -3.867188 1.375 -4.632812 1.375 -5.46875 L 1.375 -14.953125 L 5.84375 -14.953125 L 5.84375 -5.46875 C 5.84375 -4.726562 6.007812 -4.15625 6.34375 -3.75 C 6.675781 -3.34375 7.171875 -3.140625 7.828125 -3.140625 C 8.316406 -3.140625 8.773438 -3.242188 9.203125 -3.453125 C 9.628906 -3.660156 10.046875 -3.941406 10.453125 -4.296875 L 10.453125 -14.953125 Z M 14.921875 -14.953125 "/></g></g></g><g fill="#fec838" fill-opacity="1"><g transform="translate(102.638509, 28.363199)"><g><path d="M 1.515625 0 L 1.515625 -14.953125 L 4.28125 -14.953125 C 4.832031 -14.953125 5.195312 -14.703125 5.375 -14.203125 L 5.625 -13.390625 C 5.875 -13.648438 6.128906 -13.882812 6.390625 -14.09375 C 6.660156 -14.3125 6.953125 -14.5 7.265625 -14.65625 C 7.578125 -14.820312 7.914062 -14.945312 8.28125 -15.03125 C 8.644531 -15.125 9.039062 -15.171875 9.46875 -15.171875 C 10.375 -15.171875 11.117188 -14.9375 11.703125 -14.46875 C 12.296875 -14.007812 12.75 -13.390625 13.0625 -12.609375 C 13.3125 -13.066406 13.613281 -13.457031 13.96875 -13.78125 C 14.332031 -14.113281 14.722656 -14.378906 15.140625 -14.578125 C 15.554688 -14.785156 16 -14.9375 16.46875 -15.03125 C 16.9375 -15.125 17.398438 -15.171875 17.859375 -15.171875 C 18.710938 -15.171875 19.46875 -15.046875 20.125 -14.796875 C 20.789062 -14.546875 21.347656 -14.175781 21.796875 -13.6875 C 22.242188 -13.195312 22.582031 -12.597656 22.8125 -11.890625 C 23.039062 -11.191406 23.15625 -10.394531 23.15625 -9.5 L 23.15625 0 L 18.6875 0 L 18.6875 -9.5 C 18.6875 -11.039062 18.023438 -11.8125 16.703125 -11.8125 C 16.097656 -11.8125 15.59375 -11.613281 15.1875 -11.21875 C 14.789062 -10.820312 14.59375 -10.25 14.59375 -9.5 L 14.59375 0 L 10.140625 0 L 10.140625 -9.5 C 10.140625 -10.351562 9.96875 -10.953125 9.625 -11.296875 C 9.289062 -11.640625 8.796875 -11.8125 8.140625 -11.8125 C 7.734375 -11.8125 7.347656 -11.71875 6.984375 -11.53125 C 6.628906 -11.351562 6.296875 -11.113281 5.984375 -10.8125 L 5.984375 0 Z M 1.515625 0 "/></g></g></g><g clip-path="url(#c9b513912f)"><g fill="#fec838" fill-opacity="1"><g transform="translate(127.161744, 28.363199)"><g/></g></g></g></g></g></svg>