<svg xmlns="http://www.w3.org/2000/svg" xmlns:xlink="http://www.w3.org/1999/xlink" width="320" zoomAndPan="magnify" viewBox="0 0 240 96.749999" height="129" preserveAspectRatio="xMidYMid meet" version="1.0"><defs><g/><clipPath id="0d739fb39e"><path d="M 0.308594 43 L 239.691406 43 L 239.691406 89 L 0.308594 89 Z M 0.308594 43 " clip-rule="nonzero"/></clipPath><clipPath id="c0884db081"><path d="M 20.902344 47 L 47 47 L 47 72 L 20.902344 72 Z M 20.902344 47 " clip-rule="nonzero"/></clipPath><clipPath id="8cc26c1449"><path d="M 20.902344 15.78125 L 132.367188 15.78125 L 132.367188 54 L 20.902344 54 Z M 20.902344 15.78125 " clip-rule="nonzero"/></clipPath></defs><g clip-path="url(#0d739fb39e)"><path fill="#001f42" d="M 26.832031 43.039062 L 0.308594 88.980469 L 213.078125 88.980469 L 239.601562 43.039062 Z M 26.832031 43.039062 " fill-opacity="1" fill-rule="nonzero"/></g><g clip-path="url(#c0884db081)"><path fill="#fec838" d="M 46.394531 71.339844 L 20.980469 53.292969 L 37.117188 47.675781 Z M 46.394531 71.339844 " fill-opacity="1" fill-rule="evenodd"/></g><g clip-path="url(#8cc26c1449)"><path fill="#fec838" d="M 132.375 15.785156 C 132.375 15.785156 132.375 23.941406 132.375 32.644531 C 132.375 44.042969 123.136719 53.28125 111.742188 53.28125 C 79.539062 53.28125 20.984375 53.28125 20.984375 53.28125 L 20.984375 36.417969 C 20.984375 25.023438 30.222656 15.785156 41.617188 15.785156 Z M 132.375 15.785156 " fill-opacity="1" fill-rule="evenodd"/></g><g fill="#fec838" fill-opacity="1"><g transform="translate(52.973802, 85.032892)"><g><path d="M 26.6875 -27.953125 L 26.6875 0 L 21.46875 0 L 21.46875 -12.21875 L 8.328125 -12.21875 L 8.328125 0 L 3.109375 0 L 3.109375 -27.953125 L 8.328125 -27.953125 L 8.328125 -15.9375 L 21.46875 -15.9375 L 21.46875 -27.953125 Z M 26.6875 -27.953125 "/></g></g></g><g fill="#fec838" fill-opacity="1"><g transform="translate(82.765864, 85.032892)"><g><path d="M 17.890625 -10.5625 L 14.484375 -19.859375 C 14.316406 -20.273438 14.140625 -20.765625 13.953125 -21.328125 C 13.773438 -21.890625 13.597656 -22.503906 13.421875 -23.171875 C 13.253906 -22.503906 13.078125 -21.882812 12.890625 -21.3125 C 12.710938 -20.738281 12.539062 -20.238281 12.375 -19.8125 L 8.984375 -10.5625 Z M 27.078125 0 L 23.046875 0 C 22.597656 0 22.226562 -0.109375 21.9375 -0.328125 C 21.65625 -0.554688 21.445312 -0.835938 21.3125 -1.171875 L 19.21875 -6.890625 L 7.640625 -6.890625 L 5.546875 -1.171875 C 5.441406 -0.878906 5.238281 -0.609375 4.9375 -0.359375 C 4.644531 -0.117188 4.28125 0 3.84375 0 L -0.21875 0 L 10.796875 -27.953125 L 16.09375 -27.953125 Z M 27.078125 0 "/></g></g></g><g fill="#fec838" fill-opacity="1"><g transform="translate(109.619318, 85.032892)"><g><path d="M 27.078125 -27.953125 L 15.78125 0 L 11.078125 0 L -0.21875 -27.953125 L 3.96875 -27.953125 C 4.414062 -27.953125 4.78125 -27.84375 5.0625 -27.625 C 5.34375 -27.40625 5.554688 -27.125 5.703125 -26.78125 L 12.296875 -9.71875 C 12.515625 -9.164062 12.722656 -8.554688 12.921875 -7.890625 C 13.117188 -7.234375 13.3125 -6.539062 13.5 -5.8125 C 13.65625 -6.539062 13.820312 -7.234375 14 -7.890625 C 14.175781 -8.554688 14.375 -9.164062 14.59375 -9.71875 L 21.15625 -26.78125 C 21.257812 -27.070312 21.460938 -27.335938 21.765625 -27.578125 C 22.066406 -27.828125 22.4375 -27.953125 22.875 -27.953125 Z M 27.078125 -27.953125 "/></g></g></g><g fill="#fec838" fill-opacity="1"><g transform="translate(136.472771, 85.032892)"><g><path d="M 17.890625 -10.5625 L 14.484375 -19.859375 C 14.316406 -20.273438 14.140625 -20.765625 13.953125 -21.328125 C 13.773438 -21.890625 13.597656 -22.503906 13.421875 -23.171875 C 13.253906 -22.503906 13.078125 -21.882812 12.890625 -21.3125 C 12.710938 -20.738281 12.539062 -20.238281 12.375 -19.8125 L 8.984375 -10.5625 Z M 27.078125 0 L 23.046875 0 C 22.597656 0 22.226562 -0.109375 21.9375 -0.328125 C 21.65625 -0.554688 21.445312 -0.835938 21.3125 -1.171875 L 19.21875 -6.890625 L 7.640625 -6.890625 L 5.546875 -1.171875 C 5.441406 -0.878906 5.238281 -0.609375 4.9375 -0.359375 C 4.644531 -0.117188 4.28125 0 3.84375 0 L -0.21875 0 L 10.796875 -27.953125 L 16.09375 -27.953125 Z M 27.078125 0 "/></g></g></g><g fill="#fec838" fill-opacity="1"><g transform="translate(163.326225, 85.032892)"><g><path d="M 19.484375 -4.296875 L 19.484375 0 L 3.109375 0 L 3.109375 -27.953125 L 8.3125 -27.953125 L 8.3125 -4.296875 Z M 19.484375 -4.296875 "/></g></g></g><g fill="#fec838" fill-opacity="1"><g transform="translate(183.413152, 85.032892)"><g><path d="M 8.328125 -23.828125 L 8.328125 -16.0625 L 18.125 -16.0625 L 18.125 -12.0625 L 8.328125 -12.0625 L 8.328125 -4.15625 L 20.75 -4.15625 L 20.75 0 L 3.109375 0 L 3.109375 -27.953125 L 20.75 -27.953125 L 20.75 -23.828125 Z M 8.328125 -23.828125 "/></g></g></g><g fill="#001f42" fill-opacity="1"><g transform="translate(30.788941, 45.31335)"><g><path d="M 28.15625 -23.546875 L 28.15625 0 L 24.296875 0 L 24.296875 -15.21875 C 24.296875 -15.820312 24.332031 -16.476562 24.40625 -17.1875 L 17.28125 -3.8125 C 16.945312 -3.164062 16.429688 -2.84375 15.734375 -2.84375 L 15.109375 -2.84375 C 14.421875 -2.84375 13.90625 -3.164062 13.5625 -3.8125 L 6.375 -17.234375 C 6.40625 -16.878906 6.429688 -16.523438 6.453125 -16.171875 C 6.472656 -15.828125 6.484375 -15.507812 6.484375 -15.21875 L 6.484375 0 L 2.625 0 L 2.625 -23.546875 L 5.921875 -23.546875 C 6.117188 -23.546875 6.285156 -23.539062 6.421875 -23.53125 C 6.566406 -23.519531 6.695312 -23.492188 6.8125 -23.453125 C 6.925781 -23.410156 7.03125 -23.335938 7.125 -23.234375 C 7.21875 -23.140625 7.304688 -23.015625 7.390625 -22.859375 L 14.453125 -9.765625 C 14.628906 -9.421875 14.796875 -9.0625 14.953125 -8.6875 C 15.117188 -8.320312 15.273438 -7.945312 15.421875 -7.5625 C 15.578125 -7.957031 15.734375 -8.34375 15.890625 -8.71875 C 16.054688 -9.09375 16.234375 -9.457031 16.421875 -9.8125 L 23.375 -22.859375 C 23.457031 -23.015625 23.546875 -23.140625 23.640625 -23.234375 C 23.742188 -23.335938 23.851562 -23.410156 23.96875 -23.453125 C 24.082031 -23.492188 24.207031 -23.519531 24.34375 -23.53125 C 24.488281 -23.539062 24.660156 -23.546875 24.859375 -23.546875 Z M 28.15625 -23.546875 "/></g></g></g><g fill="#001f42" fill-opacity="1"><g transform="translate(61.562316, 45.31335)"><g><path d="M 10.28125 -11.71875 C 11.082031 -11.71875 11.78125 -11.816406 12.375 -12.015625 C 12.976562 -12.210938 13.476562 -12.5 13.875 -12.875 C 14.269531 -13.25 14.5625 -13.703125 14.75 -14.234375 C 14.945312 -14.773438 15.046875 -15.378906 15.046875 -16.046875 C 15.046875 -16.671875 14.945312 -17.238281 14.75 -17.75 C 14.5625 -18.257812 14.269531 -18.691406 13.875 -19.046875 C 13.488281 -19.410156 12.992188 -19.6875 12.390625 -19.875 C 11.796875 -20.070312 11.09375 -20.171875 10.28125 -20.171875 L 7 -20.171875 L 7 -11.71875 Z M 10.28125 -23.546875 C 11.851562 -23.546875 13.210938 -23.363281 14.359375 -23 C 15.515625 -22.632812 16.46875 -22.117188 17.21875 -21.453125 C 17.96875 -20.785156 18.523438 -19.988281 18.890625 -19.0625 C 19.253906 -18.144531 19.4375 -17.140625 19.4375 -16.046875 C 19.4375 -14.898438 19.242188 -13.851562 18.859375 -12.90625 C 18.484375 -11.957031 17.914062 -11.140625 17.15625 -10.453125 C 16.394531 -9.773438 15.441406 -9.242188 14.296875 -8.859375 C 13.148438 -8.484375 11.8125 -8.296875 10.28125 -8.296875 L 7 -8.296875 L 7 0 L 2.625 0 L 2.625 -23.546875 Z M 10.28125 -23.546875 "/></g></g></g><g fill="#001f42" fill-opacity="1"><g transform="translate(81.719693, 45.31335)"><g><path d="M 15.0625 -8.890625 L 12.203125 -16.734375 C 12.054688 -17.078125 11.90625 -17.488281 11.75 -17.96875 C 11.601562 -18.445312 11.453125 -18.960938 11.296875 -19.515625 C 11.160156 -18.960938 11.015625 -18.441406 10.859375 -17.953125 C 10.710938 -17.472656 10.566406 -17.054688 10.421875 -16.703125 L 7.578125 -8.890625 Z M 22.796875 0 L 19.421875 0 C 19.035156 0 18.722656 -0.09375 18.484375 -0.28125 C 18.242188 -0.46875 18.066406 -0.707031 17.953125 -1 L 16.1875 -5.796875 L 6.4375 -5.796875 L 4.671875 -1 C 4.585938 -0.75 4.421875 -0.519531 4.171875 -0.3125 C 3.921875 -0.101562 3.609375 0 3.234375 0 L -0.171875 0 L 9.09375 -23.546875 L 13.546875 -23.546875 Z M 22.796875 0 "/></g></g></g><g fill="#001f42" fill-opacity="1"><g transform="translate(104.335683, 45.31335)"><g><path d="M 12.734375 -9.125 L 12.734375 0 L 8.375 0 L 8.375 -9.125 L -0.21875 -23.546875 L 3.65625 -23.546875 C 4.03125 -23.546875 4.328125 -23.453125 4.546875 -23.265625 C 4.773438 -23.085938 4.960938 -22.859375 5.109375 -22.578125 L 9.421875 -14.703125 C 9.671875 -14.242188 9.890625 -13.804688 10.078125 -13.390625 C 10.265625 -12.972656 10.4375 -12.5625 10.59375 -12.15625 C 10.726562 -12.5625 10.890625 -12.972656 11.078125 -13.390625 C 11.265625 -13.804688 11.476562 -14.242188 11.71875 -14.703125 L 16 -22.578125 C 16.113281 -22.816406 16.289062 -23.035156 16.53125 -23.234375 C 16.769531 -23.441406 17.078125 -23.546875 17.453125 -23.546875 L 21.328125 -23.546875 Z M 12.734375 -9.125 "/></g></g></g></svg>