<svg xmlns="http://www.w3.org/2000/svg" xmlns:xlink="http://www.w3.org/1999/xlink" width="320" zoomAndPan="magnify" viewBox="0 0 240 96.749999" height="129" preserveAspectRatio="xMidYMid meet" version="1.0"><defs><clipPath id="64b8313973"><path d="M 0.625 47 L 239.691406 47 L 239.691406 94.210938 L 0.625 94.210938 Z M 0.625 47 " clip-rule="nonzero"/></clipPath><clipPath id="73a68e8f68"><path d="M 26.972656 41.398438 L 58.765625 41.398438 L 58.765625 47.570312 L 26.972656 47.570312 Z M 26.972656 41.398438 " clip-rule="nonzero"/></clipPath><clipPath id="eabe9bdb68"><path d="M 26.972656 2.3125 L 164.960938 2.3125 L 164.960938 47.570312 L 26.972656 47.570312 Z M 26.972656 2.3125 " clip-rule="nonzero"/></clipPath></defs><g clip-path="url(#64b8313973)"><path fill="#fec838" d="M 27.824219 47.042969 L 0.625 94.15625 L 218.824219 94.15625 L 246.027344 47.042969 Z M 27.824219 47.042969 " fill-opacity="1" fill-rule="nonzero"/></g><g clip-path="url(#73a68e8f68)"><path fill="#001f42" d="M 58.507812 71.25 L 26.972656 48.855469 L 46.996094 41.882812 Z M 58.507812 71.25 " fill-opacity="1" fill-rule="evenodd"/></g><g clip-path="url(#eabe9bdb68)"><path fill="#001f42" d="M 165.195312 2.3125 C 165.195312 2.3125 165.195312 12.433594 165.195312 23.234375 C 165.195312 37.375 153.734375 48.839844 139.59375 48.839844 C 99.632812 48.839844 26.972656 48.839844 26.972656 48.839844 L 26.972656 27.914062 C 26.972656 13.777344 38.4375 2.3125 52.574219 2.3125 Z M 165.195312 2.3125 " fill-opacity="1" fill-rule="evenodd"/></g><path fill="#fec838" d="M 74.023438 11.167969 L 74.023438 38.277344 L 69.582031 38.277344 L 69.582031 20.765625 C 69.582031 20.070312 69.621094 19.320312 69.695312 18.503906 L 61.492188 33.890625 C 61.105469 34.625 60.515625 34.996094 59.710938 34.996094 L 59.007812 34.996094 C 58.207031 34.996094 57.613281 34.625 57.230469 33.890625 L 48.929688 18.441406 C 48.96875 18.859375 49 19.269531 49.023438 19.675781 C 49.058594 20.070312 49.074219 20.4375 49.074219 20.765625 L 49.074219 38.277344 L 44.617188 38.277344 L 44.617188 11.167969 L 48.433594 11.167969 C 48.65625 11.167969 48.847656 11.179688 49.007812 11.199219 C 49.167969 11.210938 49.3125 11.242188 49.441406 11.296875 C 49.578125 11.339844 49.703125 11.417969 49.808594 11.535156 C 49.914062 11.644531 50.019531 11.789062 50.113281 11.96875 L 58.238281 27.03125 C 58.449219 27.425781 58.648438 27.839844 58.832031 28.265625 C 59.011719 28.691406 59.1875 29.128906 59.359375 29.578125 C 59.527344 29.121094 59.703125 28.675781 59.890625 28.25 C 60.082031 27.8125 60.28125 27.394531 60.496094 27 L 68.511719 11.96875 C 68.605469 11.789062 68.707031 11.644531 68.8125 11.535156 C 68.929688 11.417969 69.054688 11.339844 69.183594 11.296875 C 69.320312 11.242188 69.472656 11.210938 69.632812 11.199219 C 69.792969 11.179688 69.984375 11.167969 70.207031 11.167969 Z M 74.023438 11.167969 " fill-opacity="1" fill-rule="nonzero"/><path fill="#fec838" d="M 88.851562 24.804688 C 89.78125 24.804688 90.585938 24.6875 91.273438 24.449219 C 91.964844 24.21875 92.539062 23.886719 92.988281 23.457031 C 93.445312 23.03125 93.789062 22.507812 94.011719 21.886719 C 94.238281 21.269531 94.347656 20.582031 94.347656 19.820312 C 94.347656 19.09375 94.238281 18.4375 94.011719 17.847656 C 93.789062 17.265625 93.453125 16.757812 93.003906 16.34375 C 92.554688 15.925781 91.980469 15.613281 91.289062 15.398438 C 90.605469 15.183594 89.789062 15.078125 88.851562 15.078125 L 85.085938 15.078125 L 85.085938 24.804688 Z M 88.851562 11.167969 C 90.667969 11.167969 92.238281 11.382812 93.5625 11.808594 C 94.886719 12.238281 95.976562 12.828125 96.832031 13.585938 C 97.699219 14.347656 98.339844 15.261719 98.753906 16.328125 C 99.179688 17.382812 99.398438 18.550781 99.398438 19.820312 C 99.398438 21.125 99.175781 22.328125 98.738281 23.425781 C 98.300781 24.515625 97.640625 25.457031 96.769531 26.246094 C 95.890625 27.039062 94.789062 27.652344 93.46875 28.089844 C 92.152344 28.515625 90.617188 28.730469 88.851562 28.730469 L 85.085938 28.730469 L 85.085938 38.277344 L 80.039062 38.277344 L 80.039062 11.167969 Z M 88.851562 11.167969 " fill-opacity="1" fill-rule="nonzero"/><path fill="#fec838" d="M 117.566406 28.039062 L 114.265625 19.019531 C 114.105469 18.625 113.933594 18.152344 113.753906 17.609375 C 113.582031 17.054688 113.410156 16.453125 113.242188 15.8125 C 113.082031 16.453125 112.910156 17.054688 112.726562 17.609375 C 112.554688 18.164062 112.390625 18.648438 112.230469 19.066406 L 108.945312 28.039062 Z M 126.476562 38.277344 L 122.582031 38.277344 C 122.140625 38.277344 121.785156 38.175781 121.507812 37.957031 C 121.230469 37.734375 121.019531 37.460938 120.882812 37.140625 L 118.867188 31.597656 L 107.632812 31.597656 L 105.613281 37.140625 C 105.503906 37.429688 105.308594 37.695312 105.019531 37.925781 C 104.742188 38.164062 104.386719 38.277344 103.964844 38.277344 L 100.019531 38.277344 L 110.691406 11.167969 L 115.820312 11.167969 Z M 126.476562 38.277344 " fill-opacity="1" fill-rule="nonzero"/><path fill="#fec838" d="M 140.921875 27.785156 L 140.921875 38.277344 L 135.890625 38.277344 L 135.890625 27.785156 L 126.019531 11.167969 L 130.460938 11.167969 C 130.898438 11.167969 131.246094 11.273438 131.5 11.488281 C 131.757812 11.703125 131.96875 11.96875 132.140625 12.289062 L 137.09375 21.34375 C 137.382812 21.886719 137.628906 22.398438 137.847656 22.878906 C 138.070312 23.351562 138.265625 23.820312 138.441406 24.289062 C 138.609375 23.820312 138.796875 23.351562 139 22.878906 C 139.214844 22.398438 139.457031 21.886719 139.738281 21.34375 L 144.671875 12.289062 C 144.808594 12.023438 145.011719 11.773438 145.28125 11.535156 C 145.558594 11.292969 145.910156 11.167969 146.339844 11.167969 L 150.808594 11.167969 Z M 140.921875 27.785156 " fill-opacity="1" fill-rule="nonzero"/><path fill="#001f42" d="M 26.804688 61.769531 L 25.894531 69.125 L 34.097656 69.125 L 33.632812 72.585938 L 25.460938 72.585938 L 24.242188 82.472656 L 19.882812 82.472656 L 22.863281 58.328125 L 36.949219 58.328125 L 36.515625 61.769531 Z M 26.804688 61.769531 " fill-opacity="1" fill-rule="nonzero"/><path fill="#001f42" d="M 50.5625 73.390625 L 48.929688 65.121094 C 48.867188 64.734375 48.785156 64.300781 48.6875 63.804688 C 48.601562 63.304688 48.515625 62.757812 48.433594 62.15625 C 48.207031 62.757812 47.988281 63.304688 47.777344 63.804688 C 47.558594 64.300781 47.375 64.742188 47.214844 65.136719 L 43.546875 73.390625 Z M 56.863281 82.472656 L 53.511719 82.472656 C 53.128906 82.472656 52.832031 82.386719 52.632812 82.203125 C 52.425781 82.023438 52.277344 81.78125 52.183594 81.480469 L 51.1875 76.449219 L 42.183594 76.449219 L 39.941406 81.480469 C 39.820312 81.738281 39.625 81.96875 39.347656 82.167969 C 39.078125 82.375 38.761719 82.472656 38.402344 82.472656 L 35.003906 82.472656 L 46.671875 58.328125 L 51.109375 58.328125 Z M 56.863281 82.472656 " fill-opacity="1" fill-rule="nonzero"/><path fill="#001f42" d="M 73.761719 62.667969 C 73.601562 62.886719 73.445312 63.046875 73.296875 63.148438 C 73.144531 63.257812 72.960938 63.308594 72.734375 63.308594 C 72.519531 63.308594 72.296875 63.226562 72.0625 63.054688 C 71.828125 62.875 71.542969 62.675781 71.214844 62.460938 C 70.894531 62.234375 70.507812 62.039062 70.058594 61.867188 C 69.621094 61.6875 69.089844 61.59375 68.472656 61.59375 C 67.863281 61.59375 67.324219 61.6875 66.855469 61.867188 C 66.394531 62.039062 66.007812 62.285156 65.683594 62.605469 C 65.363281 62.917969 65.125 63.285156 64.964844 63.710938 C 64.804688 64.128906 64.722656 64.582031 64.722656 65.074219 C 64.722656 65.585938 64.851562 66.015625 65.109375 66.355469 C 65.375 66.6875 65.71875 66.980469 66.132812 67.234375 C 66.558594 67.492188 67.046875 67.722656 67.59375 67.925781 C 68.136719 68.128906 68.691406 68.339844 69.257812 68.566406 C 69.824219 68.78125 70.378906 69.039062 70.925781 69.335938 C 71.46875 69.625 71.949219 69.984375 72.367188 70.410156 C 72.792969 70.824219 73.136719 71.332031 73.394531 71.929688 C 73.65625 72.519531 73.792969 73.242188 73.792969 74.09375 C 73.792969 75.273438 73.585938 76.382812 73.167969 77.425781 C 72.761719 78.476562 72.179688 79.394531 71.421875 80.183594 C 70.660156 80.964844 69.738281 81.589844 68.648438 82.058594 C 67.558594 82.515625 66.34375 82.746094 64.996094 82.746094 C 64.292969 82.746094 63.59375 82.671875 62.914062 82.523438 C 62.242188 82.375 61.597656 82.160156 60.992188 81.882812 C 60.390625 81.59375 59.835938 81.257812 59.324219 80.871094 C 58.8125 80.480469 58.367188 80.046875 57.992188 79.574219 L 59.53125 77.492188 C 59.648438 77.34375 59.804688 77.21875 59.996094 77.121094 C 60.1875 77.019531 60.375 76.960938 60.558594 76.960938 C 60.738281 76.960938 60.914062 77.023438 61.085938 77.136719 C 61.253906 77.246094 61.441406 77.378906 61.648438 77.539062 C 61.859375 77.699219 62.085938 77.882812 62.320312 78.082031 C 62.566406 78.277344 62.835938 78.453125 63.136719 78.613281 C 63.445312 78.773438 63.796875 78.914062 64.195312 79.027344 C 64.589844 79.136719 65.035156 79.1875 65.542969 79.1875 C 66.8125 79.1875 67.800781 78.832031 68.503906 78.117188 C 69.21875 77.402344 69.578125 76.414062 69.578125 75.152344 C 69.578125 74.597656 69.449219 74.140625 69.195312 73.789062 C 68.9375 73.4375 68.59375 73.140625 68.167969 72.890625 C 67.753906 72.648438 67.273438 72.433594 66.726562 72.25 C 66.191406 72.058594 65.644531 71.863281 65.09375 71.65625 C 64.535156 71.457031 63.988281 71.222656 63.441406 70.953125 C 62.90625 70.675781 62.425781 70.324219 62 69.894531 C 61.570312 69.457031 61.230469 68.929688 60.972656 68.308594 C 60.726562 67.691406 60.605469 66.921875 60.605469 66 C 60.605469 64.96875 60.789062 63.976562 61.167969 63.019531 C 61.550781 62.058594 62.101562 61.21875 62.816406 60.488281 C 63.542969 59.753906 64.410156 59.167969 65.429688 58.726562 C 66.453125 58.289062 67.609375 58.070312 68.890625 58.070312 C 69.539062 58.070312 70.171875 58.140625 70.78125 58.277344 C 71.390625 58.40625 71.953125 58.59375 72.480469 58.839844 C 73 59.085938 73.480469 59.378906 73.921875 59.71875 C 74.359375 60.054688 74.738281 60.425781 75.058594 60.84375 Z M 73.761719 62.667969 " fill-opacity="1" fill-rule="nonzero"/><path fill="#001f42" d="M 94.597656 61.882812 L 87.996094 61.882812 L 85.464844 82.472656 L 81.15625 82.472656 L 83.652344 61.882812 L 77.035156 61.882812 L 77.46875 58.328125 L 95.046875 58.328125 Z M 94.597656 61.882812 " fill-opacity="1" fill-rule="nonzero"/><path fill="#001f42" d="M 124.328125 58.328125 L 121.347656 82.472656 L 116.972656 82.472656 L 118.300781 71.867188 L 108.125 71.867188 L 106.8125 82.472656 L 102.453125 82.472656 L 105.433594 58.328125 L 109.792969 58.328125 L 108.511719 68.789062 L 118.65625 68.789062 L 119.96875 58.328125 Z M 124.328125 58.328125 " fill-opacity="1" fill-rule="nonzero"/><path fill="#001f42" d="M 139.363281 73.390625 L 137.730469 65.121094 C 137.664062 64.734375 137.585938 64.300781 137.488281 63.804688 C 137.398438 63.304688 137.316406 62.757812 137.230469 62.15625 C 137.007812 62.757812 136.789062 63.304688 136.574219 63.804688 C 136.359375 64.300781 136.175781 64.742188 136.015625 65.136719 L 132.34375 73.390625 Z M 145.660156 82.472656 L 142.3125 82.472656 C 141.925781 82.472656 141.628906 82.386719 141.429688 82.203125 C 141.226562 82.023438 141.078125 81.78125 140.980469 81.480469 L 139.988281 76.449219 L 130.984375 76.449219 L 128.738281 81.480469 C 128.617188 81.738281 128.421875 81.96875 128.144531 82.167969 C 127.878906 82.375 127.5625 82.472656 127.199219 82.472656 L 123.804688 82.472656 L 135.46875 58.328125 L 139.90625 58.328125 Z M 145.660156 82.472656 " fill-opacity="1" fill-rule="nonzero"/><path fill="#001f42" d="M 170.332031 58.328125 L 158.378906 82.472656 L 154.453125 82.472656 L 148.445312 58.328125 L 151.9375 58.328125 C 152.308594 58.328125 152.601562 58.417969 152.816406 58.597656 C 153.042969 58.78125 153.179688 59.015625 153.234375 59.304688 L 156.488281 74.351562 C 156.605469 74.824219 156.710938 75.335938 156.808594 75.886719 C 156.910156 76.433594 157.003906 77.011719 157.082031 77.617188 C 157.273438 77.011719 157.472656 76.433594 157.6875 75.886719 C 157.914062 75.335938 158.140625 74.824219 158.378906 74.351562 L 165.269531 59.304688 C 165.371094 59.058594 165.566406 58.835938 165.84375 58.628906 C 166.132812 58.429688 166.457031 58.328125 166.824219 58.328125 Z M 170.332031 58.328125 " fill-opacity="1" fill-rule="nonzero"/><path fill="#001f42" d="M 182.742188 73.390625 L 181.109375 65.121094 C 181.046875 64.734375 180.964844 64.300781 180.871094 63.804688 C 180.78125 63.304688 180.695312 62.757812 180.613281 62.15625 C 180.386719 62.757812 180.167969 63.304688 179.957031 63.804688 C 179.738281 64.300781 179.554688 64.742188 179.394531 65.136719 L 175.726562 73.390625 Z M 189.042969 82.472656 L 185.691406 82.472656 C 185.308594 82.472656 185.011719 82.386719 184.8125 82.203125 C 184.605469 82.023438 184.457031 81.78125 184.363281 81.480469 L 183.367188 76.449219 L 174.363281 76.449219 L 172.121094 81.480469 C 172 81.738281 171.804688 81.96875 171.527344 82.167969 C 171.257812 82.375 170.941406 82.472656 170.582031 82.472656 L 167.183594 82.472656 L 178.851562 58.328125 L 183.289062 58.328125 Z M 189.042969 82.472656 " fill-opacity="1" fill-rule="nonzero"/><path fill="#001f42" d="M 205.058594 78.886719 L 204.644531 82.472656 L 191.503906 82.472656 L 194.484375 58.328125 L 198.8125 58.328125 L 196.261719 78.886719 Z M 205.058594 78.886719 " fill-opacity="1" fill-rule="nonzero"/><path fill="#001f42" d="M 214.554688 61.769531 L 213.707031 68.644531 L 221.335938 68.644531 L 220.917969 71.960938 L 213.289062 71.960938 L 212.410156 79.011719 L 222.167969 79.011719 L 221.734375 82.472656 L 207.632812 82.472656 L 210.613281 58.328125 L 224.699219 58.328125 L 224.265625 61.769531 Z M 214.554688 61.769531 " fill-opacity="1" fill-rule="nonzero"/></svg>