<svg xmlns="http://www.w3.org/2000/svg" xmlns:xlink="http://www.w3.org/1999/xlink" width="320" zoomAndPan="magnify" viewBox="0 0 240 96.749999" height="129" preserveAspectRatio="xMidYMid meet" version="1.0"><defs><g/><clipPath id="3228282115"><path d="M 11.855469 40 L 29 40 L 29 65.636719 L 11.855469 65.636719 Z M 11.855469 40 " clip-rule="nonzero"/></clipPath><clipPath id="29c0df5797"><path d="M 11.855469 5 L 151 5 L 151 52 L 11.855469 52 Z M 11.855469 5 " clip-rule="nonzero"/></clipPath><clipPath id="43b61c86eb"><path d="M 131 1.300781 L 154.738281 1.300781 L 154.738281 24 L 131 24 Z M 131 1.300781 " clip-rule="nonzero"/></clipPath></defs><g clip-path="url(#3228282115)"><path fill="#fec838" d="M 11.976562 51.066406 L 28.128906 40.378906 L 28.128906 65.53125 Z M 11.976562 51.066406 " fill-opacity="1" fill-rule="nonzero"/></g><g clip-path="url(#29c0df5797)"><path fill="#001f42" d="M 11.976562 51.066406 L 11.976562 17.359375 L 150.816406 5.421875 L 150.816406 39.128906 Z M 11.976562 51.066406 " fill-opacity="1" fill-rule="nonzero"/></g><g clip-path="url(#43b61c86eb)"><path fill="#001f42" d="M 131.667969 3.390625 L 131.667969 4.707031 L 153.335938 2.84375 L 153.335938 23.179688 L 154.90625 23.179688 L 154.90625 1.296875 Z M 131.667969 3.390625 " fill-opacity="1" fill-rule="nonzero"/></g><g fill="#fec838" fill-opacity="1"><g transform="translate(41.945253, 44.549991)"><g><path d="M 12.828125 -10.046875 L 13.5625 -1.09375 L 8.09375 -0.65625 L 7.359375 -9.609375 L -2.34375 -23.515625 L 2.46875 -23.90625 C 2.945312 -23.9375 3.332031 -23.851562 3.625 -23.65625 C 3.914062 -23.46875 4.171875 -23.207031 4.390625 -22.875 L 8.25 -16.28125 C 8.582031 -15.78125 8.878906 -15.300781 9.140625 -14.84375 C 9.410156 -14.382812 9.648438 -13.941406 9.859375 -13.515625 C 9.984375 -13.984375 10.128906 -14.460938 10.296875 -14.953125 C 10.472656 -15.441406 10.675781 -15.957031 10.90625 -16.5 L 13.65625 -23.625 C 13.726562 -23.769531 13.804688 -23.914062 13.890625 -24.0625 C 13.984375 -24.21875 14.097656 -24.359375 14.234375 -24.484375 C 14.378906 -24.609375 14.539062 -24.710938 14.71875 -24.796875 C 14.90625 -24.878906 15.113281 -24.929688 15.34375 -24.953125 L 20.1875 -25.34375 Z M 12.828125 -10.046875 "/></g></g></g><g fill="#fec838" fill-opacity="1"><g transform="translate(63.605828, 42.790921)"><g><path d="M 6.1875 -19.96875 L 6.640625 -14.484375 L 14.0625 -15.09375 L 14.390625 -11.046875 L 6.96875 -10.4375 L 7.421875 -4.828125 L 17.09375 -5.625 L 17.4375 -1.421875 L 2.28125 -0.1875 L 0.375 -23.734375 L 15.53125 -24.96875 L 15.859375 -20.765625 Z M 6.1875 -19.96875 "/></g></g></g><g fill="#fec838" fill-opacity="1"><g transform="translate(82.130465, 41.286523)"><g><path d="M 20.9375 -25.40625 L 22.84375 -1.859375 L 20 -1.625 C 19.582031 -1.59375 19.222656 -1.628906 18.921875 -1.734375 C 18.628906 -1.847656 18.328125 -2.0625 18.015625 -2.375 L 5.765625 -15.515625 C 5.859375 -15.109375 5.925781 -14.707031 5.96875 -14.3125 C 6.007812 -13.914062 6.039062 -13.546875 6.0625 -13.203125 L 7.09375 -0.578125 L 2.28125 -0.1875 L 0.375 -23.734375 L 3.25 -23.96875 C 3.488281 -23.988281 3.6875 -23.992188 3.84375 -23.984375 C 4.007812 -23.972656 4.160156 -23.941406 4.296875 -23.890625 C 4.429688 -23.847656 4.5625 -23.773438 4.6875 -23.671875 C 4.820312 -23.578125 4.96875 -23.441406 5.125 -23.265625 L 17.46875 -10.03125 C 17.382812 -10.488281 17.3125 -10.929688 17.25 -11.359375 C 17.1875 -11.785156 17.140625 -12.1875 17.109375 -12.5625 L 16.109375 -25.015625 Z M 20.9375 -25.40625 "/></g></g></g><g fill="#fec838" fill-opacity="1"><g transform="translate(107.25026, 39.246528)"><g><path d="M 7.765625 -0.625 L 2.28125 -0.1875 L 0.375 -23.734375 L 5.859375 -24.171875 Z M 5.734375 -28.125 C 5.765625 -27.75 5.710938 -27.390625 5.578125 -27.046875 C 5.453125 -26.710938 5.269531 -26.410156 5.03125 -26.140625 C 4.789062 -25.867188 4.492188 -25.640625 4.140625 -25.453125 C 3.785156 -25.273438 3.410156 -25.171875 3.015625 -25.140625 C 2.640625 -25.109375 2.273438 -25.15625 1.921875 -25.28125 C 1.566406 -25.40625 1.25 -25.582031 0.96875 -25.8125 C 0.6875 -26.039062 0.457031 -26.3125 0.28125 -26.625 C 0.113281 -26.9375 0.015625 -27.28125 -0.015625 -27.65625 C -0.046875 -28.039062 -0.00390625 -28.410156 0.109375 -28.765625 C 0.234375 -29.117188 0.414062 -29.4375 0.65625 -29.71875 C 0.894531 -30 1.179688 -30.226562 1.515625 -30.40625 C 1.847656 -30.582031 2.203125 -30.6875 2.578125 -30.71875 C 2.972656 -30.75 3.359375 -30.703125 3.734375 -30.578125 C 4.109375 -30.460938 4.4375 -30.285156 4.71875 -30.046875 C 5 -29.804688 5.226562 -29.519531 5.40625 -29.1875 C 5.59375 -28.863281 5.703125 -28.507812 5.734375 -28.125 Z M 5.734375 -28.125 "/></g></g></g><g fill="#fec838" fill-opacity="1"><g transform="translate(117.310349, 38.429541)"><g/></g></g><g fill="#fec838" fill-opacity="1"><g transform="translate(29.915058, 90.871526)"><g><path d="M 25.15625 -30.234375 L 27.296875 -2.078125 L 20.734375 -1.578125 L 19.828125 -13.484375 L 8.375 -12.609375 L 9.28125 -0.703125 L 2.71875 -0.203125 L 0.578125 -28.359375 L 7.140625 -28.859375 L 8.03125 -17.09375 L 19.484375 -17.96875 L 18.59375 -29.734375 Z M 25.15625 -30.234375 "/></g></g></g><g fill="#fec838" fill-opacity="1"><g transform="translate(59.934774, 88.582579)"><g><path d="M 16.78125 -12.109375 L 13.578125 -19.609375 C 13.347656 -20.085938 13.097656 -20.644531 12.828125 -21.28125 C 12.554688 -21.925781 12.28125 -22.632812 12 -23.40625 C 11.882812 -22.601562 11.738281 -21.851562 11.5625 -21.15625 C 11.394531 -20.46875 11.234375 -19.878906 11.078125 -19.390625 L 9.0625 -11.515625 Z M 27.984375 -2.140625 L 22.921875 -1.75 C 22.347656 -1.707031 21.875 -1.804688 21.5 -2.046875 C 21.132812 -2.285156 20.847656 -2.601562 20.640625 -3 L 18.59375 -7.765625 L 7.890625 -6.953125 L 6.625 -1.9375 C 6.507812 -1.5625 6.273438 -1.210938 5.921875 -0.890625 C 5.578125 -0.566406 5.132812 -0.382812 4.59375 -0.34375 L -0.5 0.03125 L 8.25 -28.953125 L 14.9375 -29.453125 Z M 27.984375 -2.140625 "/></g></g></g><g fill="#fec838" fill-opacity="1"><g transform="translate(85.047649, 86.667769)"><g><path d="M 25.84375 -30.296875 L 16.6875 -1.265625 L 10.78125 -0.828125 L -2.640625 -28.125 L 2.609375 -28.515625 C 3.179688 -28.554688 3.648438 -28.457031 4.015625 -28.21875 C 4.390625 -27.976562 4.679688 -27.660156 4.890625 -27.265625 L 11.484375 -12.609375 C 11.785156 -11.972656 12.085938 -11.273438 12.390625 -10.515625 C 12.691406 -9.753906 12.984375 -8.957031 13.265625 -8.125 C 13.378906 -8.988281 13.519531 -9.816406 13.6875 -10.609375 C 13.851562 -11.410156 14.039062 -12.148438 14.25 -12.828125 L 18.515625 -28.296875 C 18.628906 -28.671875 18.859375 -29.019531 19.203125 -29.34375 C 19.554688 -29.664062 20.003906 -29.847656 20.546875 -29.890625 Z M 25.84375 -30.296875 "/></g></g></g><g fill="#fec838" fill-opacity="1"><g transform="translate(110.160525, 84.752959)"><g><path d="M 16.78125 -12.109375 L 13.578125 -19.609375 C 13.347656 -20.085938 13.097656 -20.644531 12.828125 -21.28125 C 12.554688 -21.925781 12.28125 -22.632812 12 -23.40625 C 11.882812 -22.601562 11.738281 -21.851562 11.5625 -21.15625 C 11.394531 -20.46875 11.234375 -19.878906 11.078125 -19.390625 L 9.0625 -11.515625 Z M 27.984375 -2.140625 L 22.921875 -1.75 C 22.347656 -1.707031 21.875 -1.804688 21.5 -2.046875 C 21.132812 -2.285156 20.847656 -2.601562 20.640625 -3 L 18.59375 -7.765625 L 7.890625 -6.953125 L 6.625 -1.9375 C 6.507812 -1.5625 6.273438 -1.210938 5.921875 -0.890625 C 5.578125 -0.566406 5.132812 -0.382812 4.59375 -0.34375 L -0.5 0.03125 L 8.25 -28.953125 L 14.9375 -29.453125 Z M 27.984375 -2.140625 "/></g></g></g><g fill="#fec838" fill-opacity="1"><g transform="translate(137.630305, 82.65844)"><g><path d="M 19.296875 -6.71875 L 19.6875 -1.5 L 2.71875 -0.203125 L 0.578125 -28.359375 L 7.109375 -28.859375 L 8.859375 -5.921875 Z M 19.296875 -6.71875 "/></g></g></g><g fill="#fec838" fill-opacity="1"><g transform="translate(157.913894, 81.111854)"><g><path d="M 7.515625 -23.828125 L 8.015625 -17.265625 L 16.875 -17.9375 L 17.25 -13.109375 L 8.390625 -12.4375 L 8.90625 -5.71875 L 20.46875 -6.609375 L 20.84375 -1.59375 L 2.71875 -0.203125 L 0.578125 -28.359375 L 18.703125 -29.75 L 19.078125 -24.71875 Z M 7.515625 -23.828125 "/></g></g></g><g fill="#fec838" fill-opacity="1"><g transform="translate(180.062775, 79.423044)"><g/></g></g></svg>