<?xml version="1.0" encoding="UTF-8"?>
<svg id="katman_1" data-name="katman 1" xmlns="http://www.w3.org/2000/svg" viewBox="0 0 897.51 161.7">
  <defs>
    <style>
      .cls-1, .cls-2 {
        fill: #fff;
      }
      .cls-1, .cls-3 {
        fill-rule: evenodd;
      }
      .cls-4, .cls-3 {
        fill: #60d1b5;
      }
    </style>
  </defs>
  <path class="cls-2" d="M47.26,154.9L1.37,67.94h28.96l34.11,65.49,35.68-65.49h29.42l-48.57,86.96h-33.72Z"/>
  <path class="cls-2" d="M249.62,67.94v19.82h-70.53v14.86h65.84v17.21h-65.84v15.38h70.53v19.69h-97v-86.96h97Z"/>
  <path class="cls-2" d="M363.95,133.13v21.77h-86.57v-86.96h26.47v65.19h60.1Z"/>
  <path class="cls-4" d="M615.96,67.94c8.69,0,15.34,1.65,19.95,4.95,4.61,3.3,6.91,9.13,6.91,17.47,0,3.65-.33,6.76-.98,9.32-.65,2.56-1.82,4.59-3.52,6.06-1.69,1.48-3.26,2.48-4.69,3-1.43.52-3.45,1.13-6.06,1.83,7.04,1.13,11.91,2.91,14.6,5.35,2.69,2.43,4.04,7.09,4.04,13.95,0,9.65-2.33,16.23-6.98,19.75-4.65,3.52-11.97,5.28-21.97,5.28h-83.83v-86.96h82.53ZM616.1,94.28c0-2.95-.85-4.91-2.54-5.87-1.69-.96-4.19-1.43-7.5-1.43h-46.15v15.12h45.63c3.48,0,6.1-.48,7.89-1.43,1.78-.96,2.67-3.08,2.67-6.39ZM619.61,126.74c0-2.35-.76-4.17-2.28-5.48-1.52-1.3-4.5-1.96-8.93-1.96h-48.5v15.91h48.11c3.04,0,5.74-.33,8.08-.98,2.35-.65,3.52-3.15,3.52-7.5Z"/>
  <path class="cls-4" d="M772.28,67.94v19.82h-70.53v14.86h65.84v17.21h-65.84v15.38h70.53v19.69h-97v-86.96h97Z"/>
  <path class="cls-4" d="M830.95,154.9v-65.19h-38.85v-21.77h104.04v21.77h-38.72v65.19h-26.47Z"/>
  <g>
    <path class="cls-3" d="M504.41,15.29c0-5.19-4.21-9.41-9.41-9.41s-9.41,4.21-9.41,9.41c0,5.19,4.21,9.4,9.41,9.4s9.41-4.21,9.41-9.41Z"/>
    <path class="cls-4" d="M494.1,74.85c-5.69-5.13-16.28-7.69-31.75-7.69l-18.43-.11v21.3l12.44-.06c3.3,0,6.41.22,9.32.65s5.1,1.33,6.58,2.68c1.48,1.35,2.46,3.44,2.93,6.27.48,2.83.72,6.25.72,10.26l-.26,11.77c0,6.36-1.63,10.35-4.89,11.96s-8.63,2.42-16.1,2.42l-10.74.1v21.23l17.65-.35c18.34,0,29.77-3.06,34.29-9.19,4.52-6.13,6.78-18.23,6.78-36.31v-4.17c0-15.38-2.85-25.64-8.54-30.77Z"/>
    <path class="cls-3" d="M494.8,59.24V24.69l-27.44,24.31-23.43-23.43v28.12l18.61.11c15.47,0,26.05,2.56,31.75,7.69.19.17.36.36.54.54l-.02-2.79Z"/>
    <path class="cls-3" d="M443.92,5.97v18.64c4.78-.44,8.54-4.42,8.54-9.32s-3.76-8.88-8.54-9.32Z"/>
  </g>
  <g>
    <path class="cls-1" d="M402.25,15.29c0-5.19-4.21-9.41-9.41-9.4-5.19,0-9.41,4.21-9.41,9.4s4.21,9.41,9.41,9.41c5.19,0,9.41-4.21,9.41-9.41Z"/>
    <path class="cls-2" d="M443.92,134.42h-1.09s-14.21-.25-14.21-.25c-7.39,0-12.02-1.39-13.88-4.18-1.87-2.79-2.8-8.19-2.8-16.21v-5.88c0-2.61.24-5.9.72-9.87.48-3.97,2.28-6.56,5.41-7.78,3.13-1.22,7.69-1.83,13.69-1.83l12.18-.06v-21.31h-.96s-18.77.38-18.77.38c-16.95,0-27.68,2.72-32.2,8.15-4.52,5.43-6.78,16.97-6.78,34.61l.26,16.04c0,10.17,2.74,17.54,8.21,22.1,5.48,4.56,13.25,6.84,23.34,6.84l17.99.65,8.34-.13h.57v-21.26Z"/>
    <path class="cls-1" d="M443.92,25.55l-23.46,23.46-27.44-24.31v36.6c4.94-4.82,15.38-7.23,31.34-7.23l18.77-.39h.79s0-28.13,0-28.13Z"/>
    <path class="cls-1" d="M443.92,5.97c-4.78.44-8.54,4.42-8.54,9.32s3.76,8.88,8.54,9.32V5.97Z"/>
  </g>
</svg>
