<svg xmlns="http://www.w3.org/2000/svg" xmlns:xlink="http://www.w3.org/1999/xlink" width="320" zoomAndPan="magnify" viewBox="0 0 240 96.749999" height="129" preserveAspectRatio="xMidYMid meet" version="1.0"><defs><g/><clipPath id="1873e3ac38"><path d="M 5.9375 9.648438 L 106 9.648438 L 106 94.179688 L 5.9375 94.179688 Z M 5.9375 9.648438 " clip-rule="nonzero"/></clipPath></defs><g clip-path="url(#1873e3ac38)"><path fill="#00d5c8" d="M 64.980469 35.304688 L 5.953125 94.332031 L 5.953125 68.722656 L 64.980469 9.648438 Z M 46.816406 68.632812 L 46.816406 94.332031 L 87.683594 53.515625 L 87.683594 94.332031 L 105.84375 76.171875 L 105.84375 9.648438 Z M 46.816406 68.632812 " fill-opacity="1" fill-rule="nonzero"/></g><g fill="#00d5c8" fill-opacity="1"><g transform="translate(112.142515, 76.482744)"><g><path d="M 22.4375 -23.140625 L 22.4375 0 L 17.046875 0 L 17.046875 -9.78125 L 7.640625 -9.78125 L 7.640625 0 L 2.234375 0 L 2.234375 -23.140625 L 7.640625 -23.140625 L 7.640625 -13.46875 L 17.046875 -13.46875 L 17.046875 -23.140625 Z M 22.4375 -23.140625 "/></g></g></g><g fill="#00d5c8" fill-opacity="1"><g transform="translate(136.827275, 76.482744)"><g><path d="M 14.46875 -8.84375 L 12.328125 -15.1875 C 12.171875 -15.582031 12 -16.050781 11.8125 -16.59375 C 11.632812 -17.144531 11.457031 -17.738281 11.28125 -18.375 C 11.113281 -17.726562 10.941406 -17.128906 10.765625 -16.578125 C 10.585938 -16.023438 10.421875 -15.550781 10.265625 -15.15625 L 8.125 -8.84375 Z M 23 0 L 18.84375 0 C 18.375 0 17.992188 -0.109375 17.703125 -0.328125 C 17.421875 -0.546875 17.207031 -0.820312 17.0625 -1.15625 L 15.6875 -5.1875 L 6.890625 -5.1875 L 5.53125 -1.15625 C 5.414062 -0.863281 5.207031 -0.597656 4.90625 -0.359375 C 4.601562 -0.117188 4.226562 0 3.78125 0 L -0.40625 0 L 8.546875 -23.140625 L 14.046875 -23.140625 Z M 23 0 "/></g></g></g><g fill="#00d5c8" fill-opacity="1"><g transform="translate(159.415266, 76.482744)"><g><path d="M 23 -23.140625 L 13.71875 0 L 8.859375 0 L -0.40625 -23.140625 L 3.90625 -23.140625 C 4.375 -23.140625 4.75 -23.03125 5.03125 -22.8125 C 5.320312 -22.59375 5.539062 -22.316406 5.6875 -21.984375 L 10.171875 -9.59375 C 10.378906 -9.050781 10.582031 -8.457031 10.78125 -7.8125 C 10.988281 -7.175781 11.179688 -6.507812 11.359375 -5.8125 C 11.503906 -6.507812 11.671875 -7.175781 11.859375 -7.8125 C 12.046875 -8.457031 12.242188 -9.050781 12.453125 -9.59375 L 16.90625 -21.984375 C 17.019531 -22.273438 17.226562 -22.539062 17.53125 -22.78125 C 17.832031 -23.019531 18.203125 -23.140625 18.640625 -23.140625 Z M 23 -23.140625 "/></g></g></g><g fill="#00d5c8" fill-opacity="1"><g transform="translate(182.003257, 76.482744)"><g><path d="M 14.46875 -8.84375 L 12.328125 -15.1875 C 12.171875 -15.582031 12 -16.050781 11.8125 -16.59375 C 11.632812 -17.144531 11.457031 -17.738281 11.28125 -18.375 C 11.113281 -17.726562 10.941406 -17.128906 10.765625 -16.578125 C 10.585938 -16.023438 10.421875 -15.550781 10.265625 -15.15625 L 8.125 -8.84375 Z M 23 0 L 18.84375 0 C 18.375 0 17.992188 -0.109375 17.703125 -0.328125 C 17.421875 -0.546875 17.207031 -0.820312 17.0625 -1.15625 L 15.6875 -5.1875 L 6.890625 -5.1875 L 5.53125 -1.15625 C 5.414062 -0.863281 5.207031 -0.597656 4.90625 -0.359375 C 4.601562 -0.117188 4.226562 0 3.78125 0 L -0.40625 0 L 8.546875 -23.140625 L 14.046875 -23.140625 Z M 23 0 "/></g></g></g><g fill="#00d5c8" fill-opacity="1"><g transform="translate(204.591247, 76.482744)"><g><path d="M 16.1875 -4.28125 L 16.1875 0 L 2.234375 0 L 2.234375 -23.140625 L 7.609375 -23.140625 L 7.609375 -4.28125 Z M 16.1875 -4.28125 "/></g></g></g><g fill="#00d5c8" fill-opacity="1"><g transform="translate(221.270141, 76.482744)"><g><path d="M 7.640625 -19.015625 L 7.640625 -13.609375 L 14.90625 -13.609375 L 14.90625 -9.640625 L 7.640625 -9.640625 L 7.640625 -4.125 L 17.140625 -4.125 L 17.140625 0 L 2.234375 0 L 2.234375 -23.140625 L 17.140625 -23.140625 L 17.140625 -19.015625 Z M 7.640625 -19.015625 "/></g></g></g><g fill="#00d5c8" fill-opacity="1"><g transform="translate(111.943599, 48.255676)"><g><path d="M 30.03125 -24.59375 L 30.03125 0 L 25 0 L 25 -14.140625 C 25 -14.472656 25.003906 -14.828125 25.015625 -15.203125 C 25.035156 -15.585938 25.070312 -15.976562 25.125 -16.375 L 18.59375 -3.734375 C 18.382812 -3.335938 18.109375 -3.035156 17.765625 -2.828125 C 17.421875 -2.628906 17.03125 -2.53125 16.59375 -2.53125 L 15.8125 -2.53125 C 15.375 -2.53125 14.984375 -2.628906 14.640625 -2.828125 C 14.296875 -3.035156 14.023438 -3.335938 13.828125 -3.734375 L 7.296875 -16.40625 C 7.328125 -16 7.351562 -15.601562 7.375 -15.21875 C 7.394531 -14.832031 7.40625 -14.472656 7.40625 -14.140625 L 7.40625 0 L 2.375 0 L 2.375 -24.59375 L 6.734375 -24.59375 C 6.984375 -24.59375 7.203125 -24.585938 7.390625 -24.578125 C 7.578125 -24.566406 7.742188 -24.53125 7.890625 -24.46875 C 8.035156 -24.414062 8.164062 -24.332031 8.28125 -24.21875 C 8.394531 -24.101562 8.507812 -23.9375 8.625 -23.71875 L 14.953125 -11.25 C 15.179688 -10.820312 15.398438 -10.375 15.609375 -9.90625 C 15.816406 -9.445312 16.015625 -8.972656 16.203125 -8.484375 C 16.398438 -8.984375 16.601562 -9.46875 16.8125 -9.9375 C 17.019531 -10.414062 17.238281 -10.867188 17.46875 -11.296875 L 23.78125 -23.71875 C 23.894531 -23.9375 24.007812 -24.101562 24.125 -24.21875 C 24.25 -24.332031 24.382812 -24.414062 24.53125 -24.46875 C 24.675781 -24.53125 24.84375 -24.566406 25.03125 -24.578125 C 25.21875 -24.585938 25.429688 -24.59375 25.671875 -24.59375 Z M 30.03125 -24.59375 "/></g></g></g><g fill="#00d5c8" fill-opacity="1"><g transform="translate(144.349865, 48.255676)"><g><path d="M 15.375 -9.40625 L 13.09375 -16.140625 C 12.925781 -16.566406 12.75 -17.066406 12.5625 -17.640625 C 12.375 -18.222656 12.179688 -18.851562 11.984375 -19.53125 C 11.816406 -18.84375 11.632812 -18.207031 11.4375 -17.625 C 11.25 -17.039062 11.070312 -16.535156 10.90625 -16.109375 L 8.640625 -9.40625 Z M 24.453125 0 L 20.015625 0 C 19.523438 0 19.128906 -0.113281 18.828125 -0.34375 C 18.523438 -0.570312 18.289062 -0.867188 18.125 -1.234375 L 16.6875 -5.515625 L 7.328125 -5.515625 L 5.875 -1.234375 C 5.75 -0.921875 5.523438 -0.632812 5.203125 -0.375 C 4.890625 -0.125 4.492188 0 4.015625 0 L -0.4375 0 L 9.078125 -24.59375 L 14.921875 -24.59375 Z M 24.453125 0 "/></g></g></g><g fill="#00d5c8" fill-opacity="1"><g transform="translate(168.350755, 48.255676)"><g><path d="M 23.484375 0 L 17.78125 0 C 17.40625 0 17.101562 -0.0859375 16.875 -0.265625 C 16.644531 -0.453125 16.460938 -0.664062 16.328125 -0.90625 L 11.390625 -9.515625 C 11.304688 -9.273438 11.207031 -9.0625 11.09375 -8.875 L 6.5 -0.90625 C 6.34375 -0.6875 6.15625 -0.476562 5.9375 -0.28125 C 5.726562 -0.09375 5.453125 0 5.109375 0 L -0.21875 0 L 7.703125 -12.65625 L 0.078125 -24.59375 L 5.796875 -24.59375 C 6.160156 -24.59375 6.429688 -24.546875 6.609375 -24.453125 C 6.785156 -24.359375 6.941406 -24.195312 7.078125 -23.96875 L 11.96875 -15.6875 C 12.019531 -15.832031 12.082031 -15.972656 12.15625 -16.109375 C 12.238281 -16.242188 12.320312 -16.382812 12.40625 -16.53125 L 16.703125 -23.890625 C 16.859375 -24.140625 17.019531 -24.316406 17.1875 -24.421875 C 17.363281 -24.535156 17.582031 -24.59375 17.84375 -24.59375 L 23.3125 -24.59375 L 15.59375 -12.90625 Z M 23.484375 0 "/></g></g></g><g fill="#00d5c8" fill-opacity="1"><g transform="translate(191.642763, 48.255676)"><g><path d="M 8.125 0 L 2.375 0 L 2.375 -24.59375 L 8.125 -24.59375 Z M 8.328125 -28.703125 C 8.328125 -28.316406 8.242188 -27.945312 8.078125 -27.59375 C 7.910156 -27.25 7.6875 -26.945312 7.40625 -26.6875 C 7.132812 -26.4375 6.8125 -26.226562 6.4375 -26.0625 C 6.0625 -25.90625 5.664062 -25.828125 5.25 -25.828125 C 4.851562 -25.828125 4.476562 -25.90625 4.125 -26.0625 C 3.769531 -26.226562 3.457031 -26.4375 3.1875 -26.6875 C 2.914062 -26.945312 2.703125 -27.25 2.546875 -27.59375 C 2.390625 -27.945312 2.3125 -28.316406 2.3125 -28.703125 C 2.3125 -29.109375 2.390625 -29.488281 2.546875 -29.84375 C 2.703125 -30.195312 2.914062 -30.507812 3.1875 -30.78125 C 3.457031 -31.050781 3.769531 -31.265625 4.125 -31.421875 C 4.476562 -31.578125 4.851562 -31.65625 5.25 -31.65625 C 5.664062 -31.65625 6.0625 -31.578125 6.4375 -31.421875 C 6.8125 -31.265625 7.132812 -31.050781 7.40625 -30.78125 C 7.6875 -30.507812 7.910156 -30.195312 8.078125 -29.84375 C 8.242188 -29.488281 8.328125 -29.109375 8.328125 -28.703125 Z M 8.328125 -28.703125 "/></g></g></g></svg>