<svg xmlns="http://www.w3.org/2000/svg" xmlns:xlink="http://www.w3.org/1999/xlink" width="320" zoomAndPan="magnify" viewBox="0 0 240 96.749999" height="129" preserveAspectRatio="xMidYMid meet" version="1.0"><defs><g/><clipPath id="d28e4135db"><path d="M 0.703125 1 L 236 1 L 236 62 L 0.703125 62 Z M 0.703125 1 " clip-rule="nonzero"/></clipPath><clipPath id="4116139ccf"><rect x="0" width="237" y="0" height="63"/></clipPath></defs><g transform="matrix(1, 0, 0, 1, 2, 14)"><g clip-path="url(#4116139ccf)"><g clip-path="url(#d28e4135db)"><path fill="#282828" d="M 31.011719 1.492188 L 204.957031 1.492188 C 212.976562 1.492188 220.667969 4.675781 226.335938 10.347656 C 232.007812 16.015625 235.191406 23.707031 235.191406 31.722656 C 235.191406 39.742188 232.007812 47.433594 226.335938 53.101562 C 220.667969 58.773438 212.976562 61.957031 204.957031 61.957031 L 31.011719 61.957031 C 14.316406 61.957031 0.777344 48.421875 0.777344 31.722656 C 0.777344 15.027344 14.316406 1.492188 31.011719 1.492188 Z M 31.011719 1.492188 " fill-opacity="1" fill-rule="nonzero"/></g><g fill="#00d5c8" fill-opacity="1"><g transform="translate(7.262828, 44.680109)"><g><path d="M 14.144531 0.589844 C 21.992188 0.589844 27.222656 -4.863281 27.222656 -13.113281 C 27.222656 -21.367188 21.992188 -26.816406 14.144531 -26.816406 C 6.261719 -26.816406 1.03125 -21.367188 1.03125 -13.113281 C 1.03125 -4.863281 6.261719 0.589844 14.144531 0.589844 Z M 14.144531 -3.792969 C 9.355469 -3.792969 6.226562 -7.332031 6.226562 -13.113281 C 6.226562 -18.898438 9.355469 -22.433594 14.144531 -22.433594 C 18.933594 -22.433594 22.066406 -18.898438 22.066406 -13.113281 C 22.066406 -7.332031 18.933594 -3.792969 14.144531 -3.792969 Z M 14.144531 -3.792969 "/></g></g></g><g fill="#00d5c8" fill-opacity="1"><g transform="translate(33.629518, 44.680109)"><g><path d="M 0.589844 -26.226562 L 0.589844 -21.769531 L 8.988281 -21.769531 L 8.988281 0 L 14 0 L 14 -21.769531 L 22.398438 -21.769531 L 22.398438 -26.226562 Z M 0.589844 -26.226562 "/></g></g></g><g fill="#00d5c8" fill-opacity="1"><g transform="translate(54.693294, 44.680109)"><g><path d="M 14.144531 0.589844 C 21.992188 0.589844 27.222656 -4.863281 27.222656 -13.113281 C 27.222656 -21.367188 21.992188 -26.816406 14.144531 -26.816406 C 6.261719 -26.816406 1.03125 -21.367188 1.03125 -13.113281 C 1.03125 -4.863281 6.261719 0.589844 14.144531 0.589844 Z M 14.144531 -3.792969 C 9.355469 -3.792969 6.226562 -7.332031 6.226562 -13.113281 C 6.226562 -18.898438 9.355469 -22.433594 14.144531 -22.433594 C 18.933594 -22.433594 22.066406 -18.898438 22.066406 -13.113281 C 22.066406 -7.332031 18.933594 -3.792969 14.144531 -3.792969 Z M 14.144531 -3.792969 "/></g></g></g><g fill="#00d5c8" fill-opacity="1"><g transform="translate(82.975532, 44.680109)"><g/></g></g><g fill="#00d5c8" fill-opacity="1"><g transform="translate(90.929905, 44.680109)"><g><path d="M 19.304688 -15.691406 L 7.109375 -15.691406 L 7.109375 -26.226562 L 2.136719 -26.226562 L 2.136719 0 L 7.109375 0 L 7.109375 -11.234375 L 19.304688 -11.234375 L 19.304688 0 L 24.277344 0 L 24.277344 -26.226562 L 19.304688 -26.226562 Z M 19.304688 -15.691406 "/></g></g></g><g fill="#00d5c8" fill-opacity="1"><g transform="translate(116.855141, 44.680109)"><g><path d="M 26.191406 0 L 16.023438 -26.226562 L 10.203125 -26.226562 L 0.222656 0 L 5.339844 0 L 7.367188 -5.785156 L 18.859375 -5.785156 L 20.921875 0 Z M 9.871094 -12.855469 C 10.757812 -15.25 12.007812 -18.75 13.078125 -21.84375 C 14.144531 -18.75 15.398438 -15.25 16.320312 -12.855469 L 17.351562 -10.019531 L 8.878906 -10.019531 Z M 9.871094 -12.855469 "/></g></g></g><g fill="#00d5c8" fill-opacity="1"><g transform="translate(139.096626, 44.680109)"><g><path d="M 15.25 -12.671875 C 14.402344 -10.09375 13.519531 -7.292969 12.78125 -4.496094 C 12.007812 -7.292969 11.125 -10.09375 10.277344 -12.671875 L 5.527344 -26.226562 L 0.222656 -26.226562 L 9.835938 0 L 15.65625 0 L 25.050781 -26.226562 L 19.890625 -26.226562 Z M 15.25 -12.671875 "/></g></g></g><g fill="#00d5c8" fill-opacity="1"><g transform="translate(160.159692, 44.680109)"><g><path d="M 26.191406 0 L 16.023438 -26.226562 L 10.203125 -26.226562 L 0.222656 0 L 5.339844 0 L 7.367188 -5.785156 L 18.859375 -5.785156 L 20.921875 0 Z M 9.871094 -12.855469 C 10.757812 -15.25 12.007812 -18.75 13.078125 -21.84375 C 14.144531 -18.75 15.398438 -15.25 16.320312 -12.855469 L 17.351562 -10.019531 L 8.878906 -10.019531 Z M 9.871094 -12.855469 "/></g></g></g><g fill="#00d5c8" fill-opacity="1"><g transform="translate(186.121748, 44.680109)"><g><path d="M 7.109375 -26.226562 L 2.136719 -26.226562 L 2.136719 0 L 19.597656 0 L 19.597656 -4.457031 L 7.109375 -4.457031 Z M 7.109375 -26.226562 "/></g></g></g><g fill="#00d5c8" fill-opacity="1"><g transform="translate(206.302302, 44.680109)"><g><path d="M 21.476562 -26.226562 L 2.136719 -26.226562 L 2.136719 0 L 21.402344 0 L 21.402344 -4.457031 L 7.109375 -4.457031 L 7.109375 -11.308594 L 20.113281 -11.308594 L 20.113281 -15.582031 L 7.109375 -15.582031 L 7.109375 -21.769531 L 21.476562 -21.769531 Z M 21.476562 -26.226562 "/></g></g></g><g fill="#00d5c8" fill-opacity="1"><g transform="translate(228.707164, 44.680109)"><g/></g></g></g></g></svg>